%FSLAX34Y34*%
G04 Gerber Fmt 3.4, Leading zero omitted, Abs format*
G04 (created by PCBNEW (2014-jan-25)-product) date Sun 10 Aug 2014 05:09:58 PM PDT*
%MOIN*%
G01*
G70*
G90*
G04 APERTURE LIST*
%ADD10C,0.003937*%
%ADD11C,0.059100*%
%ADD12C,0.078700*%
%ADD13R,0.078700X0.078700*%
%ADD14C,0.060000*%
%ADD15C,0.236220*%
%ADD16R,0.068000X0.080000*%
%ADD17O,0.068000X0.080000*%
%ADD18R,0.068000X0.068000*%
%ADD19O,0.068000X0.068000*%
%ADD20O,0.066900X0.137800*%
%ADD21R,0.380000X0.620000*%
%ADD22R,0.055000X0.055000*%
%ADD23C,0.055000*%
%ADD24R,0.060000X0.060000*%
%ADD25C,0.080000*%
%ADD26C,0.068000*%
%ADD27C,0.035000*%
%ADD28C,0.008000*%
%ADD29C,0.040000*%
%ADD30C,0.010000*%
G04 APERTURE END LIST*
G54D10*
G54D11*
X59000Y-57000D03*
X59000Y-58000D03*
X63000Y-55250D03*
X63000Y-54250D03*
X59500Y-45750D03*
X58500Y-45750D03*
X58000Y-54500D03*
X59000Y-54500D03*
X72500Y-52000D03*
X71500Y-52000D03*
X64750Y-44750D03*
X64750Y-45750D03*
X65250Y-41000D03*
X65250Y-42000D03*
G54D12*
X63000Y-46000D03*
G54D13*
X63000Y-42000D03*
G54D14*
X47000Y-43750D03*
X47000Y-44750D03*
G54D15*
X41338Y-45275D03*
X76771Y-41338D03*
X41338Y-57086D03*
X76771Y-57086D03*
G54D16*
X75500Y-54750D03*
G54D17*
X76500Y-54750D03*
X77500Y-54750D03*
G54D18*
X43750Y-44750D03*
G54D19*
X43750Y-43750D03*
X44750Y-44750D03*
X44750Y-43750D03*
G54D18*
X57000Y-58000D03*
G54D19*
X56000Y-58000D03*
X57000Y-57000D03*
X56000Y-57000D03*
X57000Y-56000D03*
X56000Y-56000D03*
G54D20*
X45750Y-50500D03*
X46750Y-50500D03*
X44750Y-50500D03*
G54D21*
X45750Y-55200D03*
G54D12*
X70000Y-53750D03*
X74000Y-53750D03*
X61500Y-46000D03*
X61500Y-42000D03*
X48750Y-43500D03*
X52750Y-43500D03*
X48750Y-45500D03*
X52750Y-45500D03*
G54D22*
X67250Y-43000D03*
G54D23*
X68250Y-43000D03*
X69250Y-43000D03*
X70250Y-43000D03*
X71250Y-43000D03*
X72250Y-43000D03*
X73250Y-43000D03*
X73250Y-40000D03*
X72250Y-40000D03*
X71250Y-40000D03*
X70250Y-40000D03*
X69250Y-40000D03*
X68250Y-40000D03*
X67250Y-40000D03*
G54D22*
X70500Y-47500D03*
G54D23*
X70500Y-48500D03*
X70500Y-49500D03*
X70500Y-50500D03*
X73500Y-50500D03*
X73500Y-49500D03*
X73500Y-48500D03*
X73500Y-47500D03*
G54D11*
X61000Y-56961D03*
X61000Y-55039D03*
G54D13*
X74970Y-43750D03*
G54D12*
X77530Y-43750D03*
G54D24*
X66250Y-57250D03*
G54D14*
X66250Y-56250D03*
X67250Y-57250D03*
X67250Y-56250D03*
X68250Y-57250D03*
X68250Y-56250D03*
X69250Y-57250D03*
X69250Y-56250D03*
X70250Y-57250D03*
X70250Y-56250D03*
G54D22*
X49500Y-53000D03*
G54D23*
X50500Y-53000D03*
X51500Y-53000D03*
X52500Y-53000D03*
X53500Y-53000D03*
X54500Y-53000D03*
X55500Y-53000D03*
X56500Y-53000D03*
X57500Y-53000D03*
X58500Y-53000D03*
X59500Y-53000D03*
X60500Y-53000D03*
X61500Y-53000D03*
X62500Y-53000D03*
X63500Y-53000D03*
X64500Y-53000D03*
X65500Y-53000D03*
X66500Y-53000D03*
X67500Y-53000D03*
X68500Y-53000D03*
X68500Y-47000D03*
X67500Y-47000D03*
X66500Y-47000D03*
X65500Y-47000D03*
X64500Y-47000D03*
X63500Y-47000D03*
X62500Y-47000D03*
X61500Y-47000D03*
X60500Y-47000D03*
X59500Y-47000D03*
X58500Y-47000D03*
X57500Y-47000D03*
X56500Y-47000D03*
X55500Y-47000D03*
X54500Y-47000D03*
X53500Y-47000D03*
X52500Y-47000D03*
X51500Y-47000D03*
X50500Y-47000D03*
X49500Y-47000D03*
G54D11*
X62000Y-40750D03*
X63000Y-40750D03*
G54D25*
X42000Y-49984D03*
X42000Y-48015D03*
X42000Y-54484D03*
X42000Y-52515D03*
G54D24*
X77000Y-51000D03*
G54D14*
X76000Y-51000D03*
X77000Y-50000D03*
X76000Y-50000D03*
X77000Y-49000D03*
X76000Y-49000D03*
X77000Y-48000D03*
X76000Y-48000D03*
X77000Y-47000D03*
X76000Y-47000D03*
G54D18*
X54750Y-43250D03*
G54D26*
X55750Y-43250D03*
X56750Y-43250D03*
X57750Y-43250D03*
X58750Y-43250D03*
X59750Y-43250D03*
G54D18*
X49000Y-58000D03*
G54D26*
X50000Y-58000D03*
X51000Y-58000D03*
X52000Y-58000D03*
X53000Y-58000D03*
X54000Y-58000D03*
G54D18*
X44500Y-48250D03*
G54D26*
X45500Y-48250D03*
X46500Y-48250D03*
G54D18*
X40750Y-41750D03*
G54D19*
X40750Y-40750D03*
X41750Y-41750D03*
X41750Y-40750D03*
X42750Y-41750D03*
X42750Y-40750D03*
X43750Y-41750D03*
X43750Y-40750D03*
X44750Y-41750D03*
X44750Y-40750D03*
X45750Y-41750D03*
X45750Y-40750D03*
X46750Y-41750D03*
X46750Y-40750D03*
X47750Y-41750D03*
X47750Y-40750D03*
X48750Y-41750D03*
X48750Y-40750D03*
X49750Y-41750D03*
X49750Y-40750D03*
X50750Y-41750D03*
X50750Y-40750D03*
X51750Y-41750D03*
X51750Y-40750D03*
X52750Y-41750D03*
X52750Y-40750D03*
X53750Y-41750D03*
X53750Y-40750D03*
X54750Y-41750D03*
X54750Y-40750D03*
X55750Y-41750D03*
X55750Y-40750D03*
X56750Y-41750D03*
X56750Y-40750D03*
X57750Y-41750D03*
X57750Y-40750D03*
X58750Y-41750D03*
X58750Y-40750D03*
X59750Y-41750D03*
X59750Y-40750D03*
G54D18*
X54000Y-44750D03*
G54D26*
X55000Y-44750D03*
X56000Y-44750D03*
X57000Y-44750D03*
G54D18*
X66250Y-44250D03*
G54D26*
X67250Y-44250D03*
X68250Y-44250D03*
X69250Y-44250D03*
X70250Y-44250D03*
X71250Y-44250D03*
X72250Y-44250D03*
X73250Y-44250D03*
G54D18*
X66250Y-45750D03*
G54D26*
X67250Y-45750D03*
X68250Y-45750D03*
X69250Y-45750D03*
X70250Y-45750D03*
X71250Y-45750D03*
X72250Y-45750D03*
X73250Y-45750D03*
G54D27*
X46250Y-42750D03*
X60250Y-49500D03*
X58750Y-49500D03*
X43750Y-42750D03*
X55000Y-54500D03*
X71500Y-55250D03*
X56000Y-55000D03*
X63500Y-51500D03*
X66000Y-51500D03*
X69750Y-50500D03*
X62500Y-48750D03*
X71250Y-48000D03*
X43000Y-44250D03*
X55000Y-49500D03*
X54250Y-50250D03*
X56000Y-45750D03*
X63000Y-44250D03*
X64250Y-42250D03*
X70250Y-41000D03*
X68750Y-44750D03*
X71750Y-41250D03*
X52000Y-52000D03*
X67000Y-51750D03*
G54D28*
X59000Y-57000D02*
X60961Y-57000D01*
X60961Y-57000D02*
X61000Y-56961D01*
G54D29*
X44750Y-41750D02*
X44750Y-42600D01*
X44900Y-42750D02*
X46250Y-42750D01*
X44750Y-42600D02*
X44900Y-42750D01*
X65250Y-42000D02*
X66000Y-42000D01*
X72500Y-42250D02*
X73250Y-43000D01*
X71400Y-42250D02*
X72500Y-42250D01*
X71050Y-41900D02*
X71400Y-42250D01*
X66100Y-41900D02*
X71050Y-41900D01*
X66000Y-42000D02*
X66100Y-41900D01*
X54750Y-40250D02*
X55000Y-40000D01*
X56750Y-40250D02*
X56750Y-40750D01*
X56500Y-40000D02*
X56750Y-40250D01*
X55000Y-40000D02*
X56500Y-40000D01*
X49625Y-40375D02*
X50000Y-40000D01*
X54750Y-40250D02*
X54750Y-40750D01*
X54500Y-40000D02*
X54750Y-40250D01*
X50000Y-40000D02*
X54500Y-40000D01*
X46750Y-40750D02*
X46750Y-40250D01*
X49250Y-40000D02*
X49625Y-40375D01*
X49625Y-40375D02*
X49750Y-40500D01*
X47000Y-40000D02*
X49250Y-40000D01*
X46750Y-40250D02*
X47000Y-40000D01*
X49750Y-40500D02*
X49750Y-40750D01*
X59000Y-58000D02*
X70750Y-58000D01*
X71000Y-56750D02*
X70500Y-56250D01*
X71000Y-57750D02*
X71000Y-56750D01*
X70750Y-58000D02*
X71000Y-57750D01*
X70500Y-56250D02*
X70250Y-56250D01*
X76000Y-50000D02*
X77000Y-50000D01*
X70500Y-48500D02*
X71500Y-48500D01*
X72500Y-47500D02*
X73500Y-47500D01*
X71500Y-48500D02*
X72500Y-47500D01*
G54D28*
X63000Y-55250D02*
X62250Y-55250D01*
X62039Y-55039D02*
X61000Y-55039D01*
X62250Y-55250D02*
X62039Y-55039D01*
X64750Y-45750D02*
X65500Y-46500D01*
X74780Y-46500D02*
X77530Y-43750D01*
X65500Y-46500D02*
X74780Y-46500D01*
X63000Y-46000D02*
X63750Y-46000D01*
X64000Y-45750D02*
X64750Y-45750D01*
X63750Y-46000D02*
X64000Y-45750D01*
X58750Y-49500D02*
X60250Y-49500D01*
X61500Y-46000D02*
X63000Y-46000D01*
G54D29*
X46500Y-48250D02*
X46500Y-47750D01*
X50750Y-45500D02*
X52750Y-45500D01*
X50000Y-46250D02*
X50750Y-45500D01*
X48000Y-46250D02*
X50000Y-46250D01*
X46500Y-47750D02*
X48000Y-46250D01*
X40750Y-40750D02*
X41750Y-40750D01*
X40250Y-40750D02*
X40750Y-40750D01*
X40000Y-41000D02*
X40250Y-40750D01*
X40000Y-42250D02*
X40000Y-41000D01*
X40500Y-42750D02*
X40000Y-42250D01*
X43750Y-42750D02*
X40500Y-42750D01*
X59500Y-47750D02*
X61250Y-49500D01*
X61250Y-49500D02*
X70500Y-49500D01*
X46500Y-48250D02*
X59000Y-48250D01*
X59500Y-47750D02*
X59500Y-47000D01*
X59000Y-48250D02*
X59500Y-47750D01*
X55000Y-54500D02*
X58000Y-54500D01*
X67250Y-56250D02*
X67250Y-55750D01*
X67750Y-55250D02*
X71500Y-55250D01*
X67250Y-55750D02*
X67750Y-55250D01*
X73500Y-50500D02*
X71500Y-50500D01*
X71500Y-50500D02*
X70500Y-49500D01*
X67250Y-40000D02*
X68250Y-40000D01*
X63000Y-42000D02*
X63500Y-42000D01*
X64500Y-41000D02*
X65250Y-41000D01*
X63500Y-42000D02*
X64500Y-41000D01*
X61500Y-42000D02*
X63000Y-42000D01*
G54D28*
X44750Y-43750D02*
X47000Y-43750D01*
X75500Y-54750D02*
X75000Y-54750D01*
X75000Y-54750D02*
X74000Y-53750D01*
X48750Y-45500D02*
X44500Y-45500D01*
X44500Y-45500D02*
X43750Y-44750D01*
X48750Y-43500D02*
X48000Y-43500D01*
X44250Y-43250D02*
X43750Y-43750D01*
X47750Y-43250D02*
X44250Y-43250D01*
X48000Y-43500D02*
X47750Y-43250D01*
X56500Y-57500D02*
X57000Y-58000D01*
X56500Y-55500D02*
X56500Y-57500D01*
X56000Y-55000D02*
X56500Y-55500D01*
X66000Y-51500D02*
X63500Y-51500D01*
X64500Y-53000D02*
X65250Y-52250D01*
X68000Y-52250D02*
X69750Y-50500D01*
X65250Y-52250D02*
X68000Y-52250D01*
X65500Y-53000D02*
X66000Y-52500D01*
X68500Y-52500D02*
X70500Y-50500D01*
X66000Y-52500D02*
X68500Y-52500D01*
X63250Y-48000D02*
X62500Y-48750D01*
X71250Y-48000D02*
X63250Y-48000D01*
X60000Y-42500D02*
X57500Y-42500D01*
X56500Y-45000D02*
X56500Y-45250D01*
X56500Y-44250D02*
X56500Y-45000D01*
X57250Y-43500D02*
X56500Y-44250D01*
X57250Y-42750D02*
X57250Y-43500D01*
X57500Y-42500D02*
X57250Y-42750D01*
X71250Y-43000D02*
X70750Y-42500D01*
X55500Y-45250D02*
X55000Y-44750D01*
X56500Y-45250D02*
X55500Y-45250D01*
X60250Y-42750D02*
X60000Y-42500D01*
X66000Y-42750D02*
X60250Y-42750D01*
X66500Y-42250D02*
X66000Y-42750D01*
X68000Y-42250D02*
X66500Y-42250D01*
X68250Y-42500D02*
X68000Y-42250D01*
X70750Y-42500D02*
X68250Y-42500D01*
X53250Y-45250D02*
X52500Y-44500D01*
X54500Y-45250D02*
X53250Y-45250D01*
X55000Y-44750D02*
X54500Y-45250D01*
X52500Y-44500D02*
X48000Y-44500D01*
X48000Y-44500D02*
X47750Y-44250D01*
X47750Y-44250D02*
X43000Y-44250D01*
X71250Y-43000D02*
X71750Y-43500D01*
X72500Y-43500D02*
X73250Y-44250D01*
X71750Y-43500D02*
X72500Y-43500D01*
X55000Y-49500D02*
X54250Y-50250D01*
X71250Y-44250D02*
X70250Y-45250D01*
X57500Y-45750D02*
X56000Y-45750D01*
X58000Y-45250D02*
X57500Y-45750D01*
X61250Y-45250D02*
X58000Y-45250D01*
X70250Y-45250D02*
X61250Y-45250D01*
X56000Y-44750D02*
X55500Y-44250D01*
X55500Y-44250D02*
X51750Y-44250D01*
X51750Y-44250D02*
X49750Y-42250D01*
X49750Y-42250D02*
X45500Y-42250D01*
X45500Y-42250D02*
X45250Y-42000D01*
X45250Y-42000D02*
X45250Y-41250D01*
X45250Y-41250D02*
X44750Y-40750D01*
X64250Y-42250D02*
X65000Y-41500D01*
X67200Y-41000D02*
X67200Y-41050D01*
X66700Y-41500D02*
X67200Y-41000D01*
X65000Y-41500D02*
X66700Y-41500D01*
X70250Y-41000D02*
X67250Y-41000D01*
X67250Y-41000D02*
X67200Y-41050D01*
X62500Y-44750D02*
X57000Y-44750D01*
X63000Y-44250D02*
X62500Y-44750D01*
X72250Y-44250D02*
X72750Y-44750D01*
X71000Y-41000D02*
X70250Y-41000D01*
X71750Y-41750D02*
X71000Y-41000D01*
X73000Y-41750D02*
X71750Y-41750D01*
X74000Y-42750D02*
X73000Y-41750D01*
X74000Y-44250D02*
X74000Y-42750D01*
X73500Y-44750D02*
X74000Y-44250D01*
X72750Y-44750D02*
X73500Y-44750D01*
X73500Y-49500D02*
X74250Y-49500D01*
X74750Y-49000D02*
X76000Y-49000D01*
X74250Y-49500D02*
X74750Y-49000D01*
X73500Y-48500D02*
X76500Y-48500D01*
X76500Y-48500D02*
X77000Y-49000D01*
G54D29*
X45750Y-50500D02*
X45750Y-49750D01*
X42734Y-49250D02*
X42000Y-49984D01*
X45250Y-49250D02*
X42734Y-49250D01*
X45750Y-49750D02*
X45250Y-49250D01*
G54D28*
X64750Y-44750D02*
X68750Y-44750D01*
X71000Y-40750D02*
X70250Y-40000D01*
X71250Y-40750D02*
X71000Y-40750D01*
X71750Y-41250D02*
X71250Y-40750D01*
X63000Y-40750D02*
X63500Y-40250D01*
X69500Y-40750D02*
X70250Y-40000D01*
X66500Y-40750D02*
X69500Y-40750D01*
X66000Y-40250D02*
X66500Y-40750D01*
X63500Y-40250D02*
X66000Y-40250D01*
X66750Y-52000D02*
X52000Y-52000D01*
X67000Y-51750D02*
X66750Y-52000D01*
X59750Y-43250D02*
X66000Y-43250D01*
X66000Y-43250D02*
X66750Y-42500D01*
X68250Y-43000D02*
X67750Y-42500D01*
X67750Y-42500D02*
X66750Y-42500D01*
X57750Y-43250D02*
X58500Y-44000D01*
X68750Y-43750D02*
X69250Y-44250D01*
X61500Y-43750D02*
X68750Y-43750D01*
X61250Y-44000D02*
X61500Y-43750D01*
X58500Y-44000D02*
X61250Y-44000D01*
X70250Y-44250D02*
X69500Y-43500D01*
X59250Y-43750D02*
X58750Y-43250D01*
X60750Y-43750D02*
X59250Y-43750D01*
X61000Y-43500D02*
X60750Y-43750D01*
X69500Y-43500D02*
X61000Y-43500D01*
G54D30*
G36*
X47019Y-44755D02*
X47005Y-44769D01*
X47000Y-44764D01*
X46994Y-44769D01*
X46980Y-44755D01*
X46985Y-44750D01*
X46980Y-44744D01*
X46994Y-44730D01*
X47000Y-44735D01*
X47005Y-44730D01*
X47019Y-44744D01*
X47014Y-44750D01*
X47019Y-44755D01*
X47019Y-44755D01*
G37*
X47019Y-44755D02*
X47005Y-44769D01*
X47000Y-44764D01*
X46994Y-44769D01*
X46980Y-44755D01*
X46985Y-44750D01*
X46980Y-44744D01*
X46994Y-44730D01*
X47000Y-44735D01*
X47005Y-44730D01*
X47019Y-44744D01*
X47014Y-44750D01*
X47019Y-44755D01*
G36*
X51299Y-44210D02*
X48120Y-44210D01*
X47955Y-44044D01*
X47860Y-43982D01*
X47750Y-43960D01*
X47508Y-43960D01*
X47549Y-43859D01*
X47550Y-43641D01*
X47508Y-43540D01*
X47629Y-43540D01*
X47794Y-43705D01*
X47889Y-43767D01*
X47889Y-43767D01*
X48000Y-43790D01*
X48173Y-43790D01*
X48204Y-43864D01*
X48385Y-44045D01*
X48621Y-44143D01*
X48877Y-44143D01*
X49114Y-44045D01*
X49295Y-43864D01*
X49393Y-43628D01*
X49393Y-43372D01*
X49295Y-43135D01*
X49114Y-42954D01*
X48878Y-42856D01*
X48622Y-42856D01*
X48385Y-42954D01*
X48204Y-43135D01*
X48173Y-43210D01*
X48120Y-43210D01*
X47955Y-43044D01*
X47860Y-42982D01*
X47750Y-42960D01*
X44250Y-42960D01*
X44139Y-42982D01*
X44115Y-42998D01*
X44165Y-42922D01*
X44200Y-42750D01*
X44165Y-42577D01*
X44068Y-42431D01*
X43922Y-42334D01*
X43856Y-42321D01*
X43987Y-42295D01*
X44178Y-42167D01*
X44189Y-42150D01*
X44380Y-42333D01*
X44632Y-42429D01*
X44740Y-42352D01*
X44740Y-41760D01*
X44732Y-41760D01*
X44732Y-41740D01*
X44740Y-41740D01*
X44740Y-41732D01*
X44760Y-41732D01*
X44760Y-41740D01*
X44767Y-41740D01*
X44767Y-41760D01*
X44760Y-41760D01*
X44760Y-42352D01*
X44867Y-42429D01*
X45119Y-42333D01*
X45146Y-42306D01*
X45294Y-42455D01*
X45389Y-42517D01*
X45389Y-42517D01*
X45500Y-42540D01*
X49629Y-42540D01*
X51299Y-44210D01*
X51299Y-44210D01*
G37*
X51299Y-44210D02*
X48120Y-44210D01*
X47955Y-44044D01*
X47860Y-43982D01*
X47750Y-43960D01*
X47508Y-43960D01*
X47549Y-43859D01*
X47550Y-43641D01*
X47508Y-43540D01*
X47629Y-43540D01*
X47794Y-43705D01*
X47889Y-43767D01*
X47889Y-43767D01*
X48000Y-43790D01*
X48173Y-43790D01*
X48204Y-43864D01*
X48385Y-44045D01*
X48621Y-44143D01*
X48877Y-44143D01*
X49114Y-44045D01*
X49295Y-43864D01*
X49393Y-43628D01*
X49393Y-43372D01*
X49295Y-43135D01*
X49114Y-42954D01*
X48878Y-42856D01*
X48622Y-42856D01*
X48385Y-42954D01*
X48204Y-43135D01*
X48173Y-43210D01*
X48120Y-43210D01*
X47955Y-43044D01*
X47860Y-42982D01*
X47750Y-42960D01*
X44250Y-42960D01*
X44139Y-42982D01*
X44115Y-42998D01*
X44165Y-42922D01*
X44200Y-42750D01*
X44165Y-42577D01*
X44068Y-42431D01*
X43922Y-42334D01*
X43856Y-42321D01*
X43987Y-42295D01*
X44178Y-42167D01*
X44189Y-42150D01*
X44380Y-42333D01*
X44632Y-42429D01*
X44740Y-42352D01*
X44740Y-41760D01*
X44732Y-41760D01*
X44732Y-41740D01*
X44740Y-41740D01*
X44740Y-41732D01*
X44760Y-41732D01*
X44760Y-41740D01*
X44767Y-41740D01*
X44767Y-41760D01*
X44760Y-41760D01*
X44760Y-42352D01*
X44867Y-42429D01*
X45119Y-42333D01*
X45146Y-42306D01*
X45294Y-42455D01*
X45389Y-42517D01*
X45389Y-42517D01*
X45500Y-42540D01*
X49629Y-42540D01*
X51299Y-44210D01*
G36*
X54017Y-44760D02*
X54010Y-44760D01*
X54010Y-44767D01*
X53990Y-44767D01*
X53990Y-44760D01*
X53397Y-44760D01*
X53310Y-44847D01*
X53310Y-44899D01*
X52950Y-44540D01*
X53310Y-44540D01*
X53310Y-44652D01*
X53397Y-44740D01*
X53990Y-44740D01*
X53990Y-44732D01*
X54010Y-44732D01*
X54010Y-44740D01*
X54017Y-44740D01*
X54017Y-44760D01*
X54017Y-44760D01*
G37*
X54017Y-44760D02*
X54010Y-44760D01*
X54010Y-44767D01*
X53990Y-44767D01*
X53990Y-44760D01*
X53397Y-44760D01*
X53310Y-44847D01*
X53310Y-44899D01*
X52950Y-44540D01*
X53310Y-44540D01*
X53310Y-44652D01*
X53397Y-44740D01*
X53990Y-44740D01*
X53990Y-44732D01*
X54010Y-44732D01*
X54010Y-44740D01*
X54017Y-44740D01*
X54017Y-44760D01*
G36*
X57411Y-42227D02*
X57389Y-42232D01*
X57294Y-42294D01*
X57044Y-42544D01*
X56982Y-42639D01*
X56969Y-42702D01*
X56867Y-42660D01*
X56633Y-42659D01*
X56416Y-42749D01*
X56250Y-42915D01*
X56249Y-42915D01*
X56084Y-42750D01*
X55867Y-42660D01*
X55633Y-42659D01*
X55416Y-42749D01*
X55406Y-42759D01*
X55386Y-42711D01*
X55288Y-42613D01*
X55159Y-42560D01*
X54847Y-42560D01*
X54760Y-42647D01*
X54760Y-43240D01*
X54767Y-43240D01*
X54767Y-43260D01*
X54760Y-43260D01*
X54760Y-43852D01*
X54847Y-43940D01*
X55159Y-43940D01*
X55288Y-43886D01*
X55386Y-43788D01*
X55406Y-43740D01*
X55415Y-43749D01*
X55632Y-43839D01*
X55866Y-43840D01*
X56083Y-43750D01*
X56249Y-43584D01*
X56250Y-43584D01*
X56415Y-43749D01*
X56538Y-43801D01*
X56294Y-44044D01*
X56232Y-44139D01*
X56219Y-44202D01*
X56117Y-44160D01*
X55883Y-44159D01*
X55838Y-44178D01*
X55705Y-44044D01*
X55610Y-43982D01*
X55500Y-43960D01*
X54740Y-43960D01*
X54740Y-43852D01*
X54740Y-43260D01*
X54740Y-43240D01*
X54740Y-42647D01*
X54652Y-42560D01*
X54340Y-42560D01*
X54211Y-42613D01*
X54113Y-42711D01*
X54060Y-42840D01*
X54060Y-42979D01*
X54060Y-43152D01*
X54147Y-43240D01*
X54740Y-43240D01*
X54740Y-43260D01*
X54147Y-43260D01*
X54060Y-43347D01*
X54060Y-43520D01*
X54060Y-43659D01*
X54113Y-43788D01*
X54211Y-43886D01*
X54340Y-43940D01*
X54652Y-43940D01*
X54740Y-43852D01*
X54740Y-43960D01*
X53200Y-43960D01*
X53295Y-43864D01*
X53393Y-43628D01*
X53393Y-43372D01*
X53295Y-43135D01*
X53114Y-42954D01*
X52878Y-42856D01*
X52622Y-42856D01*
X52385Y-42954D01*
X52204Y-43135D01*
X52106Y-43371D01*
X52106Y-43627D01*
X52204Y-43864D01*
X52299Y-43960D01*
X51870Y-43960D01*
X50117Y-42207D01*
X50178Y-42167D01*
X50250Y-42060D01*
X50321Y-42167D01*
X50512Y-42295D01*
X50738Y-42340D01*
X50761Y-42340D01*
X50987Y-42295D01*
X51178Y-42167D01*
X51250Y-42060D01*
X51321Y-42167D01*
X51512Y-42295D01*
X51738Y-42340D01*
X51761Y-42340D01*
X51987Y-42295D01*
X52178Y-42167D01*
X52189Y-42150D01*
X52380Y-42333D01*
X52632Y-42429D01*
X52740Y-42352D01*
X52740Y-41760D01*
X52732Y-41760D01*
X52732Y-41740D01*
X52740Y-41740D01*
X52740Y-41732D01*
X52760Y-41732D01*
X52760Y-41740D01*
X52767Y-41740D01*
X52767Y-41760D01*
X52760Y-41760D01*
X52760Y-42352D01*
X52867Y-42429D01*
X53119Y-42333D01*
X53310Y-42150D01*
X53321Y-42167D01*
X53512Y-42295D01*
X53738Y-42340D01*
X53761Y-42340D01*
X53987Y-42295D01*
X54178Y-42167D01*
X54250Y-42060D01*
X54321Y-42167D01*
X54512Y-42295D01*
X54738Y-42340D01*
X54761Y-42340D01*
X54987Y-42295D01*
X55178Y-42167D01*
X55250Y-42060D01*
X55321Y-42167D01*
X55512Y-42295D01*
X55738Y-42340D01*
X55761Y-42340D01*
X55987Y-42295D01*
X56178Y-42167D01*
X56250Y-42060D01*
X56321Y-42167D01*
X56512Y-42295D01*
X56738Y-42340D01*
X56761Y-42340D01*
X56987Y-42295D01*
X57178Y-42167D01*
X57250Y-42060D01*
X57321Y-42167D01*
X57411Y-42227D01*
X57411Y-42227D01*
G37*
X57411Y-42227D02*
X57389Y-42232D01*
X57294Y-42294D01*
X57044Y-42544D01*
X56982Y-42639D01*
X56969Y-42702D01*
X56867Y-42660D01*
X56633Y-42659D01*
X56416Y-42749D01*
X56250Y-42915D01*
X56249Y-42915D01*
X56084Y-42750D01*
X55867Y-42660D01*
X55633Y-42659D01*
X55416Y-42749D01*
X55406Y-42759D01*
X55386Y-42711D01*
X55288Y-42613D01*
X55159Y-42560D01*
X54847Y-42560D01*
X54760Y-42647D01*
X54760Y-43240D01*
X54767Y-43240D01*
X54767Y-43260D01*
X54760Y-43260D01*
X54760Y-43852D01*
X54847Y-43940D01*
X55159Y-43940D01*
X55288Y-43886D01*
X55386Y-43788D01*
X55406Y-43740D01*
X55415Y-43749D01*
X55632Y-43839D01*
X55866Y-43840D01*
X56083Y-43750D01*
X56249Y-43584D01*
X56250Y-43584D01*
X56415Y-43749D01*
X56538Y-43801D01*
X56294Y-44044D01*
X56232Y-44139D01*
X56219Y-44202D01*
X56117Y-44160D01*
X55883Y-44159D01*
X55838Y-44178D01*
X55705Y-44044D01*
X55610Y-43982D01*
X55500Y-43960D01*
X54740Y-43960D01*
X54740Y-43852D01*
X54740Y-43260D01*
X54740Y-43240D01*
X54740Y-42647D01*
X54652Y-42560D01*
X54340Y-42560D01*
X54211Y-42613D01*
X54113Y-42711D01*
X54060Y-42840D01*
X54060Y-42979D01*
X54060Y-43152D01*
X54147Y-43240D01*
X54740Y-43240D01*
X54740Y-43260D01*
X54147Y-43260D01*
X54060Y-43347D01*
X54060Y-43520D01*
X54060Y-43659D01*
X54113Y-43788D01*
X54211Y-43886D01*
X54340Y-43940D01*
X54652Y-43940D01*
X54740Y-43852D01*
X54740Y-43960D01*
X53200Y-43960D01*
X53295Y-43864D01*
X53393Y-43628D01*
X53393Y-43372D01*
X53295Y-43135D01*
X53114Y-42954D01*
X52878Y-42856D01*
X52622Y-42856D01*
X52385Y-42954D01*
X52204Y-43135D01*
X52106Y-43371D01*
X52106Y-43627D01*
X52204Y-43864D01*
X52299Y-43960D01*
X51870Y-43960D01*
X50117Y-42207D01*
X50178Y-42167D01*
X50250Y-42060D01*
X50321Y-42167D01*
X50512Y-42295D01*
X50738Y-42340D01*
X50761Y-42340D01*
X50987Y-42295D01*
X51178Y-42167D01*
X51250Y-42060D01*
X51321Y-42167D01*
X51512Y-42295D01*
X51738Y-42340D01*
X51761Y-42340D01*
X51987Y-42295D01*
X52178Y-42167D01*
X52189Y-42150D01*
X52380Y-42333D01*
X52632Y-42429D01*
X52740Y-42352D01*
X52740Y-41760D01*
X52732Y-41760D01*
X52732Y-41740D01*
X52740Y-41740D01*
X52740Y-41732D01*
X52760Y-41732D01*
X52760Y-41740D01*
X52767Y-41740D01*
X52767Y-41760D01*
X52760Y-41760D01*
X52760Y-42352D01*
X52867Y-42429D01*
X53119Y-42333D01*
X53310Y-42150D01*
X53321Y-42167D01*
X53512Y-42295D01*
X53738Y-42340D01*
X53761Y-42340D01*
X53987Y-42295D01*
X54178Y-42167D01*
X54250Y-42060D01*
X54321Y-42167D01*
X54512Y-42295D01*
X54738Y-42340D01*
X54761Y-42340D01*
X54987Y-42295D01*
X55178Y-42167D01*
X55250Y-42060D01*
X55321Y-42167D01*
X55512Y-42295D01*
X55738Y-42340D01*
X55761Y-42340D01*
X55987Y-42295D01*
X56178Y-42167D01*
X56250Y-42060D01*
X56321Y-42167D01*
X56512Y-42295D01*
X56738Y-42340D01*
X56761Y-42340D01*
X56987Y-42295D01*
X57178Y-42167D01*
X57250Y-42060D01*
X57321Y-42167D01*
X57411Y-42227D01*
G36*
X61189Y-46567D02*
X61055Y-46702D01*
X60999Y-46835D01*
X60945Y-46703D01*
X60797Y-46555D01*
X60604Y-46475D01*
X60396Y-46474D01*
X60203Y-46554D01*
X60055Y-46702D01*
X59999Y-46835D01*
X59945Y-46703D01*
X59797Y-46555D01*
X59604Y-46475D01*
X59396Y-46474D01*
X59203Y-46554D01*
X59055Y-46702D01*
X59055Y-46702D01*
X59038Y-46658D01*
X59021Y-46633D01*
X58896Y-46618D01*
X58896Y-46160D01*
X58500Y-45764D01*
X58103Y-46160D01*
X58121Y-46288D01*
X58348Y-46388D01*
X58158Y-46461D01*
X58133Y-46478D01*
X58118Y-46604D01*
X58500Y-46985D01*
X58881Y-46604D01*
X58866Y-46478D01*
X58651Y-46383D01*
X58852Y-46305D01*
X58878Y-46288D01*
X58896Y-46160D01*
X58896Y-46618D01*
X58895Y-46618D01*
X58514Y-47000D01*
X58895Y-47381D01*
X59021Y-47366D01*
X59050Y-47301D01*
X59050Y-47563D01*
X58881Y-47732D01*
X58881Y-47395D01*
X58500Y-47014D01*
X58118Y-47395D01*
X58133Y-47521D01*
X58360Y-47621D01*
X58609Y-47627D01*
X58841Y-47538D01*
X58866Y-47521D01*
X58881Y-47395D01*
X58881Y-47732D01*
X58813Y-47800D01*
X47086Y-47800D01*
X48186Y-46700D01*
X49057Y-46700D01*
X49055Y-46702D01*
X48975Y-46895D01*
X48974Y-47103D01*
X49054Y-47297D01*
X49202Y-47444D01*
X49395Y-47524D01*
X49603Y-47525D01*
X49797Y-47445D01*
X49944Y-47297D01*
X50000Y-47164D01*
X50054Y-47297D01*
X50202Y-47444D01*
X50395Y-47524D01*
X50603Y-47525D01*
X50797Y-47445D01*
X50944Y-47297D01*
X51000Y-47164D01*
X51054Y-47297D01*
X51202Y-47444D01*
X51395Y-47524D01*
X51603Y-47525D01*
X51797Y-47445D01*
X51944Y-47297D01*
X52000Y-47164D01*
X52054Y-47297D01*
X52202Y-47444D01*
X52395Y-47524D01*
X52603Y-47525D01*
X52797Y-47445D01*
X52944Y-47297D01*
X53000Y-47164D01*
X53054Y-47297D01*
X53202Y-47444D01*
X53395Y-47524D01*
X53603Y-47525D01*
X53797Y-47445D01*
X53944Y-47297D01*
X54000Y-47164D01*
X54054Y-47297D01*
X54202Y-47444D01*
X54395Y-47524D01*
X54603Y-47525D01*
X54797Y-47445D01*
X54944Y-47297D01*
X55000Y-47164D01*
X55054Y-47297D01*
X55202Y-47444D01*
X55395Y-47524D01*
X55603Y-47525D01*
X55797Y-47445D01*
X55944Y-47297D01*
X56000Y-47164D01*
X56054Y-47297D01*
X56202Y-47444D01*
X56395Y-47524D01*
X56603Y-47525D01*
X56797Y-47445D01*
X56944Y-47297D01*
X57000Y-47164D01*
X57054Y-47297D01*
X57202Y-47444D01*
X57395Y-47524D01*
X57603Y-47525D01*
X57797Y-47445D01*
X57944Y-47297D01*
X57944Y-47297D01*
X57961Y-47341D01*
X57978Y-47366D01*
X58104Y-47381D01*
X58485Y-47000D01*
X58104Y-46618D01*
X57978Y-46633D01*
X57946Y-46706D01*
X57945Y-46703D01*
X57797Y-46555D01*
X57604Y-46475D01*
X57396Y-46474D01*
X57203Y-46554D01*
X57055Y-46702D01*
X56999Y-46835D01*
X56945Y-46703D01*
X56797Y-46555D01*
X56604Y-46475D01*
X56396Y-46474D01*
X56203Y-46554D01*
X56055Y-46702D01*
X55999Y-46835D01*
X55945Y-46703D01*
X55797Y-46555D01*
X55604Y-46475D01*
X55396Y-46474D01*
X55203Y-46554D01*
X55055Y-46702D01*
X54999Y-46835D01*
X54945Y-46703D01*
X54797Y-46555D01*
X54604Y-46475D01*
X54396Y-46474D01*
X54203Y-46554D01*
X54055Y-46702D01*
X53999Y-46835D01*
X53945Y-46703D01*
X53797Y-46555D01*
X53604Y-46475D01*
X53396Y-46474D01*
X53203Y-46554D01*
X53055Y-46702D01*
X52999Y-46835D01*
X52945Y-46703D01*
X52797Y-46555D01*
X52604Y-46475D01*
X52396Y-46474D01*
X52203Y-46554D01*
X52055Y-46702D01*
X51999Y-46835D01*
X51945Y-46703D01*
X51797Y-46555D01*
X51604Y-46475D01*
X51396Y-46474D01*
X51203Y-46554D01*
X51055Y-46702D01*
X50999Y-46835D01*
X50945Y-46703D01*
X50797Y-46555D01*
X50604Y-46475D01*
X50411Y-46474D01*
X50936Y-45950D01*
X52289Y-45950D01*
X52385Y-46045D01*
X52621Y-46143D01*
X52877Y-46143D01*
X53114Y-46045D01*
X53295Y-45864D01*
X53393Y-45628D01*
X53393Y-45540D01*
X54500Y-45540D01*
X54610Y-45517D01*
X54705Y-45455D01*
X54838Y-45321D01*
X54882Y-45339D01*
X55116Y-45340D01*
X55161Y-45321D01*
X55294Y-45455D01*
X55389Y-45517D01*
X55500Y-45540D01*
X55627Y-45540D01*
X55575Y-45665D01*
X55574Y-45834D01*
X55639Y-45990D01*
X55758Y-46110D01*
X55915Y-46174D01*
X56084Y-46175D01*
X56240Y-46110D01*
X56311Y-46040D01*
X57500Y-46040D01*
X57610Y-46017D01*
X57705Y-45955D01*
X57852Y-45807D01*
X57851Y-45862D01*
X57944Y-46102D01*
X57961Y-46128D01*
X58089Y-46146D01*
X58485Y-45750D01*
X58480Y-45744D01*
X58494Y-45730D01*
X58500Y-45735D01*
X58505Y-45730D01*
X58519Y-45744D01*
X58514Y-45750D01*
X58910Y-46146D01*
X59038Y-46128D01*
X59059Y-46080D01*
X59190Y-46212D01*
X59391Y-46295D01*
X59608Y-46295D01*
X59808Y-46212D01*
X59962Y-46059D01*
X60045Y-45858D01*
X60045Y-45641D01*
X60003Y-45540D01*
X61049Y-45540D01*
X60954Y-45635D01*
X60856Y-45871D01*
X60856Y-46127D01*
X60954Y-46364D01*
X61135Y-46545D01*
X61189Y-46567D01*
X61189Y-46567D01*
G37*
X61189Y-46567D02*
X61055Y-46702D01*
X60999Y-46835D01*
X60945Y-46703D01*
X60797Y-46555D01*
X60604Y-46475D01*
X60396Y-46474D01*
X60203Y-46554D01*
X60055Y-46702D01*
X59999Y-46835D01*
X59945Y-46703D01*
X59797Y-46555D01*
X59604Y-46475D01*
X59396Y-46474D01*
X59203Y-46554D01*
X59055Y-46702D01*
X59055Y-46702D01*
X59038Y-46658D01*
X59021Y-46633D01*
X58896Y-46618D01*
X58896Y-46160D01*
X58500Y-45764D01*
X58103Y-46160D01*
X58121Y-46288D01*
X58348Y-46388D01*
X58158Y-46461D01*
X58133Y-46478D01*
X58118Y-46604D01*
X58500Y-46985D01*
X58881Y-46604D01*
X58866Y-46478D01*
X58651Y-46383D01*
X58852Y-46305D01*
X58878Y-46288D01*
X58896Y-46160D01*
X58896Y-46618D01*
X58895Y-46618D01*
X58514Y-47000D01*
X58895Y-47381D01*
X59021Y-47366D01*
X59050Y-47301D01*
X59050Y-47563D01*
X58881Y-47732D01*
X58881Y-47395D01*
X58500Y-47014D01*
X58118Y-47395D01*
X58133Y-47521D01*
X58360Y-47621D01*
X58609Y-47627D01*
X58841Y-47538D01*
X58866Y-47521D01*
X58881Y-47395D01*
X58881Y-47732D01*
X58813Y-47800D01*
X47086Y-47800D01*
X48186Y-46700D01*
X49057Y-46700D01*
X49055Y-46702D01*
X48975Y-46895D01*
X48974Y-47103D01*
X49054Y-47297D01*
X49202Y-47444D01*
X49395Y-47524D01*
X49603Y-47525D01*
X49797Y-47445D01*
X49944Y-47297D01*
X50000Y-47164D01*
X50054Y-47297D01*
X50202Y-47444D01*
X50395Y-47524D01*
X50603Y-47525D01*
X50797Y-47445D01*
X50944Y-47297D01*
X51000Y-47164D01*
X51054Y-47297D01*
X51202Y-47444D01*
X51395Y-47524D01*
X51603Y-47525D01*
X51797Y-47445D01*
X51944Y-47297D01*
X52000Y-47164D01*
X52054Y-47297D01*
X52202Y-47444D01*
X52395Y-47524D01*
X52603Y-47525D01*
X52797Y-47445D01*
X52944Y-47297D01*
X53000Y-47164D01*
X53054Y-47297D01*
X53202Y-47444D01*
X53395Y-47524D01*
X53603Y-47525D01*
X53797Y-47445D01*
X53944Y-47297D01*
X54000Y-47164D01*
X54054Y-47297D01*
X54202Y-47444D01*
X54395Y-47524D01*
X54603Y-47525D01*
X54797Y-47445D01*
X54944Y-47297D01*
X55000Y-47164D01*
X55054Y-47297D01*
X55202Y-47444D01*
X55395Y-47524D01*
X55603Y-47525D01*
X55797Y-47445D01*
X55944Y-47297D01*
X56000Y-47164D01*
X56054Y-47297D01*
X56202Y-47444D01*
X56395Y-47524D01*
X56603Y-47525D01*
X56797Y-47445D01*
X56944Y-47297D01*
X57000Y-47164D01*
X57054Y-47297D01*
X57202Y-47444D01*
X57395Y-47524D01*
X57603Y-47525D01*
X57797Y-47445D01*
X57944Y-47297D01*
X57944Y-47297D01*
X57961Y-47341D01*
X57978Y-47366D01*
X58104Y-47381D01*
X58485Y-47000D01*
X58104Y-46618D01*
X57978Y-46633D01*
X57946Y-46706D01*
X57945Y-46703D01*
X57797Y-46555D01*
X57604Y-46475D01*
X57396Y-46474D01*
X57203Y-46554D01*
X57055Y-46702D01*
X56999Y-46835D01*
X56945Y-46703D01*
X56797Y-46555D01*
X56604Y-46475D01*
X56396Y-46474D01*
X56203Y-46554D01*
X56055Y-46702D01*
X55999Y-46835D01*
X55945Y-46703D01*
X55797Y-46555D01*
X55604Y-46475D01*
X55396Y-46474D01*
X55203Y-46554D01*
X55055Y-46702D01*
X54999Y-46835D01*
X54945Y-46703D01*
X54797Y-46555D01*
X54604Y-46475D01*
X54396Y-46474D01*
X54203Y-46554D01*
X54055Y-46702D01*
X53999Y-46835D01*
X53945Y-46703D01*
X53797Y-46555D01*
X53604Y-46475D01*
X53396Y-46474D01*
X53203Y-46554D01*
X53055Y-46702D01*
X52999Y-46835D01*
X52945Y-46703D01*
X52797Y-46555D01*
X52604Y-46475D01*
X52396Y-46474D01*
X52203Y-46554D01*
X52055Y-46702D01*
X51999Y-46835D01*
X51945Y-46703D01*
X51797Y-46555D01*
X51604Y-46475D01*
X51396Y-46474D01*
X51203Y-46554D01*
X51055Y-46702D01*
X50999Y-46835D01*
X50945Y-46703D01*
X50797Y-46555D01*
X50604Y-46475D01*
X50411Y-46474D01*
X50936Y-45950D01*
X52289Y-45950D01*
X52385Y-46045D01*
X52621Y-46143D01*
X52877Y-46143D01*
X53114Y-46045D01*
X53295Y-45864D01*
X53393Y-45628D01*
X53393Y-45540D01*
X54500Y-45540D01*
X54610Y-45517D01*
X54705Y-45455D01*
X54838Y-45321D01*
X54882Y-45339D01*
X55116Y-45340D01*
X55161Y-45321D01*
X55294Y-45455D01*
X55389Y-45517D01*
X55500Y-45540D01*
X55627Y-45540D01*
X55575Y-45665D01*
X55574Y-45834D01*
X55639Y-45990D01*
X55758Y-46110D01*
X55915Y-46174D01*
X56084Y-46175D01*
X56240Y-46110D01*
X56311Y-46040D01*
X57500Y-46040D01*
X57610Y-46017D01*
X57705Y-45955D01*
X57852Y-45807D01*
X57851Y-45862D01*
X57944Y-46102D01*
X57961Y-46128D01*
X58089Y-46146D01*
X58485Y-45750D01*
X58480Y-45744D01*
X58494Y-45730D01*
X58500Y-45735D01*
X58505Y-45730D01*
X58519Y-45744D01*
X58514Y-45750D01*
X58910Y-46146D01*
X59038Y-46128D01*
X59059Y-46080D01*
X59190Y-46212D01*
X59391Y-46295D01*
X59608Y-46295D01*
X59808Y-46212D01*
X59962Y-46059D01*
X60045Y-45858D01*
X60045Y-45641D01*
X60003Y-45540D01*
X61049Y-45540D01*
X60954Y-45635D01*
X60856Y-45871D01*
X60856Y-46127D01*
X60954Y-46364D01*
X61135Y-46545D01*
X61189Y-46567D01*
G36*
X65269Y-42005D02*
X65255Y-42019D01*
X65250Y-42014D01*
X65244Y-42019D01*
X65230Y-42005D01*
X65235Y-42000D01*
X65230Y-41994D01*
X65244Y-41980D01*
X65250Y-41985D01*
X65255Y-41980D01*
X65269Y-41994D01*
X65264Y-42000D01*
X65269Y-42005D01*
X65269Y-42005D01*
G37*
X65269Y-42005D02*
X65255Y-42019D01*
X65250Y-42014D01*
X65244Y-42019D01*
X65230Y-42005D01*
X65235Y-42000D01*
X65230Y-41994D01*
X65244Y-41980D01*
X65250Y-41985D01*
X65255Y-41980D01*
X65269Y-41994D01*
X65264Y-42000D01*
X65269Y-42005D01*
G36*
X66267Y-45760D02*
X66260Y-45760D01*
X66260Y-45767D01*
X66240Y-45767D01*
X66240Y-45760D01*
X65647Y-45760D01*
X65560Y-45847D01*
X65560Y-46020D01*
X65560Y-46149D01*
X65287Y-45877D01*
X65295Y-45858D01*
X65295Y-45641D01*
X65253Y-45540D01*
X65560Y-45540D01*
X65560Y-45652D01*
X65647Y-45740D01*
X66240Y-45740D01*
X66240Y-45732D01*
X66260Y-45732D01*
X66260Y-45740D01*
X66267Y-45740D01*
X66267Y-45760D01*
X66267Y-45760D01*
G37*
X66267Y-45760D02*
X66260Y-45760D01*
X66260Y-45767D01*
X66240Y-45767D01*
X66240Y-45760D01*
X65647Y-45760D01*
X65560Y-45847D01*
X65560Y-46020D01*
X65560Y-46149D01*
X65287Y-45877D01*
X65295Y-45858D01*
X65295Y-45641D01*
X65253Y-45540D01*
X65560Y-45540D01*
X65560Y-45652D01*
X65647Y-45740D01*
X66240Y-45740D01*
X66240Y-45732D01*
X66260Y-45732D01*
X66260Y-45740D01*
X66267Y-45740D01*
X66267Y-45760D01*
G36*
X66988Y-40460D02*
X66620Y-40460D01*
X66205Y-40044D01*
X66110Y-39982D01*
X66000Y-39960D01*
X63500Y-39960D01*
X63389Y-39982D01*
X63294Y-40044D01*
X63127Y-40212D01*
X63108Y-40204D01*
X62891Y-40204D01*
X62691Y-40287D01*
X62537Y-40440D01*
X62500Y-40531D01*
X62462Y-40441D01*
X62309Y-40287D01*
X62108Y-40204D01*
X61891Y-40204D01*
X61691Y-40287D01*
X61537Y-40440D01*
X61454Y-40641D01*
X61454Y-40858D01*
X61537Y-41058D01*
X61690Y-41212D01*
X61891Y-41295D01*
X62108Y-41295D01*
X62308Y-41212D01*
X62462Y-41059D01*
X62499Y-40968D01*
X62537Y-41058D01*
X62690Y-41212D01*
X62891Y-41295D01*
X63108Y-41295D01*
X63308Y-41212D01*
X63462Y-41059D01*
X63545Y-40858D01*
X63545Y-40641D01*
X63537Y-40622D01*
X63620Y-40540D01*
X64938Y-40540D01*
X64928Y-40550D01*
X64500Y-40550D01*
X64327Y-40584D01*
X64181Y-40681D01*
X63488Y-41375D01*
X63443Y-41356D01*
X63343Y-41356D01*
X62556Y-41356D01*
X62464Y-41394D01*
X62394Y-41464D01*
X62359Y-41550D01*
X61960Y-41550D01*
X61864Y-41454D01*
X61628Y-41356D01*
X61372Y-41356D01*
X61135Y-41454D01*
X60954Y-41635D01*
X60856Y-41871D01*
X60856Y-42127D01*
X60954Y-42364D01*
X61049Y-42460D01*
X60370Y-42460D01*
X60205Y-42294D01*
X60178Y-42276D01*
X60314Y-42147D01*
X60423Y-41901D01*
X60429Y-41867D01*
X60352Y-41760D01*
X59760Y-41760D01*
X59760Y-41767D01*
X59740Y-41767D01*
X59740Y-41760D01*
X59732Y-41760D01*
X59732Y-41740D01*
X59740Y-41740D01*
X59740Y-41732D01*
X59760Y-41732D01*
X59760Y-41740D01*
X60352Y-41740D01*
X60429Y-41632D01*
X60423Y-41598D01*
X60314Y-41352D01*
X60143Y-41190D01*
X60178Y-41167D01*
X60306Y-40975D01*
X60351Y-40750D01*
X60306Y-40524D01*
X60178Y-40332D01*
X59987Y-40204D01*
X59761Y-40160D01*
X59738Y-40160D01*
X59512Y-40204D01*
X59321Y-40332D01*
X59250Y-40439D01*
X59178Y-40332D01*
X58987Y-40204D01*
X58761Y-40160D01*
X58738Y-40160D01*
X58512Y-40204D01*
X58321Y-40332D01*
X58250Y-40439D01*
X58178Y-40332D01*
X57987Y-40204D01*
X57761Y-40160D01*
X57738Y-40160D01*
X57512Y-40204D01*
X57321Y-40332D01*
X57310Y-40349D01*
X57119Y-40166D01*
X56867Y-40070D01*
X56760Y-40147D01*
X56760Y-40740D01*
X56767Y-40740D01*
X56767Y-40760D01*
X56760Y-40760D01*
X56760Y-40767D01*
X56740Y-40767D01*
X56740Y-40760D01*
X56732Y-40760D01*
X56732Y-40740D01*
X56740Y-40740D01*
X56740Y-40147D01*
X56632Y-40070D01*
X56380Y-40166D01*
X56189Y-40349D01*
X56178Y-40332D01*
X55987Y-40204D01*
X55761Y-40160D01*
X55738Y-40160D01*
X55512Y-40204D01*
X55321Y-40332D01*
X55310Y-40349D01*
X55119Y-40166D01*
X54867Y-40070D01*
X54760Y-40147D01*
X54760Y-40740D01*
X54767Y-40740D01*
X54767Y-40760D01*
X54760Y-40760D01*
X54760Y-40767D01*
X54740Y-40767D01*
X54740Y-40760D01*
X54732Y-40760D01*
X54732Y-40740D01*
X54740Y-40740D01*
X54740Y-40147D01*
X54632Y-40070D01*
X54380Y-40166D01*
X54189Y-40349D01*
X54178Y-40332D01*
X53987Y-40204D01*
X53761Y-40160D01*
X53738Y-40160D01*
X53512Y-40204D01*
X53321Y-40332D01*
X53250Y-40439D01*
X53178Y-40332D01*
X52987Y-40204D01*
X52761Y-40160D01*
X52738Y-40160D01*
X52512Y-40204D01*
X52321Y-40332D01*
X52250Y-40439D01*
X52178Y-40332D01*
X51987Y-40204D01*
X51761Y-40160D01*
X51738Y-40160D01*
X51512Y-40204D01*
X51321Y-40332D01*
X51250Y-40439D01*
X51178Y-40332D01*
X50987Y-40204D01*
X50761Y-40160D01*
X50738Y-40160D01*
X50512Y-40204D01*
X50321Y-40332D01*
X50310Y-40349D01*
X50119Y-40166D01*
X49867Y-40070D01*
X49760Y-40147D01*
X49760Y-40740D01*
X49767Y-40740D01*
X49767Y-40760D01*
X49760Y-40760D01*
X49760Y-40767D01*
X49740Y-40767D01*
X49740Y-40760D01*
X49732Y-40760D01*
X49732Y-40740D01*
X49740Y-40740D01*
X49740Y-40147D01*
X49632Y-40070D01*
X49380Y-40166D01*
X49189Y-40349D01*
X49178Y-40332D01*
X48987Y-40204D01*
X48761Y-40160D01*
X48738Y-40160D01*
X48512Y-40204D01*
X48321Y-40332D01*
X48250Y-40439D01*
X48178Y-40332D01*
X47987Y-40204D01*
X47761Y-40160D01*
X47738Y-40160D01*
X47512Y-40204D01*
X47321Y-40332D01*
X47310Y-40349D01*
X47119Y-40166D01*
X46867Y-40070D01*
X46760Y-40147D01*
X46760Y-40740D01*
X46767Y-40740D01*
X46767Y-40760D01*
X46760Y-40760D01*
X46760Y-40767D01*
X46740Y-40767D01*
X46740Y-40760D01*
X46732Y-40760D01*
X46732Y-40740D01*
X46740Y-40740D01*
X46740Y-40147D01*
X46632Y-40070D01*
X46380Y-40166D01*
X46189Y-40349D01*
X46178Y-40332D01*
X45987Y-40204D01*
X45761Y-40160D01*
X45738Y-40160D01*
X45512Y-40204D01*
X45321Y-40332D01*
X45250Y-40439D01*
X45178Y-40332D01*
X44987Y-40204D01*
X44761Y-40160D01*
X44738Y-40160D01*
X44512Y-40204D01*
X44321Y-40332D01*
X44250Y-40439D01*
X44178Y-40332D01*
X43987Y-40204D01*
X43761Y-40160D01*
X43738Y-40160D01*
X43512Y-40204D01*
X43321Y-40332D01*
X43250Y-40439D01*
X43178Y-40332D01*
X42987Y-40204D01*
X42761Y-40160D01*
X42738Y-40160D01*
X42512Y-40204D01*
X42321Y-40332D01*
X42250Y-40439D01*
X42178Y-40332D01*
X41987Y-40204D01*
X41761Y-40160D01*
X41738Y-40160D01*
X41512Y-40204D01*
X41370Y-40300D01*
X41129Y-40300D01*
X40987Y-40204D01*
X40761Y-40160D01*
X40738Y-40160D01*
X40512Y-40204D01*
X40370Y-40300D01*
X40250Y-40300D01*
X40077Y-40334D01*
X39931Y-40431D01*
X39681Y-40681D01*
X39629Y-40759D01*
X39629Y-39629D01*
X66877Y-39629D01*
X66805Y-39702D01*
X66725Y-39895D01*
X66724Y-40103D01*
X66804Y-40297D01*
X66952Y-40444D01*
X66988Y-40460D01*
X66988Y-40460D01*
G37*
X66988Y-40460D02*
X66620Y-40460D01*
X66205Y-40044D01*
X66110Y-39982D01*
X66000Y-39960D01*
X63500Y-39960D01*
X63389Y-39982D01*
X63294Y-40044D01*
X63127Y-40212D01*
X63108Y-40204D01*
X62891Y-40204D01*
X62691Y-40287D01*
X62537Y-40440D01*
X62500Y-40531D01*
X62462Y-40441D01*
X62309Y-40287D01*
X62108Y-40204D01*
X61891Y-40204D01*
X61691Y-40287D01*
X61537Y-40440D01*
X61454Y-40641D01*
X61454Y-40858D01*
X61537Y-41058D01*
X61690Y-41212D01*
X61891Y-41295D01*
X62108Y-41295D01*
X62308Y-41212D01*
X62462Y-41059D01*
X62499Y-40968D01*
X62537Y-41058D01*
X62690Y-41212D01*
X62891Y-41295D01*
X63108Y-41295D01*
X63308Y-41212D01*
X63462Y-41059D01*
X63545Y-40858D01*
X63545Y-40641D01*
X63537Y-40622D01*
X63620Y-40540D01*
X64938Y-40540D01*
X64928Y-40550D01*
X64500Y-40550D01*
X64327Y-40584D01*
X64181Y-40681D01*
X63488Y-41375D01*
X63443Y-41356D01*
X63343Y-41356D01*
X62556Y-41356D01*
X62464Y-41394D01*
X62394Y-41464D01*
X62359Y-41550D01*
X61960Y-41550D01*
X61864Y-41454D01*
X61628Y-41356D01*
X61372Y-41356D01*
X61135Y-41454D01*
X60954Y-41635D01*
X60856Y-41871D01*
X60856Y-42127D01*
X60954Y-42364D01*
X61049Y-42460D01*
X60370Y-42460D01*
X60205Y-42294D01*
X60178Y-42276D01*
X60314Y-42147D01*
X60423Y-41901D01*
X60429Y-41867D01*
X60352Y-41760D01*
X59760Y-41760D01*
X59760Y-41767D01*
X59740Y-41767D01*
X59740Y-41760D01*
X59732Y-41760D01*
X59732Y-41740D01*
X59740Y-41740D01*
X59740Y-41732D01*
X59760Y-41732D01*
X59760Y-41740D01*
X60352Y-41740D01*
X60429Y-41632D01*
X60423Y-41598D01*
X60314Y-41352D01*
X60143Y-41190D01*
X60178Y-41167D01*
X60306Y-40975D01*
X60351Y-40750D01*
X60306Y-40524D01*
X60178Y-40332D01*
X59987Y-40204D01*
X59761Y-40160D01*
X59738Y-40160D01*
X59512Y-40204D01*
X59321Y-40332D01*
X59250Y-40439D01*
X59178Y-40332D01*
X58987Y-40204D01*
X58761Y-40160D01*
X58738Y-40160D01*
X58512Y-40204D01*
X58321Y-40332D01*
X58250Y-40439D01*
X58178Y-40332D01*
X57987Y-40204D01*
X57761Y-40160D01*
X57738Y-40160D01*
X57512Y-40204D01*
X57321Y-40332D01*
X57310Y-40349D01*
X57119Y-40166D01*
X56867Y-40070D01*
X56760Y-40147D01*
X56760Y-40740D01*
X56767Y-40740D01*
X56767Y-40760D01*
X56760Y-40760D01*
X56760Y-40767D01*
X56740Y-40767D01*
X56740Y-40760D01*
X56732Y-40760D01*
X56732Y-40740D01*
X56740Y-40740D01*
X56740Y-40147D01*
X56632Y-40070D01*
X56380Y-40166D01*
X56189Y-40349D01*
X56178Y-40332D01*
X55987Y-40204D01*
X55761Y-40160D01*
X55738Y-40160D01*
X55512Y-40204D01*
X55321Y-40332D01*
X55310Y-40349D01*
X55119Y-40166D01*
X54867Y-40070D01*
X54760Y-40147D01*
X54760Y-40740D01*
X54767Y-40740D01*
X54767Y-40760D01*
X54760Y-40760D01*
X54760Y-40767D01*
X54740Y-40767D01*
X54740Y-40760D01*
X54732Y-40760D01*
X54732Y-40740D01*
X54740Y-40740D01*
X54740Y-40147D01*
X54632Y-40070D01*
X54380Y-40166D01*
X54189Y-40349D01*
X54178Y-40332D01*
X53987Y-40204D01*
X53761Y-40160D01*
X53738Y-40160D01*
X53512Y-40204D01*
X53321Y-40332D01*
X53250Y-40439D01*
X53178Y-40332D01*
X52987Y-40204D01*
X52761Y-40160D01*
X52738Y-40160D01*
X52512Y-40204D01*
X52321Y-40332D01*
X52250Y-40439D01*
X52178Y-40332D01*
X51987Y-40204D01*
X51761Y-40160D01*
X51738Y-40160D01*
X51512Y-40204D01*
X51321Y-40332D01*
X51250Y-40439D01*
X51178Y-40332D01*
X50987Y-40204D01*
X50761Y-40160D01*
X50738Y-40160D01*
X50512Y-40204D01*
X50321Y-40332D01*
X50310Y-40349D01*
X50119Y-40166D01*
X49867Y-40070D01*
X49760Y-40147D01*
X49760Y-40740D01*
X49767Y-40740D01*
X49767Y-40760D01*
X49760Y-40760D01*
X49760Y-40767D01*
X49740Y-40767D01*
X49740Y-40760D01*
X49732Y-40760D01*
X49732Y-40740D01*
X49740Y-40740D01*
X49740Y-40147D01*
X49632Y-40070D01*
X49380Y-40166D01*
X49189Y-40349D01*
X49178Y-40332D01*
X48987Y-40204D01*
X48761Y-40160D01*
X48738Y-40160D01*
X48512Y-40204D01*
X48321Y-40332D01*
X48250Y-40439D01*
X48178Y-40332D01*
X47987Y-40204D01*
X47761Y-40160D01*
X47738Y-40160D01*
X47512Y-40204D01*
X47321Y-40332D01*
X47310Y-40349D01*
X47119Y-40166D01*
X46867Y-40070D01*
X46760Y-40147D01*
X46760Y-40740D01*
X46767Y-40740D01*
X46767Y-40760D01*
X46760Y-40760D01*
X46760Y-40767D01*
X46740Y-40767D01*
X46740Y-40760D01*
X46732Y-40760D01*
X46732Y-40740D01*
X46740Y-40740D01*
X46740Y-40147D01*
X46632Y-40070D01*
X46380Y-40166D01*
X46189Y-40349D01*
X46178Y-40332D01*
X45987Y-40204D01*
X45761Y-40160D01*
X45738Y-40160D01*
X45512Y-40204D01*
X45321Y-40332D01*
X45250Y-40439D01*
X45178Y-40332D01*
X44987Y-40204D01*
X44761Y-40160D01*
X44738Y-40160D01*
X44512Y-40204D01*
X44321Y-40332D01*
X44250Y-40439D01*
X44178Y-40332D01*
X43987Y-40204D01*
X43761Y-40160D01*
X43738Y-40160D01*
X43512Y-40204D01*
X43321Y-40332D01*
X43250Y-40439D01*
X43178Y-40332D01*
X42987Y-40204D01*
X42761Y-40160D01*
X42738Y-40160D01*
X42512Y-40204D01*
X42321Y-40332D01*
X42250Y-40439D01*
X42178Y-40332D01*
X41987Y-40204D01*
X41761Y-40160D01*
X41738Y-40160D01*
X41512Y-40204D01*
X41370Y-40300D01*
X41129Y-40300D01*
X40987Y-40204D01*
X40761Y-40160D01*
X40738Y-40160D01*
X40512Y-40204D01*
X40370Y-40300D01*
X40250Y-40300D01*
X40077Y-40334D01*
X39931Y-40431D01*
X39681Y-40681D01*
X39629Y-40759D01*
X39629Y-39629D01*
X66877Y-39629D01*
X66805Y-39702D01*
X66725Y-39895D01*
X66724Y-40103D01*
X66804Y-40297D01*
X66952Y-40444D01*
X66988Y-40460D01*
G36*
X73710Y-43875D02*
X73584Y-43750D01*
X73367Y-43660D01*
X73133Y-43659D01*
X73088Y-43678D01*
X72969Y-43559D01*
X73110Y-43621D01*
X73359Y-43627D01*
X73591Y-43538D01*
X73616Y-43521D01*
X73631Y-43395D01*
X73250Y-43014D01*
X73244Y-43019D01*
X73230Y-43005D01*
X73235Y-43000D01*
X72854Y-42618D01*
X72728Y-42633D01*
X72696Y-42706D01*
X72695Y-42703D01*
X72547Y-42555D01*
X72354Y-42475D01*
X72146Y-42474D01*
X71953Y-42554D01*
X71805Y-42702D01*
X71749Y-42835D01*
X71695Y-42703D01*
X71547Y-42555D01*
X71354Y-42475D01*
X71146Y-42474D01*
X71138Y-42478D01*
X70955Y-42294D01*
X70860Y-42232D01*
X70750Y-42210D01*
X68370Y-42210D01*
X68205Y-42044D01*
X68110Y-41982D01*
X68000Y-41960D01*
X66500Y-41960D01*
X66389Y-41982D01*
X66294Y-42044D01*
X65879Y-42460D01*
X65719Y-42460D01*
X65721Y-42457D01*
X65660Y-42396D01*
X65788Y-42378D01*
X65892Y-42143D01*
X65898Y-41887D01*
X65860Y-41790D01*
X66700Y-41790D01*
X66810Y-41767D01*
X66905Y-41705D01*
X67287Y-41322D01*
X67310Y-41317D01*
X67352Y-41290D01*
X69938Y-41290D01*
X70008Y-41360D01*
X70165Y-41424D01*
X70334Y-41425D01*
X70490Y-41360D01*
X70561Y-41290D01*
X70879Y-41290D01*
X71544Y-41955D01*
X71639Y-42017D01*
X71639Y-42017D01*
X71750Y-42040D01*
X72879Y-42040D01*
X73213Y-42373D01*
X73140Y-42372D01*
X72908Y-42461D01*
X72883Y-42478D01*
X72868Y-42604D01*
X73250Y-42985D01*
X73255Y-42980D01*
X73269Y-42994D01*
X73264Y-43000D01*
X73645Y-43381D01*
X73710Y-43373D01*
X73710Y-43875D01*
X73710Y-43875D01*
G37*
X73710Y-43875D02*
X73584Y-43750D01*
X73367Y-43660D01*
X73133Y-43659D01*
X73088Y-43678D01*
X72969Y-43559D01*
X73110Y-43621D01*
X73359Y-43627D01*
X73591Y-43538D01*
X73616Y-43521D01*
X73631Y-43395D01*
X73250Y-43014D01*
X73244Y-43019D01*
X73230Y-43005D01*
X73235Y-43000D01*
X72854Y-42618D01*
X72728Y-42633D01*
X72696Y-42706D01*
X72695Y-42703D01*
X72547Y-42555D01*
X72354Y-42475D01*
X72146Y-42474D01*
X71953Y-42554D01*
X71805Y-42702D01*
X71749Y-42835D01*
X71695Y-42703D01*
X71547Y-42555D01*
X71354Y-42475D01*
X71146Y-42474D01*
X71138Y-42478D01*
X70955Y-42294D01*
X70860Y-42232D01*
X70750Y-42210D01*
X68370Y-42210D01*
X68205Y-42044D01*
X68110Y-41982D01*
X68000Y-41960D01*
X66500Y-41960D01*
X66389Y-41982D01*
X66294Y-42044D01*
X65879Y-42460D01*
X65719Y-42460D01*
X65721Y-42457D01*
X65660Y-42396D01*
X65788Y-42378D01*
X65892Y-42143D01*
X65898Y-41887D01*
X65860Y-41790D01*
X66700Y-41790D01*
X66810Y-41767D01*
X66905Y-41705D01*
X67287Y-41322D01*
X67310Y-41317D01*
X67352Y-41290D01*
X69938Y-41290D01*
X70008Y-41360D01*
X70165Y-41424D01*
X70334Y-41425D01*
X70490Y-41360D01*
X70561Y-41290D01*
X70879Y-41290D01*
X71544Y-41955D01*
X71639Y-42017D01*
X71639Y-42017D01*
X71750Y-42040D01*
X72879Y-42040D01*
X73213Y-42373D01*
X73140Y-42372D01*
X72908Y-42461D01*
X72883Y-42478D01*
X72868Y-42604D01*
X73250Y-42985D01*
X73255Y-42980D01*
X73269Y-42994D01*
X73264Y-43000D01*
X73645Y-43381D01*
X73710Y-43373D01*
X73710Y-43875D01*
G36*
X78480Y-58795D02*
X78311Y-58795D01*
X78311Y-56832D01*
X78311Y-41084D01*
X78097Y-40514D01*
X78040Y-40429D01*
X77820Y-40303D01*
X77806Y-40317D01*
X77806Y-40289D01*
X77681Y-40069D01*
X77126Y-39818D01*
X76517Y-39798D01*
X75947Y-40012D01*
X75862Y-40069D01*
X75736Y-40289D01*
X76771Y-41324D01*
X77806Y-40289D01*
X77806Y-40317D01*
X76785Y-41338D01*
X77820Y-42373D01*
X78040Y-42248D01*
X78291Y-41693D01*
X78311Y-41084D01*
X78311Y-56832D01*
X78097Y-56262D01*
X78090Y-56251D01*
X78090Y-54822D01*
X78090Y-54677D01*
X78045Y-54451D01*
X77917Y-54260D01*
X77725Y-54132D01*
X77652Y-54117D01*
X77652Y-49886D01*
X77559Y-49645D01*
X77541Y-49618D01*
X77413Y-49600D01*
X77014Y-50000D01*
X77413Y-50399D01*
X77541Y-50381D01*
X77646Y-50144D01*
X77652Y-49886D01*
X77652Y-54117D01*
X77550Y-54097D01*
X77550Y-51349D01*
X77550Y-51250D01*
X77550Y-50650D01*
X77511Y-50558D01*
X77441Y-50488D01*
X77391Y-50467D01*
X77399Y-50413D01*
X77000Y-50014D01*
X76985Y-50028D01*
X76985Y-50000D01*
X76586Y-49600D01*
X76500Y-49612D01*
X76413Y-49600D01*
X76014Y-50000D01*
X76413Y-50399D01*
X76500Y-50387D01*
X76586Y-50399D01*
X76985Y-50000D01*
X76985Y-50028D01*
X76600Y-50413D01*
X76608Y-50467D01*
X76558Y-50488D01*
X76488Y-50558D01*
X76450Y-50650D01*
X76450Y-50672D01*
X76342Y-50564D01*
X76354Y-50559D01*
X76381Y-50541D01*
X76399Y-50413D01*
X76000Y-50014D01*
X75985Y-50028D01*
X75985Y-50000D01*
X75586Y-49600D01*
X75458Y-49618D01*
X75353Y-49855D01*
X75347Y-50113D01*
X75440Y-50354D01*
X75458Y-50381D01*
X75586Y-50399D01*
X75985Y-50000D01*
X75985Y-50028D01*
X75600Y-50413D01*
X75618Y-50541D01*
X75661Y-50560D01*
X75534Y-50688D01*
X75450Y-50890D01*
X75449Y-51108D01*
X75533Y-51311D01*
X75688Y-51465D01*
X75890Y-51549D01*
X76108Y-51550D01*
X76311Y-51466D01*
X76450Y-51327D01*
X76450Y-51349D01*
X76488Y-51441D01*
X76558Y-51511D01*
X76650Y-51550D01*
X76749Y-51550D01*
X77349Y-51550D01*
X77441Y-51511D01*
X77511Y-51441D01*
X77550Y-51349D01*
X77550Y-54097D01*
X77500Y-54087D01*
X77274Y-54132D01*
X77082Y-54260D01*
X77000Y-54384D01*
X76917Y-54260D01*
X76725Y-54132D01*
X76500Y-54087D01*
X76274Y-54132D01*
X76082Y-54260D01*
X76076Y-54268D01*
X76051Y-54208D01*
X75981Y-54138D01*
X75889Y-54100D01*
X75790Y-54100D01*
X75110Y-54100D01*
X75018Y-54138D01*
X74948Y-54208D01*
X74924Y-54264D01*
X74612Y-53952D01*
X74643Y-53878D01*
X74643Y-53622D01*
X74545Y-53385D01*
X74364Y-53204D01*
X74128Y-53106D01*
X73872Y-53106D01*
X73635Y-53204D01*
X73454Y-53385D01*
X73356Y-53621D01*
X73356Y-53877D01*
X73454Y-54114D01*
X73635Y-54295D01*
X73871Y-54393D01*
X74127Y-54393D01*
X74202Y-54362D01*
X74794Y-54955D01*
X74889Y-55017D01*
X74910Y-55022D01*
X74910Y-55199D01*
X74948Y-55291D01*
X75018Y-55361D01*
X75110Y-55400D01*
X75209Y-55400D01*
X75889Y-55400D01*
X75981Y-55361D01*
X76051Y-55291D01*
X76076Y-55231D01*
X76082Y-55239D01*
X76274Y-55367D01*
X76500Y-55412D01*
X76725Y-55367D01*
X76917Y-55239D01*
X77000Y-55115D01*
X77082Y-55239D01*
X77274Y-55367D01*
X77500Y-55412D01*
X77725Y-55367D01*
X77917Y-55239D01*
X78045Y-55048D01*
X78090Y-54822D01*
X78090Y-56251D01*
X78040Y-56177D01*
X77820Y-56051D01*
X77806Y-56065D01*
X77806Y-56037D01*
X77681Y-55817D01*
X77126Y-55566D01*
X76517Y-55546D01*
X75947Y-55760D01*
X75862Y-55817D01*
X75736Y-56037D01*
X76771Y-57072D01*
X77806Y-56037D01*
X77806Y-56065D01*
X76785Y-57086D01*
X77820Y-58121D01*
X78040Y-57996D01*
X78291Y-57441D01*
X78311Y-56832D01*
X78311Y-58795D01*
X77806Y-58795D01*
X77806Y-58135D01*
X76771Y-57100D01*
X76757Y-57114D01*
X76757Y-57086D01*
X75722Y-56051D01*
X75502Y-56177D01*
X75251Y-56731D01*
X75231Y-57340D01*
X75445Y-57910D01*
X75502Y-57996D01*
X75722Y-58121D01*
X76757Y-57086D01*
X76757Y-57114D01*
X75736Y-58135D01*
X75862Y-58355D01*
X76416Y-58606D01*
X77025Y-58626D01*
X77595Y-58412D01*
X77681Y-58355D01*
X77806Y-58135D01*
X77806Y-58795D01*
X73045Y-58795D01*
X73045Y-51891D01*
X72962Y-51691D01*
X72809Y-51537D01*
X72608Y-51454D01*
X72391Y-51454D01*
X72191Y-51537D01*
X72062Y-51665D01*
X72055Y-51647D01*
X72038Y-51621D01*
X71910Y-51603D01*
X71896Y-51617D01*
X71896Y-51589D01*
X71878Y-51461D01*
X71643Y-51357D01*
X71387Y-51351D01*
X71147Y-51444D01*
X71121Y-51461D01*
X71103Y-51589D01*
X71500Y-51985D01*
X71896Y-51589D01*
X71896Y-51617D01*
X71514Y-52000D01*
X71910Y-52396D01*
X72038Y-52378D01*
X72059Y-52330D01*
X72190Y-52462D01*
X72391Y-52545D01*
X72608Y-52545D01*
X72808Y-52462D01*
X72962Y-52309D01*
X73045Y-52108D01*
X73045Y-51891D01*
X73045Y-58795D01*
X71950Y-58795D01*
X71950Y-55250D01*
X71915Y-55077D01*
X71896Y-55048D01*
X71896Y-52410D01*
X71500Y-52014D01*
X71485Y-52028D01*
X71485Y-52000D01*
X71089Y-51603D01*
X70961Y-51621D01*
X70857Y-51856D01*
X70851Y-52112D01*
X70944Y-52352D01*
X70961Y-52378D01*
X71089Y-52396D01*
X71485Y-52000D01*
X71485Y-52028D01*
X71103Y-52410D01*
X71121Y-52538D01*
X71356Y-52642D01*
X71612Y-52648D01*
X71852Y-52555D01*
X71878Y-52538D01*
X71896Y-52410D01*
X71896Y-55048D01*
X71818Y-54931D01*
X71672Y-54834D01*
X71500Y-54800D01*
X70643Y-54800D01*
X70643Y-53622D01*
X70545Y-53385D01*
X70364Y-53204D01*
X70128Y-53106D01*
X69872Y-53106D01*
X69635Y-53204D01*
X69454Y-53385D01*
X69356Y-53621D01*
X69356Y-53877D01*
X69454Y-54114D01*
X69635Y-54295D01*
X69871Y-54393D01*
X70127Y-54393D01*
X70364Y-54295D01*
X70545Y-54114D01*
X70643Y-53878D01*
X70643Y-53622D01*
X70643Y-54800D01*
X67750Y-54800D01*
X67577Y-54834D01*
X67431Y-54931D01*
X66931Y-55431D01*
X66834Y-55577D01*
X66800Y-55750D01*
X66800Y-55880D01*
X66791Y-55868D01*
X66663Y-55850D01*
X66649Y-55864D01*
X66649Y-55836D01*
X66631Y-55708D01*
X66394Y-55603D01*
X66136Y-55597D01*
X65895Y-55690D01*
X65868Y-55708D01*
X65850Y-55836D01*
X66250Y-56235D01*
X66649Y-55836D01*
X66649Y-55864D01*
X66264Y-56250D01*
X66663Y-56649D01*
X66791Y-56631D01*
X66810Y-56588D01*
X66938Y-56715D01*
X67019Y-56749D01*
X66938Y-56783D01*
X66800Y-56922D01*
X66800Y-56900D01*
X66761Y-56808D01*
X66691Y-56738D01*
X66641Y-56717D01*
X66649Y-56663D01*
X66250Y-56264D01*
X66235Y-56278D01*
X66235Y-56250D01*
X65836Y-55850D01*
X65708Y-55868D01*
X65603Y-56105D01*
X65597Y-56363D01*
X65690Y-56604D01*
X65708Y-56631D01*
X65836Y-56649D01*
X66235Y-56250D01*
X66235Y-56278D01*
X65850Y-56663D01*
X65858Y-56717D01*
X65808Y-56738D01*
X65738Y-56808D01*
X65700Y-56900D01*
X65700Y-56999D01*
X65700Y-57599D01*
X65738Y-57691D01*
X65808Y-57761D01*
X65900Y-57800D01*
X65999Y-57800D01*
X66599Y-57800D01*
X66691Y-57761D01*
X66761Y-57691D01*
X66800Y-57599D01*
X66800Y-57577D01*
X66938Y-57715D01*
X67140Y-57799D01*
X67358Y-57800D01*
X67561Y-57716D01*
X67715Y-57561D01*
X67749Y-57480D01*
X67783Y-57561D01*
X67938Y-57715D01*
X68140Y-57799D01*
X68358Y-57800D01*
X68561Y-57716D01*
X68715Y-57561D01*
X68749Y-57480D01*
X68783Y-57561D01*
X68938Y-57715D01*
X69140Y-57799D01*
X69358Y-57800D01*
X69561Y-57716D01*
X69715Y-57561D01*
X69749Y-57480D01*
X69783Y-57561D01*
X69938Y-57715D01*
X70140Y-57799D01*
X70358Y-57800D01*
X70561Y-57716D01*
X70715Y-57561D01*
X70799Y-57359D01*
X70800Y-57141D01*
X70716Y-56938D01*
X70592Y-56814D01*
X70604Y-56809D01*
X70631Y-56791D01*
X70649Y-56663D01*
X70250Y-56264D01*
X69850Y-56663D01*
X69868Y-56791D01*
X69911Y-56810D01*
X69784Y-56938D01*
X69750Y-57019D01*
X69716Y-56938D01*
X69561Y-56784D01*
X69480Y-56750D01*
X69561Y-56716D01*
X69685Y-56592D01*
X69690Y-56604D01*
X69708Y-56631D01*
X69836Y-56649D01*
X70235Y-56250D01*
X69836Y-55850D01*
X69708Y-55868D01*
X69689Y-55911D01*
X69561Y-55784D01*
X69359Y-55700D01*
X69250Y-55700D01*
X69880Y-55700D01*
X69868Y-55708D01*
X69850Y-55836D01*
X70250Y-56235D01*
X70649Y-55836D01*
X70631Y-55708D01*
X70613Y-55700D01*
X71500Y-55700D01*
X71672Y-55665D01*
X71818Y-55568D01*
X71915Y-55422D01*
X71950Y-55250D01*
X71950Y-58795D01*
X70902Y-58795D01*
X70902Y-56136D01*
X70809Y-55895D01*
X70791Y-55868D01*
X70663Y-55850D01*
X70264Y-56250D01*
X70663Y-56649D01*
X70791Y-56631D01*
X70896Y-56394D01*
X70902Y-56136D01*
X70902Y-58795D01*
X63648Y-58795D01*
X63648Y-54137D01*
X63555Y-53897D01*
X63538Y-53871D01*
X63410Y-53853D01*
X63396Y-53867D01*
X63396Y-53839D01*
X63378Y-53711D01*
X63143Y-53607D01*
X62887Y-53601D01*
X62647Y-53694D01*
X62621Y-53711D01*
X62603Y-53839D01*
X63000Y-54235D01*
X63396Y-53839D01*
X63396Y-53867D01*
X63014Y-54250D01*
X63410Y-54646D01*
X63538Y-54628D01*
X63642Y-54393D01*
X63648Y-54137D01*
X63648Y-58795D01*
X63545Y-58795D01*
X63545Y-55141D01*
X63462Y-54941D01*
X63334Y-54812D01*
X63352Y-54805D01*
X63378Y-54788D01*
X63396Y-54660D01*
X63000Y-54264D01*
X62985Y-54278D01*
X62985Y-54250D01*
X62589Y-53853D01*
X62461Y-53871D01*
X62357Y-54106D01*
X62351Y-54362D01*
X62444Y-54602D01*
X62461Y-54628D01*
X62589Y-54646D01*
X62985Y-54250D01*
X62985Y-54278D01*
X62603Y-54660D01*
X62621Y-54788D01*
X62669Y-54809D01*
X62537Y-54940D01*
X62529Y-54960D01*
X62370Y-54960D01*
X62244Y-54833D01*
X62149Y-54771D01*
X62039Y-54749D01*
X61470Y-54749D01*
X61462Y-54730D01*
X61309Y-54576D01*
X61108Y-54493D01*
X60891Y-54493D01*
X60691Y-54576D01*
X60537Y-54729D01*
X60454Y-54930D01*
X60454Y-55147D01*
X60537Y-55347D01*
X60690Y-55501D01*
X60891Y-55584D01*
X61108Y-55584D01*
X61308Y-55501D01*
X61462Y-55348D01*
X61470Y-55329D01*
X61918Y-55329D01*
X62044Y-55455D01*
X62139Y-55517D01*
X62139Y-55517D01*
X62250Y-55540D01*
X62529Y-55540D01*
X62537Y-55558D01*
X62690Y-55712D01*
X62891Y-55795D01*
X63108Y-55795D01*
X63308Y-55712D01*
X63462Y-55559D01*
X63545Y-55358D01*
X63545Y-55141D01*
X63545Y-58795D01*
X61545Y-58795D01*
X61545Y-56852D01*
X61462Y-56652D01*
X61309Y-56498D01*
X61108Y-56415D01*
X60891Y-56415D01*
X60691Y-56498D01*
X60537Y-56651D01*
X60513Y-56710D01*
X59881Y-56710D01*
X59881Y-53395D01*
X59500Y-53014D01*
X59485Y-53028D01*
X59485Y-53000D01*
X59104Y-52618D01*
X58978Y-52633D01*
X58946Y-52706D01*
X58945Y-52703D01*
X58797Y-52555D01*
X58604Y-52475D01*
X58396Y-52474D01*
X58203Y-52554D01*
X58055Y-52702D01*
X57999Y-52835D01*
X57945Y-52703D01*
X57797Y-52555D01*
X57604Y-52475D01*
X57396Y-52474D01*
X57203Y-52554D01*
X57055Y-52702D01*
X56999Y-52835D01*
X56945Y-52703D01*
X56797Y-52555D01*
X56604Y-52475D01*
X56396Y-52474D01*
X56203Y-52554D01*
X56055Y-52702D01*
X55999Y-52835D01*
X55945Y-52703D01*
X55797Y-52555D01*
X55604Y-52475D01*
X55396Y-52474D01*
X55203Y-52554D01*
X55055Y-52702D01*
X54999Y-52835D01*
X54945Y-52703D01*
X54797Y-52555D01*
X54604Y-52475D01*
X54396Y-52474D01*
X54203Y-52554D01*
X54055Y-52702D01*
X53999Y-52835D01*
X53945Y-52703D01*
X53797Y-52555D01*
X53604Y-52475D01*
X53396Y-52474D01*
X53203Y-52554D01*
X53055Y-52702D01*
X52999Y-52835D01*
X52945Y-52703D01*
X52797Y-52555D01*
X52604Y-52475D01*
X52396Y-52474D01*
X52203Y-52554D01*
X52055Y-52702D01*
X51999Y-52835D01*
X51945Y-52703D01*
X51797Y-52555D01*
X51604Y-52475D01*
X51396Y-52474D01*
X51203Y-52554D01*
X51055Y-52702D01*
X50999Y-52835D01*
X50945Y-52703D01*
X50797Y-52555D01*
X50604Y-52475D01*
X50396Y-52474D01*
X50203Y-52554D01*
X50055Y-52702D01*
X50025Y-52774D01*
X50025Y-52675D01*
X49986Y-52583D01*
X49916Y-52513D01*
X49824Y-52475D01*
X49725Y-52475D01*
X49175Y-52475D01*
X49083Y-52513D01*
X49013Y-52583D01*
X48975Y-52675D01*
X48975Y-52774D01*
X48975Y-53324D01*
X49013Y-53416D01*
X49083Y-53486D01*
X49175Y-53525D01*
X49274Y-53525D01*
X49824Y-53525D01*
X49916Y-53486D01*
X49986Y-53416D01*
X50025Y-53324D01*
X50025Y-53225D01*
X50025Y-53225D01*
X50054Y-53297D01*
X50202Y-53444D01*
X50395Y-53524D01*
X50603Y-53525D01*
X50797Y-53445D01*
X50944Y-53297D01*
X51000Y-53164D01*
X51054Y-53297D01*
X51202Y-53444D01*
X51395Y-53524D01*
X51603Y-53525D01*
X51797Y-53445D01*
X51944Y-53297D01*
X52000Y-53164D01*
X52054Y-53297D01*
X52202Y-53444D01*
X52395Y-53524D01*
X52603Y-53525D01*
X52797Y-53445D01*
X52944Y-53297D01*
X53000Y-53164D01*
X53054Y-53297D01*
X53202Y-53444D01*
X53395Y-53524D01*
X53603Y-53525D01*
X53797Y-53445D01*
X53944Y-53297D01*
X54000Y-53164D01*
X54054Y-53297D01*
X54202Y-53444D01*
X54395Y-53524D01*
X54603Y-53525D01*
X54797Y-53445D01*
X54944Y-53297D01*
X55000Y-53164D01*
X55054Y-53297D01*
X55202Y-53444D01*
X55395Y-53524D01*
X55603Y-53525D01*
X55797Y-53445D01*
X55944Y-53297D01*
X56000Y-53164D01*
X56054Y-53297D01*
X56202Y-53444D01*
X56395Y-53524D01*
X56603Y-53525D01*
X56797Y-53445D01*
X56944Y-53297D01*
X57000Y-53164D01*
X57054Y-53297D01*
X57202Y-53444D01*
X57395Y-53524D01*
X57603Y-53525D01*
X57797Y-53445D01*
X57944Y-53297D01*
X58000Y-53164D01*
X58054Y-53297D01*
X58202Y-53444D01*
X58395Y-53524D01*
X58603Y-53525D01*
X58797Y-53445D01*
X58944Y-53297D01*
X58944Y-53297D01*
X58961Y-53341D01*
X58978Y-53366D01*
X59104Y-53381D01*
X59485Y-53000D01*
X59485Y-53028D01*
X59118Y-53395D01*
X59133Y-53521D01*
X59360Y-53621D01*
X59609Y-53627D01*
X59841Y-53538D01*
X59866Y-53521D01*
X59881Y-53395D01*
X59881Y-56710D01*
X59648Y-56710D01*
X59648Y-54387D01*
X59555Y-54147D01*
X59538Y-54121D01*
X59410Y-54103D01*
X59396Y-54117D01*
X59396Y-54089D01*
X59378Y-53961D01*
X59143Y-53857D01*
X58887Y-53851D01*
X58647Y-53944D01*
X58621Y-53961D01*
X58603Y-54089D01*
X59000Y-54485D01*
X59396Y-54089D01*
X59396Y-54117D01*
X59014Y-54500D01*
X59410Y-54896D01*
X59538Y-54878D01*
X59642Y-54643D01*
X59648Y-54387D01*
X59648Y-56710D01*
X59470Y-56710D01*
X59462Y-56691D01*
X59396Y-56624D01*
X59396Y-54910D01*
X59000Y-54514D01*
X58985Y-54528D01*
X58985Y-54500D01*
X58589Y-54103D01*
X58461Y-54121D01*
X58440Y-54169D01*
X58309Y-54037D01*
X58108Y-53954D01*
X57891Y-53954D01*
X57691Y-54037D01*
X57678Y-54050D01*
X55000Y-54050D01*
X54827Y-54084D01*
X54681Y-54181D01*
X54584Y-54327D01*
X54550Y-54500D01*
X54584Y-54672D01*
X54681Y-54818D01*
X54827Y-54915D01*
X55000Y-54950D01*
X55575Y-54950D01*
X55574Y-55084D01*
X55639Y-55240D01*
X55758Y-55360D01*
X55766Y-55363D01*
X55602Y-55435D01*
X55416Y-55630D01*
X55320Y-55882D01*
X55397Y-55990D01*
X55990Y-55990D01*
X55990Y-55982D01*
X56010Y-55982D01*
X56010Y-55990D01*
X56017Y-55990D01*
X56017Y-56010D01*
X56010Y-56010D01*
X56010Y-56017D01*
X55990Y-56017D01*
X55990Y-56010D01*
X55397Y-56010D01*
X55320Y-56117D01*
X55416Y-56369D01*
X55599Y-56560D01*
X55582Y-56571D01*
X55454Y-56762D01*
X55410Y-56988D01*
X55410Y-57011D01*
X55454Y-57237D01*
X55582Y-57428D01*
X55689Y-57500D01*
X55582Y-57571D01*
X55454Y-57762D01*
X55410Y-57988D01*
X55410Y-58011D01*
X55454Y-58237D01*
X55582Y-58428D01*
X55774Y-58556D01*
X56000Y-58601D01*
X56225Y-58556D01*
X56417Y-58428D01*
X56422Y-58420D01*
X56448Y-58481D01*
X56518Y-58551D01*
X56610Y-58590D01*
X56709Y-58590D01*
X57389Y-58590D01*
X57481Y-58551D01*
X57551Y-58481D01*
X57590Y-58389D01*
X57590Y-58290D01*
X57590Y-57610D01*
X57551Y-57518D01*
X57481Y-57448D01*
X57421Y-57422D01*
X57545Y-57237D01*
X57590Y-57011D01*
X57590Y-56988D01*
X57545Y-56762D01*
X57417Y-56571D01*
X57310Y-56500D01*
X57417Y-56428D01*
X57545Y-56237D01*
X57590Y-56011D01*
X57590Y-55988D01*
X57545Y-55762D01*
X57417Y-55571D01*
X57225Y-55443D01*
X57000Y-55398D01*
X56778Y-55442D01*
X56767Y-55389D01*
X56705Y-55294D01*
X56424Y-55014D01*
X56425Y-54950D01*
X57678Y-54950D01*
X57690Y-54962D01*
X57891Y-55045D01*
X58108Y-55045D01*
X58308Y-54962D01*
X58437Y-54834D01*
X58444Y-54852D01*
X58461Y-54878D01*
X58589Y-54896D01*
X58985Y-54500D01*
X58985Y-54528D01*
X58603Y-54910D01*
X58621Y-55038D01*
X58856Y-55142D01*
X59112Y-55148D01*
X59352Y-55055D01*
X59378Y-55038D01*
X59396Y-54910D01*
X59396Y-56624D01*
X59309Y-56537D01*
X59108Y-56454D01*
X58891Y-56454D01*
X58691Y-56537D01*
X58537Y-56690D01*
X58454Y-56891D01*
X58454Y-57108D01*
X58537Y-57308D01*
X58665Y-57437D01*
X58647Y-57444D01*
X58621Y-57461D01*
X58603Y-57589D01*
X59000Y-57985D01*
X59396Y-57589D01*
X59378Y-57461D01*
X59330Y-57440D01*
X59462Y-57309D01*
X59470Y-57290D01*
X60557Y-57290D01*
X60690Y-57423D01*
X60891Y-57506D01*
X61108Y-57506D01*
X61308Y-57423D01*
X61462Y-57270D01*
X61545Y-57069D01*
X61545Y-56852D01*
X61545Y-58795D01*
X59648Y-58795D01*
X59648Y-57887D01*
X59555Y-57647D01*
X59538Y-57621D01*
X59410Y-57603D01*
X59014Y-58000D01*
X59410Y-58396D01*
X59538Y-58378D01*
X59642Y-58143D01*
X59648Y-57887D01*
X59648Y-58795D01*
X59396Y-58795D01*
X59396Y-58410D01*
X59000Y-58014D01*
X58985Y-58028D01*
X58985Y-58000D01*
X58589Y-57603D01*
X58461Y-57621D01*
X58357Y-57856D01*
X58351Y-58112D01*
X58444Y-58352D01*
X58461Y-58378D01*
X58589Y-58396D01*
X58985Y-58000D01*
X58985Y-58028D01*
X58603Y-58410D01*
X58621Y-58538D01*
X58856Y-58642D01*
X59112Y-58648D01*
X59352Y-58555D01*
X59378Y-58538D01*
X59396Y-58410D01*
X59396Y-58795D01*
X54590Y-58795D01*
X54590Y-57883D01*
X54500Y-57666D01*
X54334Y-57500D01*
X54117Y-57410D01*
X53883Y-57409D01*
X53666Y-57499D01*
X53500Y-57665D01*
X53499Y-57665D01*
X53334Y-57500D01*
X53117Y-57410D01*
X52883Y-57409D01*
X52666Y-57499D01*
X52500Y-57665D01*
X52499Y-57665D01*
X52334Y-57500D01*
X52117Y-57410D01*
X51883Y-57409D01*
X51666Y-57499D01*
X51500Y-57665D01*
X51499Y-57665D01*
X51334Y-57500D01*
X51117Y-57410D01*
X50883Y-57409D01*
X50666Y-57499D01*
X50500Y-57665D01*
X50499Y-57665D01*
X50334Y-57500D01*
X50117Y-57410D01*
X49883Y-57409D01*
X49666Y-57499D01*
X49656Y-57509D01*
X49636Y-57461D01*
X49538Y-57363D01*
X49409Y-57310D01*
X49097Y-57310D01*
X49010Y-57397D01*
X49010Y-57990D01*
X49017Y-57990D01*
X49017Y-58010D01*
X49010Y-58010D01*
X49010Y-58602D01*
X49097Y-58690D01*
X49409Y-58690D01*
X49538Y-58636D01*
X49636Y-58538D01*
X49656Y-58490D01*
X49665Y-58499D01*
X49882Y-58589D01*
X50116Y-58590D01*
X50333Y-58500D01*
X50499Y-58334D01*
X50500Y-58334D01*
X50665Y-58499D01*
X50882Y-58589D01*
X51116Y-58590D01*
X51333Y-58500D01*
X51499Y-58334D01*
X51500Y-58334D01*
X51665Y-58499D01*
X51882Y-58589D01*
X52116Y-58590D01*
X52333Y-58500D01*
X52499Y-58334D01*
X52500Y-58334D01*
X52665Y-58499D01*
X52882Y-58589D01*
X53116Y-58590D01*
X53333Y-58500D01*
X53499Y-58334D01*
X53500Y-58334D01*
X53665Y-58499D01*
X53882Y-58589D01*
X54116Y-58590D01*
X54333Y-58500D01*
X54499Y-58334D01*
X54589Y-58117D01*
X54590Y-57883D01*
X54590Y-58795D01*
X48990Y-58795D01*
X48990Y-58602D01*
X48990Y-58010D01*
X48990Y-57990D01*
X48990Y-57397D01*
X48902Y-57310D01*
X48590Y-57310D01*
X48461Y-57363D01*
X48363Y-57461D01*
X48310Y-57590D01*
X48310Y-57729D01*
X48310Y-57902D01*
X48397Y-57990D01*
X48990Y-57990D01*
X48990Y-58010D01*
X48397Y-58010D01*
X48310Y-58097D01*
X48310Y-58270D01*
X48310Y-58409D01*
X48363Y-58538D01*
X48461Y-58636D01*
X48590Y-58690D01*
X48902Y-58690D01*
X48990Y-58602D01*
X48990Y-58795D01*
X47900Y-58795D01*
X47900Y-58349D01*
X47900Y-58250D01*
X47900Y-52050D01*
X47861Y-51958D01*
X47791Y-51888D01*
X47699Y-51850D01*
X47600Y-51850D01*
X47434Y-51850D01*
X47434Y-50864D01*
X47434Y-50510D01*
X47434Y-50490D01*
X47434Y-50135D01*
X47378Y-49874D01*
X47226Y-49654D01*
X47002Y-49509D01*
X46866Y-49471D01*
X46760Y-49548D01*
X46760Y-50490D01*
X47434Y-50490D01*
X47434Y-50510D01*
X46760Y-50510D01*
X46760Y-51451D01*
X46866Y-51528D01*
X47002Y-51490D01*
X47226Y-51345D01*
X47378Y-51125D01*
X47434Y-50864D01*
X47434Y-51850D01*
X46740Y-51850D01*
X46740Y-51451D01*
X46740Y-50510D01*
X46732Y-50510D01*
X46732Y-50490D01*
X46740Y-50490D01*
X46740Y-49548D01*
X46633Y-49471D01*
X46497Y-49509D01*
X46273Y-49654D01*
X46200Y-49760D01*
X46200Y-49750D01*
X46165Y-49577D01*
X46068Y-49431D01*
X45578Y-48942D01*
X45619Y-48943D01*
X45876Y-48844D01*
X45905Y-48824D01*
X45928Y-48692D01*
X45500Y-48264D01*
X45494Y-48269D01*
X45480Y-48255D01*
X45485Y-48250D01*
X45480Y-48244D01*
X45494Y-48230D01*
X45500Y-48235D01*
X45928Y-47807D01*
X45905Y-47675D01*
X45654Y-47563D01*
X45380Y-47556D01*
X45123Y-47655D01*
X45094Y-47675D01*
X45071Y-47807D01*
X45065Y-47801D01*
X45051Y-47768D01*
X44981Y-47698D01*
X44889Y-47660D01*
X44790Y-47660D01*
X44110Y-47660D01*
X44018Y-47698D01*
X43948Y-47768D01*
X43910Y-47860D01*
X43910Y-47959D01*
X43910Y-48639D01*
X43948Y-48731D01*
X44016Y-48800D01*
X42753Y-48800D01*
X42753Y-47886D01*
X42646Y-47607D01*
X42624Y-47574D01*
X42485Y-47544D01*
X42471Y-47558D01*
X42471Y-47529D01*
X42441Y-47391D01*
X42373Y-47361D01*
X42373Y-46324D01*
X41338Y-45289D01*
X41324Y-45303D01*
X41324Y-45275D01*
X40289Y-44240D01*
X40069Y-44366D01*
X39818Y-44920D01*
X39798Y-45529D01*
X40012Y-46099D01*
X40069Y-46185D01*
X40289Y-46310D01*
X41324Y-45275D01*
X41324Y-45303D01*
X40303Y-46324D01*
X40429Y-46544D01*
X40983Y-46795D01*
X41592Y-46815D01*
X42162Y-46601D01*
X42248Y-46544D01*
X42373Y-46324D01*
X42373Y-47361D01*
X42168Y-47269D01*
X41870Y-47262D01*
X41591Y-47369D01*
X41558Y-47391D01*
X41528Y-47529D01*
X42000Y-48001D01*
X42471Y-47529D01*
X42471Y-47558D01*
X42014Y-48015D01*
X42485Y-48487D01*
X42624Y-48457D01*
X42745Y-48184D01*
X42753Y-47886D01*
X42753Y-48800D01*
X42734Y-48800D01*
X42562Y-48834D01*
X42471Y-48894D01*
X42471Y-48501D01*
X42000Y-48029D01*
X41985Y-48044D01*
X41985Y-48015D01*
X41514Y-47544D01*
X41375Y-47574D01*
X41254Y-47846D01*
X41246Y-48145D01*
X41353Y-48423D01*
X41375Y-48457D01*
X41514Y-48487D01*
X41985Y-48015D01*
X41985Y-48044D01*
X41528Y-48501D01*
X41558Y-48640D01*
X41831Y-48761D01*
X42129Y-48769D01*
X42408Y-48662D01*
X42441Y-48640D01*
X42471Y-48501D01*
X42471Y-48894D01*
X42416Y-48931D01*
X42013Y-49334D01*
X41871Y-49334D01*
X41632Y-49432D01*
X41449Y-49615D01*
X41350Y-49854D01*
X41349Y-50112D01*
X41448Y-50351D01*
X41631Y-50534D01*
X41870Y-50634D01*
X42128Y-50634D01*
X42367Y-50535D01*
X42550Y-50352D01*
X42649Y-50114D01*
X42650Y-49970D01*
X42920Y-49700D01*
X44357Y-49700D01*
X44336Y-49713D01*
X44209Y-49903D01*
X44165Y-50127D01*
X44165Y-50872D01*
X44209Y-51096D01*
X44336Y-51286D01*
X44526Y-51412D01*
X44750Y-51457D01*
X44973Y-51412D01*
X45163Y-51286D01*
X45250Y-51156D01*
X45336Y-51286D01*
X45526Y-51412D01*
X45750Y-51457D01*
X45973Y-51412D01*
X46163Y-51286D01*
X46197Y-51235D01*
X46273Y-51345D01*
X46497Y-51490D01*
X46633Y-51528D01*
X46740Y-51451D01*
X46740Y-51850D01*
X43800Y-51850D01*
X43708Y-51888D01*
X43638Y-51958D01*
X43600Y-52050D01*
X43600Y-52149D01*
X43600Y-58349D01*
X43638Y-58441D01*
X43708Y-58511D01*
X43800Y-58550D01*
X43899Y-58550D01*
X47699Y-58550D01*
X47791Y-58511D01*
X47861Y-58441D01*
X47900Y-58349D01*
X47900Y-58795D01*
X42878Y-58795D01*
X42878Y-56832D01*
X42753Y-56499D01*
X42753Y-52386D01*
X42646Y-52107D01*
X42624Y-52074D01*
X42485Y-52044D01*
X42471Y-52058D01*
X42471Y-52029D01*
X42441Y-51891D01*
X42168Y-51769D01*
X41870Y-51762D01*
X41591Y-51869D01*
X41558Y-51891D01*
X41528Y-52029D01*
X42000Y-52501D01*
X42471Y-52029D01*
X42471Y-52058D01*
X42014Y-52515D01*
X42485Y-52987D01*
X42624Y-52957D01*
X42745Y-52684D01*
X42753Y-52386D01*
X42753Y-56499D01*
X42664Y-56262D01*
X42650Y-56241D01*
X42650Y-54355D01*
X42551Y-54116D01*
X42471Y-54036D01*
X42471Y-53001D01*
X42000Y-52529D01*
X41985Y-52544D01*
X41985Y-52515D01*
X41514Y-52044D01*
X41375Y-52074D01*
X41254Y-52346D01*
X41246Y-52645D01*
X41353Y-52923D01*
X41375Y-52957D01*
X41514Y-52987D01*
X41985Y-52515D01*
X41985Y-52544D01*
X41528Y-53001D01*
X41558Y-53140D01*
X41831Y-53261D01*
X42129Y-53269D01*
X42408Y-53162D01*
X42441Y-53140D01*
X42471Y-53001D01*
X42471Y-54036D01*
X42368Y-53933D01*
X42129Y-53834D01*
X41871Y-53834D01*
X41632Y-53932D01*
X41449Y-54115D01*
X41350Y-54354D01*
X41349Y-54612D01*
X41448Y-54851D01*
X41631Y-55034D01*
X41870Y-55134D01*
X42128Y-55134D01*
X42367Y-55035D01*
X42550Y-54852D01*
X42649Y-54614D01*
X42650Y-54355D01*
X42650Y-56241D01*
X42607Y-56177D01*
X42387Y-56051D01*
X42373Y-56065D01*
X42373Y-56037D01*
X42248Y-55817D01*
X41693Y-55566D01*
X41084Y-55546D01*
X40514Y-55760D01*
X40429Y-55817D01*
X40303Y-56037D01*
X41338Y-57072D01*
X42373Y-56037D01*
X42373Y-56065D01*
X41352Y-57086D01*
X42387Y-58121D01*
X42607Y-57996D01*
X42858Y-57441D01*
X42878Y-56832D01*
X42878Y-58795D01*
X42373Y-58795D01*
X42373Y-58135D01*
X41338Y-57100D01*
X41324Y-57114D01*
X41324Y-57086D01*
X40289Y-56051D01*
X40069Y-56177D01*
X39818Y-56731D01*
X39798Y-57340D01*
X40012Y-57910D01*
X40069Y-57996D01*
X40289Y-58121D01*
X41324Y-57086D01*
X41324Y-57114D01*
X40303Y-58135D01*
X40429Y-58355D01*
X40983Y-58606D01*
X41592Y-58626D01*
X42162Y-58412D01*
X42248Y-58355D01*
X42373Y-58135D01*
X42373Y-58795D01*
X39629Y-58795D01*
X39629Y-42490D01*
X39681Y-42568D01*
X40181Y-43068D01*
X40327Y-43165D01*
X40500Y-43200D01*
X43537Y-43200D01*
X43512Y-43204D01*
X43321Y-43332D01*
X43193Y-43524D01*
X43148Y-43750D01*
X43170Y-43860D01*
X43084Y-43825D01*
X42915Y-43824D01*
X42759Y-43889D01*
X42639Y-44008D01*
X42575Y-44165D01*
X42574Y-44334D01*
X42582Y-44351D01*
X42387Y-44240D01*
X42373Y-44254D01*
X42373Y-44226D01*
X42248Y-44006D01*
X41693Y-43755D01*
X41084Y-43735D01*
X40514Y-43949D01*
X40429Y-44006D01*
X40303Y-44226D01*
X41338Y-45261D01*
X42373Y-44226D01*
X42373Y-44254D01*
X41352Y-45275D01*
X42387Y-46310D01*
X42607Y-46185D01*
X42858Y-45630D01*
X42878Y-45021D01*
X42702Y-44554D01*
X42758Y-44610D01*
X42915Y-44674D01*
X43084Y-44675D01*
X43160Y-44643D01*
X43160Y-45139D01*
X43198Y-45231D01*
X43268Y-45301D01*
X43360Y-45340D01*
X43459Y-45340D01*
X43929Y-45340D01*
X44294Y-45705D01*
X44389Y-45767D01*
X44389Y-45767D01*
X44500Y-45790D01*
X48173Y-45790D01*
X48177Y-45800D01*
X48000Y-45800D01*
X47827Y-45834D01*
X47681Y-45931D01*
X46181Y-47431D01*
X46084Y-47577D01*
X46050Y-47750D01*
X46050Y-47840D01*
X45942Y-47821D01*
X45928Y-47835D01*
X45514Y-48250D01*
X45942Y-48678D01*
X46071Y-48655D01*
X46165Y-48749D01*
X46382Y-48839D01*
X46616Y-48840D01*
X46833Y-48750D01*
X46884Y-48700D01*
X59000Y-48700D01*
X59172Y-48665D01*
X59318Y-48568D01*
X59499Y-48386D01*
X60188Y-49074D01*
X60165Y-49074D01*
X60009Y-49139D01*
X59938Y-49210D01*
X59061Y-49210D01*
X58991Y-49139D01*
X58834Y-49075D01*
X58665Y-49074D01*
X58509Y-49139D01*
X58389Y-49258D01*
X58325Y-49415D01*
X58324Y-49584D01*
X58389Y-49740D01*
X58508Y-49860D01*
X58665Y-49924D01*
X58834Y-49925D01*
X58990Y-49860D01*
X59061Y-49790D01*
X59938Y-49790D01*
X60008Y-49860D01*
X60165Y-49924D01*
X60334Y-49925D01*
X60490Y-49860D01*
X60610Y-49741D01*
X60674Y-49584D01*
X60674Y-49561D01*
X60931Y-49818D01*
X61077Y-49915D01*
X61250Y-49950D01*
X70214Y-49950D01*
X70335Y-50000D01*
X70203Y-50054D01*
X70055Y-50202D01*
X70054Y-50203D01*
X69991Y-50139D01*
X69834Y-50075D01*
X69665Y-50074D01*
X69509Y-50139D01*
X69389Y-50258D01*
X69325Y-50415D01*
X69324Y-50514D01*
X67879Y-51960D01*
X67372Y-51960D01*
X67424Y-51834D01*
X67425Y-51665D01*
X67360Y-51509D01*
X67241Y-51389D01*
X67084Y-51325D01*
X66915Y-51324D01*
X66759Y-51389D01*
X66639Y-51508D01*
X66575Y-51665D01*
X66575Y-51710D01*
X66372Y-51710D01*
X66424Y-51584D01*
X66425Y-51415D01*
X66360Y-51259D01*
X66241Y-51139D01*
X66084Y-51075D01*
X65915Y-51074D01*
X65759Y-51139D01*
X65688Y-51210D01*
X63811Y-51210D01*
X63741Y-51139D01*
X63584Y-51075D01*
X63415Y-51074D01*
X63259Y-51139D01*
X63139Y-51258D01*
X63075Y-51415D01*
X63074Y-51584D01*
X63126Y-51710D01*
X55425Y-51710D01*
X55425Y-49415D01*
X55360Y-49259D01*
X55241Y-49139D01*
X55084Y-49075D01*
X54915Y-49074D01*
X54759Y-49139D01*
X54639Y-49258D01*
X54575Y-49415D01*
X54574Y-49514D01*
X54264Y-49825D01*
X54165Y-49824D01*
X54009Y-49889D01*
X53889Y-50008D01*
X53825Y-50165D01*
X53824Y-50334D01*
X53889Y-50490D01*
X54008Y-50610D01*
X54165Y-50674D01*
X54334Y-50675D01*
X54490Y-50610D01*
X54610Y-50491D01*
X54674Y-50334D01*
X54675Y-50235D01*
X54985Y-49924D01*
X55084Y-49925D01*
X55240Y-49860D01*
X55360Y-49741D01*
X55424Y-49584D01*
X55425Y-49415D01*
X55425Y-51710D01*
X52311Y-51710D01*
X52241Y-51639D01*
X52084Y-51575D01*
X51915Y-51574D01*
X51759Y-51639D01*
X51639Y-51758D01*
X51575Y-51915D01*
X51574Y-52084D01*
X51639Y-52240D01*
X51758Y-52360D01*
X51915Y-52424D01*
X52084Y-52425D01*
X52240Y-52360D01*
X52311Y-52290D01*
X64799Y-52290D01*
X64611Y-52477D01*
X64604Y-52475D01*
X64396Y-52474D01*
X64203Y-52554D01*
X64055Y-52702D01*
X63999Y-52835D01*
X63945Y-52703D01*
X63797Y-52555D01*
X63604Y-52475D01*
X63396Y-52474D01*
X63203Y-52554D01*
X63055Y-52702D01*
X62999Y-52835D01*
X62945Y-52703D01*
X62797Y-52555D01*
X62604Y-52475D01*
X62396Y-52474D01*
X62203Y-52554D01*
X62055Y-52702D01*
X61999Y-52835D01*
X61945Y-52703D01*
X61797Y-52555D01*
X61604Y-52475D01*
X61396Y-52474D01*
X61203Y-52554D01*
X61055Y-52702D01*
X60999Y-52835D01*
X60945Y-52703D01*
X60797Y-52555D01*
X60604Y-52475D01*
X60396Y-52474D01*
X60203Y-52554D01*
X60055Y-52702D01*
X60055Y-52702D01*
X60038Y-52658D01*
X60021Y-52633D01*
X59895Y-52618D01*
X59881Y-52632D01*
X59881Y-52604D01*
X59866Y-52478D01*
X59639Y-52378D01*
X59390Y-52372D01*
X59158Y-52461D01*
X59133Y-52478D01*
X59118Y-52604D01*
X59500Y-52985D01*
X59881Y-52604D01*
X59881Y-52632D01*
X59514Y-53000D01*
X59895Y-53381D01*
X60021Y-53366D01*
X60053Y-53293D01*
X60054Y-53297D01*
X60202Y-53444D01*
X60395Y-53524D01*
X60603Y-53525D01*
X60797Y-53445D01*
X60944Y-53297D01*
X61000Y-53164D01*
X61054Y-53297D01*
X61202Y-53444D01*
X61395Y-53524D01*
X61603Y-53525D01*
X61797Y-53445D01*
X61944Y-53297D01*
X62000Y-53164D01*
X62054Y-53297D01*
X62202Y-53444D01*
X62395Y-53524D01*
X62603Y-53525D01*
X62797Y-53445D01*
X62944Y-53297D01*
X63000Y-53164D01*
X63054Y-53297D01*
X63202Y-53444D01*
X63395Y-53524D01*
X63603Y-53525D01*
X63797Y-53445D01*
X63944Y-53297D01*
X64000Y-53164D01*
X64054Y-53297D01*
X64202Y-53444D01*
X64395Y-53524D01*
X64603Y-53525D01*
X64797Y-53445D01*
X64944Y-53297D01*
X65000Y-53164D01*
X65054Y-53297D01*
X65202Y-53444D01*
X65395Y-53524D01*
X65603Y-53525D01*
X65797Y-53445D01*
X65944Y-53297D01*
X66000Y-53164D01*
X66054Y-53297D01*
X66202Y-53444D01*
X66395Y-53524D01*
X66603Y-53525D01*
X66797Y-53445D01*
X66944Y-53297D01*
X67000Y-53164D01*
X67054Y-53297D01*
X67202Y-53444D01*
X67395Y-53524D01*
X67603Y-53525D01*
X67797Y-53445D01*
X67944Y-53297D01*
X68000Y-53164D01*
X68054Y-53297D01*
X68202Y-53444D01*
X68395Y-53524D01*
X68603Y-53525D01*
X68797Y-53445D01*
X68944Y-53297D01*
X69024Y-53104D01*
X69025Y-52896D01*
X68945Y-52703D01*
X68826Y-52583D01*
X70388Y-51022D01*
X70395Y-51024D01*
X70603Y-51025D01*
X70797Y-50945D01*
X70944Y-50797D01*
X71008Y-50644D01*
X71181Y-50818D01*
X71327Y-50915D01*
X71500Y-50950D01*
X73214Y-50950D01*
X73395Y-51024D01*
X73603Y-51025D01*
X73797Y-50945D01*
X73944Y-50797D01*
X74024Y-50604D01*
X74025Y-50396D01*
X73945Y-50203D01*
X73797Y-50055D01*
X73664Y-49999D01*
X73797Y-49945D01*
X73944Y-49797D01*
X73948Y-49790D01*
X74250Y-49790D01*
X74360Y-49767D01*
X74455Y-49705D01*
X74870Y-49290D01*
X75524Y-49290D01*
X75533Y-49311D01*
X75657Y-49435D01*
X75645Y-49440D01*
X75618Y-49458D01*
X75600Y-49586D01*
X76000Y-49985D01*
X76399Y-49586D01*
X76381Y-49458D01*
X76338Y-49439D01*
X76465Y-49311D01*
X76499Y-49230D01*
X76533Y-49311D01*
X76657Y-49435D01*
X76645Y-49440D01*
X76618Y-49458D01*
X76600Y-49586D01*
X77000Y-49985D01*
X77399Y-49586D01*
X77381Y-49458D01*
X77338Y-49439D01*
X77465Y-49311D01*
X77549Y-49109D01*
X77550Y-48891D01*
X77466Y-48688D01*
X77311Y-48534D01*
X77230Y-48500D01*
X77311Y-48466D01*
X77465Y-48311D01*
X77549Y-48109D01*
X77550Y-47891D01*
X77466Y-47688D01*
X77311Y-47534D01*
X77230Y-47500D01*
X77311Y-47466D01*
X77465Y-47311D01*
X77549Y-47109D01*
X77550Y-46891D01*
X77466Y-46688D01*
X77311Y-46534D01*
X77109Y-46450D01*
X76891Y-46449D01*
X76688Y-46533D01*
X76534Y-46688D01*
X76500Y-46769D01*
X76466Y-46688D01*
X76311Y-46534D01*
X76109Y-46450D01*
X75891Y-46449D01*
X75688Y-46533D01*
X75534Y-46688D01*
X75450Y-46890D01*
X75449Y-47108D01*
X75533Y-47311D01*
X75688Y-47465D01*
X75769Y-47499D01*
X75688Y-47533D01*
X75534Y-47688D01*
X75450Y-47890D01*
X75449Y-48108D01*
X75491Y-48210D01*
X74127Y-48210D01*
X74127Y-47390D01*
X74038Y-47158D01*
X74021Y-47133D01*
X73895Y-47118D01*
X73881Y-47132D01*
X73881Y-47104D01*
X73866Y-46978D01*
X73639Y-46878D01*
X73390Y-46872D01*
X73158Y-46961D01*
X73133Y-46978D01*
X73118Y-47104D01*
X73500Y-47485D01*
X73881Y-47104D01*
X73881Y-47132D01*
X73514Y-47500D01*
X73895Y-47881D01*
X74021Y-47866D01*
X74121Y-47639D01*
X74127Y-47390D01*
X74127Y-48210D01*
X73948Y-48210D01*
X73945Y-48203D01*
X73797Y-48055D01*
X73797Y-48055D01*
X73841Y-48038D01*
X73866Y-48021D01*
X73881Y-47895D01*
X73500Y-47514D01*
X73485Y-47528D01*
X73485Y-47500D01*
X73104Y-47118D01*
X72978Y-47133D01*
X72878Y-47360D01*
X72872Y-47609D01*
X72961Y-47841D01*
X72978Y-47866D01*
X73104Y-47881D01*
X73485Y-47500D01*
X73485Y-47528D01*
X73118Y-47895D01*
X73133Y-48021D01*
X73206Y-48053D01*
X73203Y-48054D01*
X73055Y-48202D01*
X72975Y-48395D01*
X72974Y-48603D01*
X73054Y-48797D01*
X73202Y-48944D01*
X73335Y-49000D01*
X73203Y-49054D01*
X73055Y-49202D01*
X72975Y-49395D01*
X72974Y-49603D01*
X73054Y-49797D01*
X73202Y-49944D01*
X73335Y-50000D01*
X73214Y-50050D01*
X71686Y-50050D01*
X71019Y-49383D01*
X70945Y-49203D01*
X70797Y-49055D01*
X70797Y-49055D01*
X70841Y-49038D01*
X70866Y-49021D01*
X70881Y-48895D01*
X70500Y-48514D01*
X70118Y-48895D01*
X70133Y-49021D01*
X70198Y-49050D01*
X62801Y-49050D01*
X62860Y-48991D01*
X62924Y-48834D01*
X62925Y-48735D01*
X63370Y-48290D01*
X69909Y-48290D01*
X69878Y-48360D01*
X69872Y-48609D01*
X69961Y-48841D01*
X69978Y-48866D01*
X70104Y-48881D01*
X70485Y-48500D01*
X70480Y-48494D01*
X70494Y-48480D01*
X70500Y-48485D01*
X70505Y-48480D01*
X70519Y-48494D01*
X70514Y-48500D01*
X70895Y-48881D01*
X71021Y-48866D01*
X71121Y-48639D01*
X71127Y-48409D01*
X71165Y-48424D01*
X71334Y-48425D01*
X71490Y-48360D01*
X71610Y-48241D01*
X71674Y-48084D01*
X71675Y-47915D01*
X71610Y-47759D01*
X71491Y-47639D01*
X71334Y-47575D01*
X71165Y-47574D01*
X71025Y-47633D01*
X71025Y-47175D01*
X70986Y-47083D01*
X70916Y-47013D01*
X70824Y-46975D01*
X70725Y-46975D01*
X70175Y-46975D01*
X70083Y-47013D01*
X70013Y-47083D01*
X69975Y-47175D01*
X69975Y-47274D01*
X69975Y-47710D01*
X63250Y-47710D01*
X63139Y-47732D01*
X63044Y-47794D01*
X62514Y-48325D01*
X62415Y-48324D01*
X62259Y-48389D01*
X62139Y-48508D01*
X62075Y-48665D01*
X62074Y-48834D01*
X62139Y-48990D01*
X62198Y-49050D01*
X61436Y-49050D01*
X59950Y-47563D01*
X59950Y-47285D01*
X60000Y-47164D01*
X60054Y-47297D01*
X60202Y-47444D01*
X60395Y-47524D01*
X60603Y-47525D01*
X60797Y-47445D01*
X60944Y-47297D01*
X61000Y-47164D01*
X61054Y-47297D01*
X61202Y-47444D01*
X61395Y-47524D01*
X61603Y-47525D01*
X61797Y-47445D01*
X61944Y-47297D01*
X62000Y-47164D01*
X62054Y-47297D01*
X62202Y-47444D01*
X62395Y-47524D01*
X62603Y-47525D01*
X62797Y-47445D01*
X62944Y-47297D01*
X63000Y-47164D01*
X63054Y-47297D01*
X63202Y-47444D01*
X63395Y-47524D01*
X63603Y-47525D01*
X63797Y-47445D01*
X63944Y-47297D01*
X64000Y-47164D01*
X64054Y-47297D01*
X64202Y-47444D01*
X64395Y-47524D01*
X64603Y-47525D01*
X64797Y-47445D01*
X64944Y-47297D01*
X65000Y-47164D01*
X65054Y-47297D01*
X65202Y-47444D01*
X65395Y-47524D01*
X65603Y-47525D01*
X65797Y-47445D01*
X65944Y-47297D01*
X66000Y-47164D01*
X66054Y-47297D01*
X66202Y-47444D01*
X66395Y-47524D01*
X66603Y-47525D01*
X66797Y-47445D01*
X66944Y-47297D01*
X67000Y-47164D01*
X67054Y-47297D01*
X67202Y-47444D01*
X67395Y-47524D01*
X67603Y-47525D01*
X67797Y-47445D01*
X67944Y-47297D01*
X68000Y-47164D01*
X68054Y-47297D01*
X68202Y-47444D01*
X68395Y-47524D01*
X68603Y-47525D01*
X68797Y-47445D01*
X68944Y-47297D01*
X69024Y-47104D01*
X69025Y-46896D01*
X68981Y-46790D01*
X74780Y-46790D01*
X74890Y-46767D01*
X74985Y-46705D01*
X77327Y-44362D01*
X77401Y-44393D01*
X77657Y-44393D01*
X77894Y-44295D01*
X78075Y-44114D01*
X78173Y-43878D01*
X78173Y-43622D01*
X78075Y-43385D01*
X77894Y-43204D01*
X77806Y-43168D01*
X77806Y-42387D01*
X76771Y-41352D01*
X76757Y-41366D01*
X76757Y-41338D01*
X75722Y-40303D01*
X75502Y-40429D01*
X75251Y-40983D01*
X75231Y-41592D01*
X75445Y-42162D01*
X75502Y-42248D01*
X75722Y-42373D01*
X76757Y-41338D01*
X76757Y-41366D01*
X75736Y-42387D01*
X75862Y-42607D01*
X76416Y-42858D01*
X77025Y-42878D01*
X77595Y-42664D01*
X77681Y-42607D01*
X77806Y-42387D01*
X77806Y-43168D01*
X77658Y-43106D01*
X77402Y-43106D01*
X77165Y-43204D01*
X76984Y-43385D01*
X76886Y-43621D01*
X76886Y-43877D01*
X76917Y-43952D01*
X75713Y-45156D01*
X75713Y-44213D01*
X75713Y-44073D01*
X75713Y-43847D01*
X75713Y-43652D01*
X75713Y-43426D01*
X75713Y-43286D01*
X75660Y-43158D01*
X75561Y-43059D01*
X75433Y-43006D01*
X75067Y-43006D01*
X74980Y-43094D01*
X74980Y-43740D01*
X75626Y-43740D01*
X75713Y-43652D01*
X75713Y-43847D01*
X75626Y-43760D01*
X74980Y-43760D01*
X74980Y-44406D01*
X75067Y-44493D01*
X75433Y-44493D01*
X75561Y-44440D01*
X75660Y-44341D01*
X75713Y-44213D01*
X75713Y-45156D01*
X74659Y-46210D01*
X73624Y-46210D01*
X73749Y-46084D01*
X73839Y-45867D01*
X73840Y-45633D01*
X73750Y-45416D01*
X73584Y-45250D01*
X73367Y-45160D01*
X73133Y-45159D01*
X72916Y-45249D01*
X72750Y-45415D01*
X72749Y-45415D01*
X72584Y-45250D01*
X72367Y-45160D01*
X72133Y-45159D01*
X71916Y-45249D01*
X71750Y-45415D01*
X71749Y-45415D01*
X71584Y-45250D01*
X71367Y-45160D01*
X71133Y-45159D01*
X70916Y-45249D01*
X70750Y-45415D01*
X70749Y-45415D01*
X70622Y-45287D01*
X71088Y-44821D01*
X71132Y-44839D01*
X71366Y-44840D01*
X71583Y-44750D01*
X71749Y-44584D01*
X71750Y-44584D01*
X71915Y-44749D01*
X72132Y-44839D01*
X72366Y-44840D01*
X72411Y-44821D01*
X72544Y-44955D01*
X72639Y-45017D01*
X72750Y-45040D01*
X73500Y-45040D01*
X73610Y-45017D01*
X73705Y-44955D01*
X74205Y-44455D01*
X74267Y-44360D01*
X74274Y-44328D01*
X74279Y-44341D01*
X74378Y-44440D01*
X74506Y-44493D01*
X74872Y-44493D01*
X74960Y-44406D01*
X74960Y-43760D01*
X74952Y-43760D01*
X74952Y-43740D01*
X74960Y-43740D01*
X74960Y-43094D01*
X74872Y-43006D01*
X74506Y-43006D01*
X74378Y-43059D01*
X74290Y-43148D01*
X74290Y-42750D01*
X74267Y-42639D01*
X74205Y-42544D01*
X73205Y-41544D01*
X73110Y-41482D01*
X73000Y-41460D01*
X72122Y-41460D01*
X72174Y-41334D01*
X72175Y-41165D01*
X72110Y-41009D01*
X71991Y-40889D01*
X71834Y-40825D01*
X71735Y-40824D01*
X71455Y-40544D01*
X71398Y-40506D01*
X71547Y-40445D01*
X71694Y-40297D01*
X71750Y-40164D01*
X71804Y-40297D01*
X71952Y-40444D01*
X72145Y-40524D01*
X72353Y-40525D01*
X72547Y-40445D01*
X72694Y-40297D01*
X72750Y-40164D01*
X72804Y-40297D01*
X72952Y-40444D01*
X73145Y-40524D01*
X73353Y-40525D01*
X73547Y-40445D01*
X73694Y-40297D01*
X73774Y-40104D01*
X73775Y-39896D01*
X73695Y-39703D01*
X73622Y-39629D01*
X78480Y-39629D01*
X78480Y-58795D01*
X78480Y-58795D01*
G37*
X78480Y-58795D02*
X78311Y-58795D01*
X78311Y-56832D01*
X78311Y-41084D01*
X78097Y-40514D01*
X78040Y-40429D01*
X77820Y-40303D01*
X77806Y-40317D01*
X77806Y-40289D01*
X77681Y-40069D01*
X77126Y-39818D01*
X76517Y-39798D01*
X75947Y-40012D01*
X75862Y-40069D01*
X75736Y-40289D01*
X76771Y-41324D01*
X77806Y-40289D01*
X77806Y-40317D01*
X76785Y-41338D01*
X77820Y-42373D01*
X78040Y-42248D01*
X78291Y-41693D01*
X78311Y-41084D01*
X78311Y-56832D01*
X78097Y-56262D01*
X78090Y-56251D01*
X78090Y-54822D01*
X78090Y-54677D01*
X78045Y-54451D01*
X77917Y-54260D01*
X77725Y-54132D01*
X77652Y-54117D01*
X77652Y-49886D01*
X77559Y-49645D01*
X77541Y-49618D01*
X77413Y-49600D01*
X77014Y-50000D01*
X77413Y-50399D01*
X77541Y-50381D01*
X77646Y-50144D01*
X77652Y-49886D01*
X77652Y-54117D01*
X77550Y-54097D01*
X77550Y-51349D01*
X77550Y-51250D01*
X77550Y-50650D01*
X77511Y-50558D01*
X77441Y-50488D01*
X77391Y-50467D01*
X77399Y-50413D01*
X77000Y-50014D01*
X76985Y-50028D01*
X76985Y-50000D01*
X76586Y-49600D01*
X76500Y-49612D01*
X76413Y-49600D01*
X76014Y-50000D01*
X76413Y-50399D01*
X76500Y-50387D01*
X76586Y-50399D01*
X76985Y-50000D01*
X76985Y-50028D01*
X76600Y-50413D01*
X76608Y-50467D01*
X76558Y-50488D01*
X76488Y-50558D01*
X76450Y-50650D01*
X76450Y-50672D01*
X76342Y-50564D01*
X76354Y-50559D01*
X76381Y-50541D01*
X76399Y-50413D01*
X76000Y-50014D01*
X75985Y-50028D01*
X75985Y-50000D01*
X75586Y-49600D01*
X75458Y-49618D01*
X75353Y-49855D01*
X75347Y-50113D01*
X75440Y-50354D01*
X75458Y-50381D01*
X75586Y-50399D01*
X75985Y-50000D01*
X75985Y-50028D01*
X75600Y-50413D01*
X75618Y-50541D01*
X75661Y-50560D01*
X75534Y-50688D01*
X75450Y-50890D01*
X75449Y-51108D01*
X75533Y-51311D01*
X75688Y-51465D01*
X75890Y-51549D01*
X76108Y-51550D01*
X76311Y-51466D01*
X76450Y-51327D01*
X76450Y-51349D01*
X76488Y-51441D01*
X76558Y-51511D01*
X76650Y-51550D01*
X76749Y-51550D01*
X77349Y-51550D01*
X77441Y-51511D01*
X77511Y-51441D01*
X77550Y-51349D01*
X77550Y-54097D01*
X77500Y-54087D01*
X77274Y-54132D01*
X77082Y-54260D01*
X77000Y-54384D01*
X76917Y-54260D01*
X76725Y-54132D01*
X76500Y-54087D01*
X76274Y-54132D01*
X76082Y-54260D01*
X76076Y-54268D01*
X76051Y-54208D01*
X75981Y-54138D01*
X75889Y-54100D01*
X75790Y-54100D01*
X75110Y-54100D01*
X75018Y-54138D01*
X74948Y-54208D01*
X74924Y-54264D01*
X74612Y-53952D01*
X74643Y-53878D01*
X74643Y-53622D01*
X74545Y-53385D01*
X74364Y-53204D01*
X74128Y-53106D01*
X73872Y-53106D01*
X73635Y-53204D01*
X73454Y-53385D01*
X73356Y-53621D01*
X73356Y-53877D01*
X73454Y-54114D01*
X73635Y-54295D01*
X73871Y-54393D01*
X74127Y-54393D01*
X74202Y-54362D01*
X74794Y-54955D01*
X74889Y-55017D01*
X74910Y-55022D01*
X74910Y-55199D01*
X74948Y-55291D01*
X75018Y-55361D01*
X75110Y-55400D01*
X75209Y-55400D01*
X75889Y-55400D01*
X75981Y-55361D01*
X76051Y-55291D01*
X76076Y-55231D01*
X76082Y-55239D01*
X76274Y-55367D01*
X76500Y-55412D01*
X76725Y-55367D01*
X76917Y-55239D01*
X77000Y-55115D01*
X77082Y-55239D01*
X77274Y-55367D01*
X77500Y-55412D01*
X77725Y-55367D01*
X77917Y-55239D01*
X78045Y-55048D01*
X78090Y-54822D01*
X78090Y-56251D01*
X78040Y-56177D01*
X77820Y-56051D01*
X77806Y-56065D01*
X77806Y-56037D01*
X77681Y-55817D01*
X77126Y-55566D01*
X76517Y-55546D01*
X75947Y-55760D01*
X75862Y-55817D01*
X75736Y-56037D01*
X76771Y-57072D01*
X77806Y-56037D01*
X77806Y-56065D01*
X76785Y-57086D01*
X77820Y-58121D01*
X78040Y-57996D01*
X78291Y-57441D01*
X78311Y-56832D01*
X78311Y-58795D01*
X77806Y-58795D01*
X77806Y-58135D01*
X76771Y-57100D01*
X76757Y-57114D01*
X76757Y-57086D01*
X75722Y-56051D01*
X75502Y-56177D01*
X75251Y-56731D01*
X75231Y-57340D01*
X75445Y-57910D01*
X75502Y-57996D01*
X75722Y-58121D01*
X76757Y-57086D01*
X76757Y-57114D01*
X75736Y-58135D01*
X75862Y-58355D01*
X76416Y-58606D01*
X77025Y-58626D01*
X77595Y-58412D01*
X77681Y-58355D01*
X77806Y-58135D01*
X77806Y-58795D01*
X73045Y-58795D01*
X73045Y-51891D01*
X72962Y-51691D01*
X72809Y-51537D01*
X72608Y-51454D01*
X72391Y-51454D01*
X72191Y-51537D01*
X72062Y-51665D01*
X72055Y-51647D01*
X72038Y-51621D01*
X71910Y-51603D01*
X71896Y-51617D01*
X71896Y-51589D01*
X71878Y-51461D01*
X71643Y-51357D01*
X71387Y-51351D01*
X71147Y-51444D01*
X71121Y-51461D01*
X71103Y-51589D01*
X71500Y-51985D01*
X71896Y-51589D01*
X71896Y-51617D01*
X71514Y-52000D01*
X71910Y-52396D01*
X72038Y-52378D01*
X72059Y-52330D01*
X72190Y-52462D01*
X72391Y-52545D01*
X72608Y-52545D01*
X72808Y-52462D01*
X72962Y-52309D01*
X73045Y-52108D01*
X73045Y-51891D01*
X73045Y-58795D01*
X71950Y-58795D01*
X71950Y-55250D01*
X71915Y-55077D01*
X71896Y-55048D01*
X71896Y-52410D01*
X71500Y-52014D01*
X71485Y-52028D01*
X71485Y-52000D01*
X71089Y-51603D01*
X70961Y-51621D01*
X70857Y-51856D01*
X70851Y-52112D01*
X70944Y-52352D01*
X70961Y-52378D01*
X71089Y-52396D01*
X71485Y-52000D01*
X71485Y-52028D01*
X71103Y-52410D01*
X71121Y-52538D01*
X71356Y-52642D01*
X71612Y-52648D01*
X71852Y-52555D01*
X71878Y-52538D01*
X71896Y-52410D01*
X71896Y-55048D01*
X71818Y-54931D01*
X71672Y-54834D01*
X71500Y-54800D01*
X70643Y-54800D01*
X70643Y-53622D01*
X70545Y-53385D01*
X70364Y-53204D01*
X70128Y-53106D01*
X69872Y-53106D01*
X69635Y-53204D01*
X69454Y-53385D01*
X69356Y-53621D01*
X69356Y-53877D01*
X69454Y-54114D01*
X69635Y-54295D01*
X69871Y-54393D01*
X70127Y-54393D01*
X70364Y-54295D01*
X70545Y-54114D01*
X70643Y-53878D01*
X70643Y-53622D01*
X70643Y-54800D01*
X67750Y-54800D01*
X67577Y-54834D01*
X67431Y-54931D01*
X66931Y-55431D01*
X66834Y-55577D01*
X66800Y-55750D01*
X66800Y-55880D01*
X66791Y-55868D01*
X66663Y-55850D01*
X66649Y-55864D01*
X66649Y-55836D01*
X66631Y-55708D01*
X66394Y-55603D01*
X66136Y-55597D01*
X65895Y-55690D01*
X65868Y-55708D01*
X65850Y-55836D01*
X66250Y-56235D01*
X66649Y-55836D01*
X66649Y-55864D01*
X66264Y-56250D01*
X66663Y-56649D01*
X66791Y-56631D01*
X66810Y-56588D01*
X66938Y-56715D01*
X67019Y-56749D01*
X66938Y-56783D01*
X66800Y-56922D01*
X66800Y-56900D01*
X66761Y-56808D01*
X66691Y-56738D01*
X66641Y-56717D01*
X66649Y-56663D01*
X66250Y-56264D01*
X66235Y-56278D01*
X66235Y-56250D01*
X65836Y-55850D01*
X65708Y-55868D01*
X65603Y-56105D01*
X65597Y-56363D01*
X65690Y-56604D01*
X65708Y-56631D01*
X65836Y-56649D01*
X66235Y-56250D01*
X66235Y-56278D01*
X65850Y-56663D01*
X65858Y-56717D01*
X65808Y-56738D01*
X65738Y-56808D01*
X65700Y-56900D01*
X65700Y-56999D01*
X65700Y-57599D01*
X65738Y-57691D01*
X65808Y-57761D01*
X65900Y-57800D01*
X65999Y-57800D01*
X66599Y-57800D01*
X66691Y-57761D01*
X66761Y-57691D01*
X66800Y-57599D01*
X66800Y-57577D01*
X66938Y-57715D01*
X67140Y-57799D01*
X67358Y-57800D01*
X67561Y-57716D01*
X67715Y-57561D01*
X67749Y-57480D01*
X67783Y-57561D01*
X67938Y-57715D01*
X68140Y-57799D01*
X68358Y-57800D01*
X68561Y-57716D01*
X68715Y-57561D01*
X68749Y-57480D01*
X68783Y-57561D01*
X68938Y-57715D01*
X69140Y-57799D01*
X69358Y-57800D01*
X69561Y-57716D01*
X69715Y-57561D01*
X69749Y-57480D01*
X69783Y-57561D01*
X69938Y-57715D01*
X70140Y-57799D01*
X70358Y-57800D01*
X70561Y-57716D01*
X70715Y-57561D01*
X70799Y-57359D01*
X70800Y-57141D01*
X70716Y-56938D01*
X70592Y-56814D01*
X70604Y-56809D01*
X70631Y-56791D01*
X70649Y-56663D01*
X70250Y-56264D01*
X69850Y-56663D01*
X69868Y-56791D01*
X69911Y-56810D01*
X69784Y-56938D01*
X69750Y-57019D01*
X69716Y-56938D01*
X69561Y-56784D01*
X69480Y-56750D01*
X69561Y-56716D01*
X69685Y-56592D01*
X69690Y-56604D01*
X69708Y-56631D01*
X69836Y-56649D01*
X70235Y-56250D01*
X69836Y-55850D01*
X69708Y-55868D01*
X69689Y-55911D01*
X69561Y-55784D01*
X69359Y-55700D01*
X69250Y-55700D01*
X69880Y-55700D01*
X69868Y-55708D01*
X69850Y-55836D01*
X70250Y-56235D01*
X70649Y-55836D01*
X70631Y-55708D01*
X70613Y-55700D01*
X71500Y-55700D01*
X71672Y-55665D01*
X71818Y-55568D01*
X71915Y-55422D01*
X71950Y-55250D01*
X71950Y-58795D01*
X70902Y-58795D01*
X70902Y-56136D01*
X70809Y-55895D01*
X70791Y-55868D01*
X70663Y-55850D01*
X70264Y-56250D01*
X70663Y-56649D01*
X70791Y-56631D01*
X70896Y-56394D01*
X70902Y-56136D01*
X70902Y-58795D01*
X63648Y-58795D01*
X63648Y-54137D01*
X63555Y-53897D01*
X63538Y-53871D01*
X63410Y-53853D01*
X63396Y-53867D01*
X63396Y-53839D01*
X63378Y-53711D01*
X63143Y-53607D01*
X62887Y-53601D01*
X62647Y-53694D01*
X62621Y-53711D01*
X62603Y-53839D01*
X63000Y-54235D01*
X63396Y-53839D01*
X63396Y-53867D01*
X63014Y-54250D01*
X63410Y-54646D01*
X63538Y-54628D01*
X63642Y-54393D01*
X63648Y-54137D01*
X63648Y-58795D01*
X63545Y-58795D01*
X63545Y-55141D01*
X63462Y-54941D01*
X63334Y-54812D01*
X63352Y-54805D01*
X63378Y-54788D01*
X63396Y-54660D01*
X63000Y-54264D01*
X62985Y-54278D01*
X62985Y-54250D01*
X62589Y-53853D01*
X62461Y-53871D01*
X62357Y-54106D01*
X62351Y-54362D01*
X62444Y-54602D01*
X62461Y-54628D01*
X62589Y-54646D01*
X62985Y-54250D01*
X62985Y-54278D01*
X62603Y-54660D01*
X62621Y-54788D01*
X62669Y-54809D01*
X62537Y-54940D01*
X62529Y-54960D01*
X62370Y-54960D01*
X62244Y-54833D01*
X62149Y-54771D01*
X62039Y-54749D01*
X61470Y-54749D01*
X61462Y-54730D01*
X61309Y-54576D01*
X61108Y-54493D01*
X60891Y-54493D01*
X60691Y-54576D01*
X60537Y-54729D01*
X60454Y-54930D01*
X60454Y-55147D01*
X60537Y-55347D01*
X60690Y-55501D01*
X60891Y-55584D01*
X61108Y-55584D01*
X61308Y-55501D01*
X61462Y-55348D01*
X61470Y-55329D01*
X61918Y-55329D01*
X62044Y-55455D01*
X62139Y-55517D01*
X62139Y-55517D01*
X62250Y-55540D01*
X62529Y-55540D01*
X62537Y-55558D01*
X62690Y-55712D01*
X62891Y-55795D01*
X63108Y-55795D01*
X63308Y-55712D01*
X63462Y-55559D01*
X63545Y-55358D01*
X63545Y-55141D01*
X63545Y-58795D01*
X61545Y-58795D01*
X61545Y-56852D01*
X61462Y-56652D01*
X61309Y-56498D01*
X61108Y-56415D01*
X60891Y-56415D01*
X60691Y-56498D01*
X60537Y-56651D01*
X60513Y-56710D01*
X59881Y-56710D01*
X59881Y-53395D01*
X59500Y-53014D01*
X59485Y-53028D01*
X59485Y-53000D01*
X59104Y-52618D01*
X58978Y-52633D01*
X58946Y-52706D01*
X58945Y-52703D01*
X58797Y-52555D01*
X58604Y-52475D01*
X58396Y-52474D01*
X58203Y-52554D01*
X58055Y-52702D01*
X57999Y-52835D01*
X57945Y-52703D01*
X57797Y-52555D01*
X57604Y-52475D01*
X57396Y-52474D01*
X57203Y-52554D01*
X57055Y-52702D01*
X56999Y-52835D01*
X56945Y-52703D01*
X56797Y-52555D01*
X56604Y-52475D01*
X56396Y-52474D01*
X56203Y-52554D01*
X56055Y-52702D01*
X55999Y-52835D01*
X55945Y-52703D01*
X55797Y-52555D01*
X55604Y-52475D01*
X55396Y-52474D01*
X55203Y-52554D01*
X55055Y-52702D01*
X54999Y-52835D01*
X54945Y-52703D01*
X54797Y-52555D01*
X54604Y-52475D01*
X54396Y-52474D01*
X54203Y-52554D01*
X54055Y-52702D01*
X53999Y-52835D01*
X53945Y-52703D01*
X53797Y-52555D01*
X53604Y-52475D01*
X53396Y-52474D01*
X53203Y-52554D01*
X53055Y-52702D01*
X52999Y-52835D01*
X52945Y-52703D01*
X52797Y-52555D01*
X52604Y-52475D01*
X52396Y-52474D01*
X52203Y-52554D01*
X52055Y-52702D01*
X51999Y-52835D01*
X51945Y-52703D01*
X51797Y-52555D01*
X51604Y-52475D01*
X51396Y-52474D01*
X51203Y-52554D01*
X51055Y-52702D01*
X50999Y-52835D01*
X50945Y-52703D01*
X50797Y-52555D01*
X50604Y-52475D01*
X50396Y-52474D01*
X50203Y-52554D01*
X50055Y-52702D01*
X50025Y-52774D01*
X50025Y-52675D01*
X49986Y-52583D01*
X49916Y-52513D01*
X49824Y-52475D01*
X49725Y-52475D01*
X49175Y-52475D01*
X49083Y-52513D01*
X49013Y-52583D01*
X48975Y-52675D01*
X48975Y-52774D01*
X48975Y-53324D01*
X49013Y-53416D01*
X49083Y-53486D01*
X49175Y-53525D01*
X49274Y-53525D01*
X49824Y-53525D01*
X49916Y-53486D01*
X49986Y-53416D01*
X50025Y-53324D01*
X50025Y-53225D01*
X50025Y-53225D01*
X50054Y-53297D01*
X50202Y-53444D01*
X50395Y-53524D01*
X50603Y-53525D01*
X50797Y-53445D01*
X50944Y-53297D01*
X51000Y-53164D01*
X51054Y-53297D01*
X51202Y-53444D01*
X51395Y-53524D01*
X51603Y-53525D01*
X51797Y-53445D01*
X51944Y-53297D01*
X52000Y-53164D01*
X52054Y-53297D01*
X52202Y-53444D01*
X52395Y-53524D01*
X52603Y-53525D01*
X52797Y-53445D01*
X52944Y-53297D01*
X53000Y-53164D01*
X53054Y-53297D01*
X53202Y-53444D01*
X53395Y-53524D01*
X53603Y-53525D01*
X53797Y-53445D01*
X53944Y-53297D01*
X54000Y-53164D01*
X54054Y-53297D01*
X54202Y-53444D01*
X54395Y-53524D01*
X54603Y-53525D01*
X54797Y-53445D01*
X54944Y-53297D01*
X55000Y-53164D01*
X55054Y-53297D01*
X55202Y-53444D01*
X55395Y-53524D01*
X55603Y-53525D01*
X55797Y-53445D01*
X55944Y-53297D01*
X56000Y-53164D01*
X56054Y-53297D01*
X56202Y-53444D01*
X56395Y-53524D01*
X56603Y-53525D01*
X56797Y-53445D01*
X56944Y-53297D01*
X57000Y-53164D01*
X57054Y-53297D01*
X57202Y-53444D01*
X57395Y-53524D01*
X57603Y-53525D01*
X57797Y-53445D01*
X57944Y-53297D01*
X58000Y-53164D01*
X58054Y-53297D01*
X58202Y-53444D01*
X58395Y-53524D01*
X58603Y-53525D01*
X58797Y-53445D01*
X58944Y-53297D01*
X58944Y-53297D01*
X58961Y-53341D01*
X58978Y-53366D01*
X59104Y-53381D01*
X59485Y-53000D01*
X59485Y-53028D01*
X59118Y-53395D01*
X59133Y-53521D01*
X59360Y-53621D01*
X59609Y-53627D01*
X59841Y-53538D01*
X59866Y-53521D01*
X59881Y-53395D01*
X59881Y-56710D01*
X59648Y-56710D01*
X59648Y-54387D01*
X59555Y-54147D01*
X59538Y-54121D01*
X59410Y-54103D01*
X59396Y-54117D01*
X59396Y-54089D01*
X59378Y-53961D01*
X59143Y-53857D01*
X58887Y-53851D01*
X58647Y-53944D01*
X58621Y-53961D01*
X58603Y-54089D01*
X59000Y-54485D01*
X59396Y-54089D01*
X59396Y-54117D01*
X59014Y-54500D01*
X59410Y-54896D01*
X59538Y-54878D01*
X59642Y-54643D01*
X59648Y-54387D01*
X59648Y-56710D01*
X59470Y-56710D01*
X59462Y-56691D01*
X59396Y-56624D01*
X59396Y-54910D01*
X59000Y-54514D01*
X58985Y-54528D01*
X58985Y-54500D01*
X58589Y-54103D01*
X58461Y-54121D01*
X58440Y-54169D01*
X58309Y-54037D01*
X58108Y-53954D01*
X57891Y-53954D01*
X57691Y-54037D01*
X57678Y-54050D01*
X55000Y-54050D01*
X54827Y-54084D01*
X54681Y-54181D01*
X54584Y-54327D01*
X54550Y-54500D01*
X54584Y-54672D01*
X54681Y-54818D01*
X54827Y-54915D01*
X55000Y-54950D01*
X55575Y-54950D01*
X55574Y-55084D01*
X55639Y-55240D01*
X55758Y-55360D01*
X55766Y-55363D01*
X55602Y-55435D01*
X55416Y-55630D01*
X55320Y-55882D01*
X55397Y-55990D01*
X55990Y-55990D01*
X55990Y-55982D01*
X56010Y-55982D01*
X56010Y-55990D01*
X56017Y-55990D01*
X56017Y-56010D01*
X56010Y-56010D01*
X56010Y-56017D01*
X55990Y-56017D01*
X55990Y-56010D01*
X55397Y-56010D01*
X55320Y-56117D01*
X55416Y-56369D01*
X55599Y-56560D01*
X55582Y-56571D01*
X55454Y-56762D01*
X55410Y-56988D01*
X55410Y-57011D01*
X55454Y-57237D01*
X55582Y-57428D01*
X55689Y-57500D01*
X55582Y-57571D01*
X55454Y-57762D01*
X55410Y-57988D01*
X55410Y-58011D01*
X55454Y-58237D01*
X55582Y-58428D01*
X55774Y-58556D01*
X56000Y-58601D01*
X56225Y-58556D01*
X56417Y-58428D01*
X56422Y-58420D01*
X56448Y-58481D01*
X56518Y-58551D01*
X56610Y-58590D01*
X56709Y-58590D01*
X57389Y-58590D01*
X57481Y-58551D01*
X57551Y-58481D01*
X57590Y-58389D01*
X57590Y-58290D01*
X57590Y-57610D01*
X57551Y-57518D01*
X57481Y-57448D01*
X57421Y-57422D01*
X57545Y-57237D01*
X57590Y-57011D01*
X57590Y-56988D01*
X57545Y-56762D01*
X57417Y-56571D01*
X57310Y-56500D01*
X57417Y-56428D01*
X57545Y-56237D01*
X57590Y-56011D01*
X57590Y-55988D01*
X57545Y-55762D01*
X57417Y-55571D01*
X57225Y-55443D01*
X57000Y-55398D01*
X56778Y-55442D01*
X56767Y-55389D01*
X56705Y-55294D01*
X56424Y-55014D01*
X56425Y-54950D01*
X57678Y-54950D01*
X57690Y-54962D01*
X57891Y-55045D01*
X58108Y-55045D01*
X58308Y-54962D01*
X58437Y-54834D01*
X58444Y-54852D01*
X58461Y-54878D01*
X58589Y-54896D01*
X58985Y-54500D01*
X58985Y-54528D01*
X58603Y-54910D01*
X58621Y-55038D01*
X58856Y-55142D01*
X59112Y-55148D01*
X59352Y-55055D01*
X59378Y-55038D01*
X59396Y-54910D01*
X59396Y-56624D01*
X59309Y-56537D01*
X59108Y-56454D01*
X58891Y-56454D01*
X58691Y-56537D01*
X58537Y-56690D01*
X58454Y-56891D01*
X58454Y-57108D01*
X58537Y-57308D01*
X58665Y-57437D01*
X58647Y-57444D01*
X58621Y-57461D01*
X58603Y-57589D01*
X59000Y-57985D01*
X59396Y-57589D01*
X59378Y-57461D01*
X59330Y-57440D01*
X59462Y-57309D01*
X59470Y-57290D01*
X60557Y-57290D01*
X60690Y-57423D01*
X60891Y-57506D01*
X61108Y-57506D01*
X61308Y-57423D01*
X61462Y-57270D01*
X61545Y-57069D01*
X61545Y-56852D01*
X61545Y-58795D01*
X59648Y-58795D01*
X59648Y-57887D01*
X59555Y-57647D01*
X59538Y-57621D01*
X59410Y-57603D01*
X59014Y-58000D01*
X59410Y-58396D01*
X59538Y-58378D01*
X59642Y-58143D01*
X59648Y-57887D01*
X59648Y-58795D01*
X59396Y-58795D01*
X59396Y-58410D01*
X59000Y-58014D01*
X58985Y-58028D01*
X58985Y-58000D01*
X58589Y-57603D01*
X58461Y-57621D01*
X58357Y-57856D01*
X58351Y-58112D01*
X58444Y-58352D01*
X58461Y-58378D01*
X58589Y-58396D01*
X58985Y-58000D01*
X58985Y-58028D01*
X58603Y-58410D01*
X58621Y-58538D01*
X58856Y-58642D01*
X59112Y-58648D01*
X59352Y-58555D01*
X59378Y-58538D01*
X59396Y-58410D01*
X59396Y-58795D01*
X54590Y-58795D01*
X54590Y-57883D01*
X54500Y-57666D01*
X54334Y-57500D01*
X54117Y-57410D01*
X53883Y-57409D01*
X53666Y-57499D01*
X53500Y-57665D01*
X53499Y-57665D01*
X53334Y-57500D01*
X53117Y-57410D01*
X52883Y-57409D01*
X52666Y-57499D01*
X52500Y-57665D01*
X52499Y-57665D01*
X52334Y-57500D01*
X52117Y-57410D01*
X51883Y-57409D01*
X51666Y-57499D01*
X51500Y-57665D01*
X51499Y-57665D01*
X51334Y-57500D01*
X51117Y-57410D01*
X50883Y-57409D01*
X50666Y-57499D01*
X50500Y-57665D01*
X50499Y-57665D01*
X50334Y-57500D01*
X50117Y-57410D01*
X49883Y-57409D01*
X49666Y-57499D01*
X49656Y-57509D01*
X49636Y-57461D01*
X49538Y-57363D01*
X49409Y-57310D01*
X49097Y-57310D01*
X49010Y-57397D01*
X49010Y-57990D01*
X49017Y-57990D01*
X49017Y-58010D01*
X49010Y-58010D01*
X49010Y-58602D01*
X49097Y-58690D01*
X49409Y-58690D01*
X49538Y-58636D01*
X49636Y-58538D01*
X49656Y-58490D01*
X49665Y-58499D01*
X49882Y-58589D01*
X50116Y-58590D01*
X50333Y-58500D01*
X50499Y-58334D01*
X50500Y-58334D01*
X50665Y-58499D01*
X50882Y-58589D01*
X51116Y-58590D01*
X51333Y-58500D01*
X51499Y-58334D01*
X51500Y-58334D01*
X51665Y-58499D01*
X51882Y-58589D01*
X52116Y-58590D01*
X52333Y-58500D01*
X52499Y-58334D01*
X52500Y-58334D01*
X52665Y-58499D01*
X52882Y-58589D01*
X53116Y-58590D01*
X53333Y-58500D01*
X53499Y-58334D01*
X53500Y-58334D01*
X53665Y-58499D01*
X53882Y-58589D01*
X54116Y-58590D01*
X54333Y-58500D01*
X54499Y-58334D01*
X54589Y-58117D01*
X54590Y-57883D01*
X54590Y-58795D01*
X48990Y-58795D01*
X48990Y-58602D01*
X48990Y-58010D01*
X48990Y-57990D01*
X48990Y-57397D01*
X48902Y-57310D01*
X48590Y-57310D01*
X48461Y-57363D01*
X48363Y-57461D01*
X48310Y-57590D01*
X48310Y-57729D01*
X48310Y-57902D01*
X48397Y-57990D01*
X48990Y-57990D01*
X48990Y-58010D01*
X48397Y-58010D01*
X48310Y-58097D01*
X48310Y-58270D01*
X48310Y-58409D01*
X48363Y-58538D01*
X48461Y-58636D01*
X48590Y-58690D01*
X48902Y-58690D01*
X48990Y-58602D01*
X48990Y-58795D01*
X47900Y-58795D01*
X47900Y-58349D01*
X47900Y-58250D01*
X47900Y-52050D01*
X47861Y-51958D01*
X47791Y-51888D01*
X47699Y-51850D01*
X47600Y-51850D01*
X47434Y-51850D01*
X47434Y-50864D01*
X47434Y-50510D01*
X47434Y-50490D01*
X47434Y-50135D01*
X47378Y-49874D01*
X47226Y-49654D01*
X47002Y-49509D01*
X46866Y-49471D01*
X46760Y-49548D01*
X46760Y-50490D01*
X47434Y-50490D01*
X47434Y-50510D01*
X46760Y-50510D01*
X46760Y-51451D01*
X46866Y-51528D01*
X47002Y-51490D01*
X47226Y-51345D01*
X47378Y-51125D01*
X47434Y-50864D01*
X47434Y-51850D01*
X46740Y-51850D01*
X46740Y-51451D01*
X46740Y-50510D01*
X46732Y-50510D01*
X46732Y-50490D01*
X46740Y-50490D01*
X46740Y-49548D01*
X46633Y-49471D01*
X46497Y-49509D01*
X46273Y-49654D01*
X46200Y-49760D01*
X46200Y-49750D01*
X46165Y-49577D01*
X46068Y-49431D01*
X45578Y-48942D01*
X45619Y-48943D01*
X45876Y-48844D01*
X45905Y-48824D01*
X45928Y-48692D01*
X45500Y-48264D01*
X45494Y-48269D01*
X45480Y-48255D01*
X45485Y-48250D01*
X45480Y-48244D01*
X45494Y-48230D01*
X45500Y-48235D01*
X45928Y-47807D01*
X45905Y-47675D01*
X45654Y-47563D01*
X45380Y-47556D01*
X45123Y-47655D01*
X45094Y-47675D01*
X45071Y-47807D01*
X45065Y-47801D01*
X45051Y-47768D01*
X44981Y-47698D01*
X44889Y-47660D01*
X44790Y-47660D01*
X44110Y-47660D01*
X44018Y-47698D01*
X43948Y-47768D01*
X43910Y-47860D01*
X43910Y-47959D01*
X43910Y-48639D01*
X43948Y-48731D01*
X44016Y-48800D01*
X42753Y-48800D01*
X42753Y-47886D01*
X42646Y-47607D01*
X42624Y-47574D01*
X42485Y-47544D01*
X42471Y-47558D01*
X42471Y-47529D01*
X42441Y-47391D01*
X42373Y-47361D01*
X42373Y-46324D01*
X41338Y-45289D01*
X41324Y-45303D01*
X41324Y-45275D01*
X40289Y-44240D01*
X40069Y-44366D01*
X39818Y-44920D01*
X39798Y-45529D01*
X40012Y-46099D01*
X40069Y-46185D01*
X40289Y-46310D01*
X41324Y-45275D01*
X41324Y-45303D01*
X40303Y-46324D01*
X40429Y-46544D01*
X40983Y-46795D01*
X41592Y-46815D01*
X42162Y-46601D01*
X42248Y-46544D01*
X42373Y-46324D01*
X42373Y-47361D01*
X42168Y-47269D01*
X41870Y-47262D01*
X41591Y-47369D01*
X41558Y-47391D01*
X41528Y-47529D01*
X42000Y-48001D01*
X42471Y-47529D01*
X42471Y-47558D01*
X42014Y-48015D01*
X42485Y-48487D01*
X42624Y-48457D01*
X42745Y-48184D01*
X42753Y-47886D01*
X42753Y-48800D01*
X42734Y-48800D01*
X42562Y-48834D01*
X42471Y-48894D01*
X42471Y-48501D01*
X42000Y-48029D01*
X41985Y-48044D01*
X41985Y-48015D01*
X41514Y-47544D01*
X41375Y-47574D01*
X41254Y-47846D01*
X41246Y-48145D01*
X41353Y-48423D01*
X41375Y-48457D01*
X41514Y-48487D01*
X41985Y-48015D01*
X41985Y-48044D01*
X41528Y-48501D01*
X41558Y-48640D01*
X41831Y-48761D01*
X42129Y-48769D01*
X42408Y-48662D01*
X42441Y-48640D01*
X42471Y-48501D01*
X42471Y-48894D01*
X42416Y-48931D01*
X42013Y-49334D01*
X41871Y-49334D01*
X41632Y-49432D01*
X41449Y-49615D01*
X41350Y-49854D01*
X41349Y-50112D01*
X41448Y-50351D01*
X41631Y-50534D01*
X41870Y-50634D01*
X42128Y-50634D01*
X42367Y-50535D01*
X42550Y-50352D01*
X42649Y-50114D01*
X42650Y-49970D01*
X42920Y-49700D01*
X44357Y-49700D01*
X44336Y-49713D01*
X44209Y-49903D01*
X44165Y-50127D01*
X44165Y-50872D01*
X44209Y-51096D01*
X44336Y-51286D01*
X44526Y-51412D01*
X44750Y-51457D01*
X44973Y-51412D01*
X45163Y-51286D01*
X45250Y-51156D01*
X45336Y-51286D01*
X45526Y-51412D01*
X45750Y-51457D01*
X45973Y-51412D01*
X46163Y-51286D01*
X46197Y-51235D01*
X46273Y-51345D01*
X46497Y-51490D01*
X46633Y-51528D01*
X46740Y-51451D01*
X46740Y-51850D01*
X43800Y-51850D01*
X43708Y-51888D01*
X43638Y-51958D01*
X43600Y-52050D01*
X43600Y-52149D01*
X43600Y-58349D01*
X43638Y-58441D01*
X43708Y-58511D01*
X43800Y-58550D01*
X43899Y-58550D01*
X47699Y-58550D01*
X47791Y-58511D01*
X47861Y-58441D01*
X47900Y-58349D01*
X47900Y-58795D01*
X42878Y-58795D01*
X42878Y-56832D01*
X42753Y-56499D01*
X42753Y-52386D01*
X42646Y-52107D01*
X42624Y-52074D01*
X42485Y-52044D01*
X42471Y-52058D01*
X42471Y-52029D01*
X42441Y-51891D01*
X42168Y-51769D01*
X41870Y-51762D01*
X41591Y-51869D01*
X41558Y-51891D01*
X41528Y-52029D01*
X42000Y-52501D01*
X42471Y-52029D01*
X42471Y-52058D01*
X42014Y-52515D01*
X42485Y-52987D01*
X42624Y-52957D01*
X42745Y-52684D01*
X42753Y-52386D01*
X42753Y-56499D01*
X42664Y-56262D01*
X42650Y-56241D01*
X42650Y-54355D01*
X42551Y-54116D01*
X42471Y-54036D01*
X42471Y-53001D01*
X42000Y-52529D01*
X41985Y-52544D01*
X41985Y-52515D01*
X41514Y-52044D01*
X41375Y-52074D01*
X41254Y-52346D01*
X41246Y-52645D01*
X41353Y-52923D01*
X41375Y-52957D01*
X41514Y-52987D01*
X41985Y-52515D01*
X41985Y-52544D01*
X41528Y-53001D01*
X41558Y-53140D01*
X41831Y-53261D01*
X42129Y-53269D01*
X42408Y-53162D01*
X42441Y-53140D01*
X42471Y-53001D01*
X42471Y-54036D01*
X42368Y-53933D01*
X42129Y-53834D01*
X41871Y-53834D01*
X41632Y-53932D01*
X41449Y-54115D01*
X41350Y-54354D01*
X41349Y-54612D01*
X41448Y-54851D01*
X41631Y-55034D01*
X41870Y-55134D01*
X42128Y-55134D01*
X42367Y-55035D01*
X42550Y-54852D01*
X42649Y-54614D01*
X42650Y-54355D01*
X42650Y-56241D01*
X42607Y-56177D01*
X42387Y-56051D01*
X42373Y-56065D01*
X42373Y-56037D01*
X42248Y-55817D01*
X41693Y-55566D01*
X41084Y-55546D01*
X40514Y-55760D01*
X40429Y-55817D01*
X40303Y-56037D01*
X41338Y-57072D01*
X42373Y-56037D01*
X42373Y-56065D01*
X41352Y-57086D01*
X42387Y-58121D01*
X42607Y-57996D01*
X42858Y-57441D01*
X42878Y-56832D01*
X42878Y-58795D01*
X42373Y-58795D01*
X42373Y-58135D01*
X41338Y-57100D01*
X41324Y-57114D01*
X41324Y-57086D01*
X40289Y-56051D01*
X40069Y-56177D01*
X39818Y-56731D01*
X39798Y-57340D01*
X40012Y-57910D01*
X40069Y-57996D01*
X40289Y-58121D01*
X41324Y-57086D01*
X41324Y-57114D01*
X40303Y-58135D01*
X40429Y-58355D01*
X40983Y-58606D01*
X41592Y-58626D01*
X42162Y-58412D01*
X42248Y-58355D01*
X42373Y-58135D01*
X42373Y-58795D01*
X39629Y-58795D01*
X39629Y-42490D01*
X39681Y-42568D01*
X40181Y-43068D01*
X40327Y-43165D01*
X40500Y-43200D01*
X43537Y-43200D01*
X43512Y-43204D01*
X43321Y-43332D01*
X43193Y-43524D01*
X43148Y-43750D01*
X43170Y-43860D01*
X43084Y-43825D01*
X42915Y-43824D01*
X42759Y-43889D01*
X42639Y-44008D01*
X42575Y-44165D01*
X42574Y-44334D01*
X42582Y-44351D01*
X42387Y-44240D01*
X42373Y-44254D01*
X42373Y-44226D01*
X42248Y-44006D01*
X41693Y-43755D01*
X41084Y-43735D01*
X40514Y-43949D01*
X40429Y-44006D01*
X40303Y-44226D01*
X41338Y-45261D01*
X42373Y-44226D01*
X42373Y-44254D01*
X41352Y-45275D01*
X42387Y-46310D01*
X42607Y-46185D01*
X42858Y-45630D01*
X42878Y-45021D01*
X42702Y-44554D01*
X42758Y-44610D01*
X42915Y-44674D01*
X43084Y-44675D01*
X43160Y-44643D01*
X43160Y-45139D01*
X43198Y-45231D01*
X43268Y-45301D01*
X43360Y-45340D01*
X43459Y-45340D01*
X43929Y-45340D01*
X44294Y-45705D01*
X44389Y-45767D01*
X44389Y-45767D01*
X44500Y-45790D01*
X48173Y-45790D01*
X48177Y-45800D01*
X48000Y-45800D01*
X47827Y-45834D01*
X47681Y-45931D01*
X46181Y-47431D01*
X46084Y-47577D01*
X46050Y-47750D01*
X46050Y-47840D01*
X45942Y-47821D01*
X45928Y-47835D01*
X45514Y-48250D01*
X45942Y-48678D01*
X46071Y-48655D01*
X46165Y-48749D01*
X46382Y-48839D01*
X46616Y-48840D01*
X46833Y-48750D01*
X46884Y-48700D01*
X59000Y-48700D01*
X59172Y-48665D01*
X59318Y-48568D01*
X59499Y-48386D01*
X60188Y-49074D01*
X60165Y-49074D01*
X60009Y-49139D01*
X59938Y-49210D01*
X59061Y-49210D01*
X58991Y-49139D01*
X58834Y-49075D01*
X58665Y-49074D01*
X58509Y-49139D01*
X58389Y-49258D01*
X58325Y-49415D01*
X58324Y-49584D01*
X58389Y-49740D01*
X58508Y-49860D01*
X58665Y-49924D01*
X58834Y-49925D01*
X58990Y-49860D01*
X59061Y-49790D01*
X59938Y-49790D01*
X60008Y-49860D01*
X60165Y-49924D01*
X60334Y-49925D01*
X60490Y-49860D01*
X60610Y-49741D01*
X60674Y-49584D01*
X60674Y-49561D01*
X60931Y-49818D01*
X61077Y-49915D01*
X61250Y-49950D01*
X70214Y-49950D01*
X70335Y-50000D01*
X70203Y-50054D01*
X70055Y-50202D01*
X70054Y-50203D01*
X69991Y-50139D01*
X69834Y-50075D01*
X69665Y-50074D01*
X69509Y-50139D01*
X69389Y-50258D01*
X69325Y-50415D01*
X69324Y-50514D01*
X67879Y-51960D01*
X67372Y-51960D01*
X67424Y-51834D01*
X67425Y-51665D01*
X67360Y-51509D01*
X67241Y-51389D01*
X67084Y-51325D01*
X66915Y-51324D01*
X66759Y-51389D01*
X66639Y-51508D01*
X66575Y-51665D01*
X66575Y-51710D01*
X66372Y-51710D01*
X66424Y-51584D01*
X66425Y-51415D01*
X66360Y-51259D01*
X66241Y-51139D01*
X66084Y-51075D01*
X65915Y-51074D01*
X65759Y-51139D01*
X65688Y-51210D01*
X63811Y-51210D01*
X63741Y-51139D01*
X63584Y-51075D01*
X63415Y-51074D01*
X63259Y-51139D01*
X63139Y-51258D01*
X63075Y-51415D01*
X63074Y-51584D01*
X63126Y-51710D01*
X55425Y-51710D01*
X55425Y-49415D01*
X55360Y-49259D01*
X55241Y-49139D01*
X55084Y-49075D01*
X54915Y-49074D01*
X54759Y-49139D01*
X54639Y-49258D01*
X54575Y-49415D01*
X54574Y-49514D01*
X54264Y-49825D01*
X54165Y-49824D01*
X54009Y-49889D01*
X53889Y-50008D01*
X53825Y-50165D01*
X53824Y-50334D01*
X53889Y-50490D01*
X54008Y-50610D01*
X54165Y-50674D01*
X54334Y-50675D01*
X54490Y-50610D01*
X54610Y-50491D01*
X54674Y-50334D01*
X54675Y-50235D01*
X54985Y-49924D01*
X55084Y-49925D01*
X55240Y-49860D01*
X55360Y-49741D01*
X55424Y-49584D01*
X55425Y-49415D01*
X55425Y-51710D01*
X52311Y-51710D01*
X52241Y-51639D01*
X52084Y-51575D01*
X51915Y-51574D01*
X51759Y-51639D01*
X51639Y-51758D01*
X51575Y-51915D01*
X51574Y-52084D01*
X51639Y-52240D01*
X51758Y-52360D01*
X51915Y-52424D01*
X52084Y-52425D01*
X52240Y-52360D01*
X52311Y-52290D01*
X64799Y-52290D01*
X64611Y-52477D01*
X64604Y-52475D01*
X64396Y-52474D01*
X64203Y-52554D01*
X64055Y-52702D01*
X63999Y-52835D01*
X63945Y-52703D01*
X63797Y-52555D01*
X63604Y-52475D01*
X63396Y-52474D01*
X63203Y-52554D01*
X63055Y-52702D01*
X62999Y-52835D01*
X62945Y-52703D01*
X62797Y-52555D01*
X62604Y-52475D01*
X62396Y-52474D01*
X62203Y-52554D01*
X62055Y-52702D01*
X61999Y-52835D01*
X61945Y-52703D01*
X61797Y-52555D01*
X61604Y-52475D01*
X61396Y-52474D01*
X61203Y-52554D01*
X61055Y-52702D01*
X60999Y-52835D01*
X60945Y-52703D01*
X60797Y-52555D01*
X60604Y-52475D01*
X60396Y-52474D01*
X60203Y-52554D01*
X60055Y-52702D01*
X60055Y-52702D01*
X60038Y-52658D01*
X60021Y-52633D01*
X59895Y-52618D01*
X59881Y-52632D01*
X59881Y-52604D01*
X59866Y-52478D01*
X59639Y-52378D01*
X59390Y-52372D01*
X59158Y-52461D01*
X59133Y-52478D01*
X59118Y-52604D01*
X59500Y-52985D01*
X59881Y-52604D01*
X59881Y-52632D01*
X59514Y-53000D01*
X59895Y-53381D01*
X60021Y-53366D01*
X60053Y-53293D01*
X60054Y-53297D01*
X60202Y-53444D01*
X60395Y-53524D01*
X60603Y-53525D01*
X60797Y-53445D01*
X60944Y-53297D01*
X61000Y-53164D01*
X61054Y-53297D01*
X61202Y-53444D01*
X61395Y-53524D01*
X61603Y-53525D01*
X61797Y-53445D01*
X61944Y-53297D01*
X62000Y-53164D01*
X62054Y-53297D01*
X62202Y-53444D01*
X62395Y-53524D01*
X62603Y-53525D01*
X62797Y-53445D01*
X62944Y-53297D01*
X63000Y-53164D01*
X63054Y-53297D01*
X63202Y-53444D01*
X63395Y-53524D01*
X63603Y-53525D01*
X63797Y-53445D01*
X63944Y-53297D01*
X64000Y-53164D01*
X64054Y-53297D01*
X64202Y-53444D01*
X64395Y-53524D01*
X64603Y-53525D01*
X64797Y-53445D01*
X64944Y-53297D01*
X65000Y-53164D01*
X65054Y-53297D01*
X65202Y-53444D01*
X65395Y-53524D01*
X65603Y-53525D01*
X65797Y-53445D01*
X65944Y-53297D01*
X66000Y-53164D01*
X66054Y-53297D01*
X66202Y-53444D01*
X66395Y-53524D01*
X66603Y-53525D01*
X66797Y-53445D01*
X66944Y-53297D01*
X67000Y-53164D01*
X67054Y-53297D01*
X67202Y-53444D01*
X67395Y-53524D01*
X67603Y-53525D01*
X67797Y-53445D01*
X67944Y-53297D01*
X68000Y-53164D01*
X68054Y-53297D01*
X68202Y-53444D01*
X68395Y-53524D01*
X68603Y-53525D01*
X68797Y-53445D01*
X68944Y-53297D01*
X69024Y-53104D01*
X69025Y-52896D01*
X68945Y-52703D01*
X68826Y-52583D01*
X70388Y-51022D01*
X70395Y-51024D01*
X70603Y-51025D01*
X70797Y-50945D01*
X70944Y-50797D01*
X71008Y-50644D01*
X71181Y-50818D01*
X71327Y-50915D01*
X71500Y-50950D01*
X73214Y-50950D01*
X73395Y-51024D01*
X73603Y-51025D01*
X73797Y-50945D01*
X73944Y-50797D01*
X74024Y-50604D01*
X74025Y-50396D01*
X73945Y-50203D01*
X73797Y-50055D01*
X73664Y-49999D01*
X73797Y-49945D01*
X73944Y-49797D01*
X73948Y-49790D01*
X74250Y-49790D01*
X74360Y-49767D01*
X74455Y-49705D01*
X74870Y-49290D01*
X75524Y-49290D01*
X75533Y-49311D01*
X75657Y-49435D01*
X75645Y-49440D01*
X75618Y-49458D01*
X75600Y-49586D01*
X76000Y-49985D01*
X76399Y-49586D01*
X76381Y-49458D01*
X76338Y-49439D01*
X76465Y-49311D01*
X76499Y-49230D01*
X76533Y-49311D01*
X76657Y-49435D01*
X76645Y-49440D01*
X76618Y-49458D01*
X76600Y-49586D01*
X77000Y-49985D01*
X77399Y-49586D01*
X77381Y-49458D01*
X77338Y-49439D01*
X77465Y-49311D01*
X77549Y-49109D01*
X77550Y-48891D01*
X77466Y-48688D01*
X77311Y-48534D01*
X77230Y-48500D01*
X77311Y-48466D01*
X77465Y-48311D01*
X77549Y-48109D01*
X77550Y-47891D01*
X77466Y-47688D01*
X77311Y-47534D01*
X77230Y-47500D01*
X77311Y-47466D01*
X77465Y-47311D01*
X77549Y-47109D01*
X77550Y-46891D01*
X77466Y-46688D01*
X77311Y-46534D01*
X77109Y-46450D01*
X76891Y-46449D01*
X76688Y-46533D01*
X76534Y-46688D01*
X76500Y-46769D01*
X76466Y-46688D01*
X76311Y-46534D01*
X76109Y-46450D01*
X75891Y-46449D01*
X75688Y-46533D01*
X75534Y-46688D01*
X75450Y-46890D01*
X75449Y-47108D01*
X75533Y-47311D01*
X75688Y-47465D01*
X75769Y-47499D01*
X75688Y-47533D01*
X75534Y-47688D01*
X75450Y-47890D01*
X75449Y-48108D01*
X75491Y-48210D01*
X74127Y-48210D01*
X74127Y-47390D01*
X74038Y-47158D01*
X74021Y-47133D01*
X73895Y-47118D01*
X73881Y-47132D01*
X73881Y-47104D01*
X73866Y-46978D01*
X73639Y-46878D01*
X73390Y-46872D01*
X73158Y-46961D01*
X73133Y-46978D01*
X73118Y-47104D01*
X73500Y-47485D01*
X73881Y-47104D01*
X73881Y-47132D01*
X73514Y-47500D01*
X73895Y-47881D01*
X74021Y-47866D01*
X74121Y-47639D01*
X74127Y-47390D01*
X74127Y-48210D01*
X73948Y-48210D01*
X73945Y-48203D01*
X73797Y-48055D01*
X73797Y-48055D01*
X73841Y-48038D01*
X73866Y-48021D01*
X73881Y-47895D01*
X73500Y-47514D01*
X73485Y-47528D01*
X73485Y-47500D01*
X73104Y-47118D01*
X72978Y-47133D01*
X72878Y-47360D01*
X72872Y-47609D01*
X72961Y-47841D01*
X72978Y-47866D01*
X73104Y-47881D01*
X73485Y-47500D01*
X73485Y-47528D01*
X73118Y-47895D01*
X73133Y-48021D01*
X73206Y-48053D01*
X73203Y-48054D01*
X73055Y-48202D01*
X72975Y-48395D01*
X72974Y-48603D01*
X73054Y-48797D01*
X73202Y-48944D01*
X73335Y-49000D01*
X73203Y-49054D01*
X73055Y-49202D01*
X72975Y-49395D01*
X72974Y-49603D01*
X73054Y-49797D01*
X73202Y-49944D01*
X73335Y-50000D01*
X73214Y-50050D01*
X71686Y-50050D01*
X71019Y-49383D01*
X70945Y-49203D01*
X70797Y-49055D01*
X70797Y-49055D01*
X70841Y-49038D01*
X70866Y-49021D01*
X70881Y-48895D01*
X70500Y-48514D01*
X70118Y-48895D01*
X70133Y-49021D01*
X70198Y-49050D01*
X62801Y-49050D01*
X62860Y-48991D01*
X62924Y-48834D01*
X62925Y-48735D01*
X63370Y-48290D01*
X69909Y-48290D01*
X69878Y-48360D01*
X69872Y-48609D01*
X69961Y-48841D01*
X69978Y-48866D01*
X70104Y-48881D01*
X70485Y-48500D01*
X70480Y-48494D01*
X70494Y-48480D01*
X70500Y-48485D01*
X70505Y-48480D01*
X70519Y-48494D01*
X70514Y-48500D01*
X70895Y-48881D01*
X71021Y-48866D01*
X71121Y-48639D01*
X71127Y-48409D01*
X71165Y-48424D01*
X71334Y-48425D01*
X71490Y-48360D01*
X71610Y-48241D01*
X71674Y-48084D01*
X71675Y-47915D01*
X71610Y-47759D01*
X71491Y-47639D01*
X71334Y-47575D01*
X71165Y-47574D01*
X71025Y-47633D01*
X71025Y-47175D01*
X70986Y-47083D01*
X70916Y-47013D01*
X70824Y-46975D01*
X70725Y-46975D01*
X70175Y-46975D01*
X70083Y-47013D01*
X70013Y-47083D01*
X69975Y-47175D01*
X69975Y-47274D01*
X69975Y-47710D01*
X63250Y-47710D01*
X63139Y-47732D01*
X63044Y-47794D01*
X62514Y-48325D01*
X62415Y-48324D01*
X62259Y-48389D01*
X62139Y-48508D01*
X62075Y-48665D01*
X62074Y-48834D01*
X62139Y-48990D01*
X62198Y-49050D01*
X61436Y-49050D01*
X59950Y-47563D01*
X59950Y-47285D01*
X60000Y-47164D01*
X60054Y-47297D01*
X60202Y-47444D01*
X60395Y-47524D01*
X60603Y-47525D01*
X60797Y-47445D01*
X60944Y-47297D01*
X61000Y-47164D01*
X61054Y-47297D01*
X61202Y-47444D01*
X61395Y-47524D01*
X61603Y-47525D01*
X61797Y-47445D01*
X61944Y-47297D01*
X62000Y-47164D01*
X62054Y-47297D01*
X62202Y-47444D01*
X62395Y-47524D01*
X62603Y-47525D01*
X62797Y-47445D01*
X62944Y-47297D01*
X63000Y-47164D01*
X63054Y-47297D01*
X63202Y-47444D01*
X63395Y-47524D01*
X63603Y-47525D01*
X63797Y-47445D01*
X63944Y-47297D01*
X64000Y-47164D01*
X64054Y-47297D01*
X64202Y-47444D01*
X64395Y-47524D01*
X64603Y-47525D01*
X64797Y-47445D01*
X64944Y-47297D01*
X65000Y-47164D01*
X65054Y-47297D01*
X65202Y-47444D01*
X65395Y-47524D01*
X65603Y-47525D01*
X65797Y-47445D01*
X65944Y-47297D01*
X66000Y-47164D01*
X66054Y-47297D01*
X66202Y-47444D01*
X66395Y-47524D01*
X66603Y-47525D01*
X66797Y-47445D01*
X66944Y-47297D01*
X67000Y-47164D01*
X67054Y-47297D01*
X67202Y-47444D01*
X67395Y-47524D01*
X67603Y-47525D01*
X67797Y-47445D01*
X67944Y-47297D01*
X68000Y-47164D01*
X68054Y-47297D01*
X68202Y-47444D01*
X68395Y-47524D01*
X68603Y-47525D01*
X68797Y-47445D01*
X68944Y-47297D01*
X69024Y-47104D01*
X69025Y-46896D01*
X68981Y-46790D01*
X74780Y-46790D01*
X74890Y-46767D01*
X74985Y-46705D01*
X77327Y-44362D01*
X77401Y-44393D01*
X77657Y-44393D01*
X77894Y-44295D01*
X78075Y-44114D01*
X78173Y-43878D01*
X78173Y-43622D01*
X78075Y-43385D01*
X77894Y-43204D01*
X77806Y-43168D01*
X77806Y-42387D01*
X76771Y-41352D01*
X76757Y-41366D01*
X76757Y-41338D01*
X75722Y-40303D01*
X75502Y-40429D01*
X75251Y-40983D01*
X75231Y-41592D01*
X75445Y-42162D01*
X75502Y-42248D01*
X75722Y-42373D01*
X76757Y-41338D01*
X76757Y-41366D01*
X75736Y-42387D01*
X75862Y-42607D01*
X76416Y-42858D01*
X77025Y-42878D01*
X77595Y-42664D01*
X77681Y-42607D01*
X77806Y-42387D01*
X77806Y-43168D01*
X77658Y-43106D01*
X77402Y-43106D01*
X77165Y-43204D01*
X76984Y-43385D01*
X76886Y-43621D01*
X76886Y-43877D01*
X76917Y-43952D01*
X75713Y-45156D01*
X75713Y-44213D01*
X75713Y-44073D01*
X75713Y-43847D01*
X75713Y-43652D01*
X75713Y-43426D01*
X75713Y-43286D01*
X75660Y-43158D01*
X75561Y-43059D01*
X75433Y-43006D01*
X75067Y-43006D01*
X74980Y-43094D01*
X74980Y-43740D01*
X75626Y-43740D01*
X75713Y-43652D01*
X75713Y-43847D01*
X75626Y-43760D01*
X74980Y-43760D01*
X74980Y-44406D01*
X75067Y-44493D01*
X75433Y-44493D01*
X75561Y-44440D01*
X75660Y-44341D01*
X75713Y-44213D01*
X75713Y-45156D01*
X74659Y-46210D01*
X73624Y-46210D01*
X73749Y-46084D01*
X73839Y-45867D01*
X73840Y-45633D01*
X73750Y-45416D01*
X73584Y-45250D01*
X73367Y-45160D01*
X73133Y-45159D01*
X72916Y-45249D01*
X72750Y-45415D01*
X72749Y-45415D01*
X72584Y-45250D01*
X72367Y-45160D01*
X72133Y-45159D01*
X71916Y-45249D01*
X71750Y-45415D01*
X71749Y-45415D01*
X71584Y-45250D01*
X71367Y-45160D01*
X71133Y-45159D01*
X70916Y-45249D01*
X70750Y-45415D01*
X70749Y-45415D01*
X70622Y-45287D01*
X71088Y-44821D01*
X71132Y-44839D01*
X71366Y-44840D01*
X71583Y-44750D01*
X71749Y-44584D01*
X71750Y-44584D01*
X71915Y-44749D01*
X72132Y-44839D01*
X72366Y-44840D01*
X72411Y-44821D01*
X72544Y-44955D01*
X72639Y-45017D01*
X72750Y-45040D01*
X73500Y-45040D01*
X73610Y-45017D01*
X73705Y-44955D01*
X74205Y-44455D01*
X74267Y-44360D01*
X74274Y-44328D01*
X74279Y-44341D01*
X74378Y-44440D01*
X74506Y-44493D01*
X74872Y-44493D01*
X74960Y-44406D01*
X74960Y-43760D01*
X74952Y-43760D01*
X74952Y-43740D01*
X74960Y-43740D01*
X74960Y-43094D01*
X74872Y-43006D01*
X74506Y-43006D01*
X74378Y-43059D01*
X74290Y-43148D01*
X74290Y-42750D01*
X74267Y-42639D01*
X74205Y-42544D01*
X73205Y-41544D01*
X73110Y-41482D01*
X73000Y-41460D01*
X72122Y-41460D01*
X72174Y-41334D01*
X72175Y-41165D01*
X72110Y-41009D01*
X71991Y-40889D01*
X71834Y-40825D01*
X71735Y-40824D01*
X71455Y-40544D01*
X71398Y-40506D01*
X71547Y-40445D01*
X71694Y-40297D01*
X71750Y-40164D01*
X71804Y-40297D01*
X71952Y-40444D01*
X72145Y-40524D01*
X72353Y-40525D01*
X72547Y-40445D01*
X72694Y-40297D01*
X72750Y-40164D01*
X72804Y-40297D01*
X72952Y-40444D01*
X73145Y-40524D01*
X73353Y-40525D01*
X73547Y-40445D01*
X73694Y-40297D01*
X73774Y-40104D01*
X73775Y-39896D01*
X73695Y-39703D01*
X73622Y-39629D01*
X78480Y-39629D01*
X78480Y-58795D01*
M02*
