M48
;DRILL file {kicad (2014-jan-25)-product} date Sun 10 Aug 2014 05:09:50 PM PDT
;FORMAT={2:4/ absolute / inch / suppress leading zeros}
FMAT,2
INCH,TZ
T1C0.025
T2C0.030
T3C0.032
T4C0.032
T5C0.039
T6C0.040
T7C0.047
T8C0.050
T9C0.125
T10C0.150
%
G90
G05
M72
T1
X43000Y-44250
X43750Y-42750
X46250Y-42750
X52000Y-52000
X54250Y-50250
X55000Y-49500
X55000Y-54500
X56000Y-45750
X56000Y-55000
X58750Y-49500
X60250Y-49500
X62500Y-48750
X63000Y-44250
X63500Y-51500
X64250Y-42250
X66000Y-51500
X67000Y-51750
X68750Y-44750
X69750Y-50500
X70250Y-41000
X71250Y-48000
X71500Y-55250
X71750Y-41250
T2
X47000Y-43750
X47000Y-44750
T3
X58000Y-54500
X58500Y-45750
X59000Y-54500
X59000Y-57000
X59000Y-58000
X59500Y-45750
X61000Y-55039
X61000Y-56961
X62000Y-40750
X63000Y-40750
X63000Y-54250
X63000Y-55250
X64750Y-44750
X64750Y-45750
X65250Y-41000
X65250Y-42000
X71500Y-52000
X72500Y-52000
T4
X49500Y-47000
X49500Y-53000
X50500Y-47000
X50500Y-53000
X51500Y-47000
X51500Y-53000
X52500Y-47000
X52500Y-53000
X53500Y-47000
X53500Y-53000
X54500Y-47000
X54500Y-53000
X55500Y-47000
X55500Y-53000
X56500Y-47000
X56500Y-53000
X57500Y-47000
X57500Y-53000
X58500Y-47000
X58500Y-53000
X59500Y-47000
X59500Y-53000
X60500Y-47000
X60500Y-53000
X61500Y-47000
X61500Y-53000
X62500Y-47000
X62500Y-53000
X63500Y-47000
X63500Y-53000
X64500Y-47000
X64500Y-53000
X65500Y-47000
X65500Y-53000
X66500Y-47000
X66500Y-53000
X67250Y-40000
X67250Y-43000
X67500Y-47000
X67500Y-53000
X68250Y-40000
X68250Y-43000
X68500Y-47000
X68500Y-53000
X69250Y-40000
X69250Y-43000
X70250Y-40000
X70250Y-43000
X70500Y-47500
X70500Y-48500
X70500Y-49500
X70500Y-50500
X71250Y-40000
X71250Y-43000
X72250Y-40000
X72250Y-43000
X73250Y-40000
X73250Y-43000
X73500Y-47500
X73500Y-48500
X73500Y-49500
X73500Y-50500
T5
X44750Y-50500
X45750Y-50500
X46750Y-50500
X48750Y-43500
X48750Y-45500
X52750Y-43500
X52750Y-45500
X61500Y-42000
X61500Y-46000
X63000Y-42000
X70000Y-53750
X74000Y-53750
T6
X40750Y-40750
X40750Y-41750
X41750Y-40750
X41750Y-41750
X42000Y-48016
X42000Y-49984
X42000Y-52516
X42000Y-54484
X42750Y-40750
X42750Y-41750
X43750Y-40750
X43750Y-41750
X43750Y-43750
X43750Y-44750
X44500Y-48250
X44750Y-40750
X44750Y-41750
X44750Y-43750
X44750Y-44750
X45500Y-48250
X45750Y-40750
X45750Y-41750
X46500Y-48250
X46750Y-40750
X46750Y-41750
X47750Y-40750
X47750Y-41750
X48750Y-40750
X48750Y-41750
X49000Y-58000
X49750Y-40750
X49750Y-41750
X50000Y-58000
X50750Y-40750
X50750Y-41750
X51000Y-58000
X51750Y-40750
X51750Y-41750
X52000Y-58000
X52750Y-40750
X52750Y-41750
X53000Y-58000
X53750Y-40750
X53750Y-41750
X54000Y-44750
X54000Y-58000
X54750Y-40750
X54750Y-41750
X54750Y-43250
X55000Y-44750
X55750Y-40750
X55750Y-41750
X55750Y-43250
X56000Y-44750
X56000Y-56000
X56000Y-57000
X56000Y-58000
X56750Y-40750
X56750Y-41750
X56750Y-43250
X57000Y-44750
X57000Y-56000
X57000Y-57000
X57000Y-58000
X57750Y-40750
X57750Y-41750
X57750Y-43250
X58750Y-40750
X58750Y-41750
X58750Y-43250
X59750Y-40750
X59750Y-41750
X59750Y-43250
X66250Y-44250
X66250Y-45750
X66250Y-56250
X66250Y-57250
X67250Y-44250
X67250Y-45750
X67250Y-56250
X67250Y-57250
X68250Y-44250
X68250Y-45750
X68250Y-56250
X68250Y-57250
X69250Y-44250
X69250Y-45750
X69250Y-56250
X69250Y-57250
X70250Y-44250
X70250Y-45750
X70250Y-56250
X70250Y-57250
X71250Y-44250
X71250Y-45750
X72250Y-44250
X72250Y-45750
X73250Y-44250
X73250Y-45750
X75500Y-54750
X76000Y-47000
X76000Y-48000
X76000Y-49000
X76000Y-50000
X76000Y-51000
X76500Y-54750
X77000Y-47000
X77000Y-48000
X77000Y-49000
X77000Y-50000
X77000Y-51000
X77500Y-54750
T7
X74970Y-43750
X77530Y-43750
T8
X63000Y-46000
T9
X41339Y-45276
X41339Y-57087
X76772Y-41339
X76772Y-57087
T10
X45750Y-57100
T0
M30
