%FSLAX34Y34*%
G04 Gerber Fmt 3.4, Leading zero omitted, Abs format*
G04 (created by PCBNEW (2014-jan-25)-product) date Sun 10 Aug 2014 05:09:58 PM PDT*
%MOIN*%
G01*
G70*
G90*
G04 APERTURE LIST*
%ADD10C,0.003937*%
%ADD11C,0.008000*%
%ADD12C,0.000100*%
G04 APERTURE END LIST*
G54D10*
G54D11*
X55305Y-51940D02*
X55305Y-51140D01*
X54962Y-51940D02*
X54962Y-51521D01*
X55000Y-51445D01*
X55077Y-51407D01*
X55191Y-51407D01*
X55267Y-51445D01*
X55305Y-51483D01*
X54238Y-51940D02*
X54238Y-51521D01*
X54277Y-51445D01*
X54353Y-51407D01*
X54505Y-51407D01*
X54581Y-51445D01*
X54238Y-51902D02*
X54315Y-51940D01*
X54505Y-51940D01*
X54581Y-51902D01*
X54619Y-51826D01*
X54619Y-51750D01*
X54581Y-51673D01*
X54505Y-51635D01*
X54315Y-51635D01*
X54238Y-51597D01*
X53858Y-51940D02*
X53858Y-51407D01*
X53858Y-51559D02*
X53819Y-51483D01*
X53781Y-51445D01*
X53705Y-51407D01*
X53629Y-51407D01*
X53019Y-51940D02*
X53019Y-51140D01*
X53019Y-51902D02*
X53096Y-51940D01*
X53248Y-51940D01*
X53324Y-51902D01*
X53362Y-51864D01*
X53400Y-51788D01*
X53400Y-51559D01*
X53362Y-51483D01*
X53324Y-51445D01*
X53248Y-51407D01*
X53096Y-51407D01*
X53019Y-51445D01*
X52715Y-51407D02*
X52562Y-51940D01*
X52410Y-51559D01*
X52258Y-51940D01*
X52105Y-51407D01*
X51458Y-51940D02*
X51458Y-51521D01*
X51496Y-51445D01*
X51572Y-51407D01*
X51724Y-51407D01*
X51800Y-51445D01*
X51458Y-51902D02*
X51534Y-51940D01*
X51724Y-51940D01*
X51800Y-51902D01*
X51838Y-51826D01*
X51838Y-51750D01*
X51800Y-51673D01*
X51724Y-51635D01*
X51534Y-51635D01*
X51458Y-51597D01*
X51077Y-51940D02*
X51077Y-51407D01*
X51077Y-51559D02*
X51038Y-51483D01*
X51000Y-51445D01*
X50924Y-51407D01*
X50848Y-51407D01*
X50277Y-51902D02*
X50353Y-51940D01*
X50505Y-51940D01*
X50581Y-51902D01*
X50619Y-51826D01*
X50619Y-51521D01*
X50581Y-51445D01*
X50505Y-51407D01*
X50353Y-51407D01*
X50277Y-51445D01*
X50238Y-51521D01*
X50238Y-51597D01*
X50619Y-51673D01*
X55909Y-50861D02*
X55985Y-50823D01*
X56023Y-50785D01*
X56061Y-50709D01*
X56061Y-50480D01*
X56023Y-50404D01*
X55985Y-50366D01*
X55909Y-50328D01*
X55795Y-50328D01*
X55719Y-50366D01*
X55680Y-50404D01*
X55642Y-50480D01*
X55642Y-50709D01*
X55680Y-50785D01*
X55719Y-50823D01*
X55795Y-50861D01*
X55909Y-50861D01*
X55299Y-50328D02*
X55299Y-51128D01*
X55299Y-50366D02*
X55223Y-50328D01*
X55071Y-50328D01*
X54995Y-50366D01*
X54957Y-50404D01*
X54919Y-50480D01*
X54919Y-50709D01*
X54957Y-50785D01*
X54995Y-50823D01*
X55071Y-50861D01*
X55223Y-50861D01*
X55299Y-50823D01*
X54271Y-50823D02*
X54347Y-50861D01*
X54499Y-50861D01*
X54576Y-50823D01*
X54614Y-50747D01*
X54614Y-50442D01*
X54576Y-50366D01*
X54499Y-50328D01*
X54347Y-50328D01*
X54271Y-50366D01*
X54233Y-50442D01*
X54233Y-50519D01*
X54614Y-50595D01*
X53890Y-50328D02*
X53890Y-50861D01*
X53890Y-50404D02*
X53852Y-50366D01*
X53776Y-50328D01*
X53661Y-50328D01*
X53585Y-50366D01*
X53547Y-50442D01*
X53547Y-50861D01*
X52595Y-50823D02*
X52519Y-50861D01*
X52366Y-50861D01*
X52290Y-50823D01*
X52252Y-50747D01*
X52252Y-50709D01*
X52290Y-50633D01*
X52366Y-50595D01*
X52480Y-50595D01*
X52557Y-50557D01*
X52595Y-50480D01*
X52595Y-50442D01*
X52557Y-50366D01*
X52480Y-50328D01*
X52366Y-50328D01*
X52290Y-50366D01*
X51795Y-50861D02*
X51871Y-50823D01*
X51909Y-50785D01*
X51947Y-50709D01*
X51947Y-50480D01*
X51909Y-50404D01*
X51871Y-50366D01*
X51795Y-50328D01*
X51680Y-50328D01*
X51604Y-50366D01*
X51566Y-50404D01*
X51528Y-50480D01*
X51528Y-50709D01*
X51566Y-50785D01*
X51604Y-50823D01*
X51680Y-50861D01*
X51795Y-50861D01*
X50842Y-50328D02*
X50842Y-50861D01*
X51185Y-50328D02*
X51185Y-50747D01*
X51147Y-50823D01*
X51071Y-50861D01*
X50957Y-50861D01*
X50880Y-50823D01*
X50842Y-50785D01*
X50461Y-50861D02*
X50461Y-50328D01*
X50461Y-50480D02*
X50423Y-50404D01*
X50385Y-50366D01*
X50309Y-50328D01*
X50233Y-50328D01*
X49623Y-50823D02*
X49700Y-50861D01*
X49852Y-50861D01*
X49928Y-50823D01*
X49966Y-50785D01*
X50004Y-50709D01*
X50004Y-50480D01*
X49966Y-50404D01*
X49928Y-50366D01*
X49852Y-50328D01*
X49700Y-50328D01*
X49623Y-50366D01*
X48976Y-50823D02*
X49052Y-50861D01*
X49204Y-50861D01*
X49280Y-50823D01*
X49319Y-50747D01*
X49319Y-50442D01*
X49280Y-50366D01*
X49204Y-50328D01*
X49052Y-50328D01*
X48976Y-50366D01*
X48938Y-50442D01*
X48938Y-50519D01*
X49319Y-50595D01*
G54D12*
G36*
X52441Y-50067D02*
X52452Y-50062D01*
X52475Y-50047D01*
X52508Y-50025D01*
X52548Y-49998D01*
X52587Y-49972D01*
X52620Y-49950D01*
X52643Y-49935D01*
X52652Y-49930D01*
X52657Y-49932D01*
X52676Y-49941D01*
X52704Y-49955D01*
X52719Y-49963D01*
X52745Y-49974D01*
X52757Y-49976D01*
X52759Y-49973D01*
X52768Y-49954D01*
X52783Y-49921D01*
X52802Y-49878D01*
X52823Y-49827D01*
X52846Y-49772D01*
X52870Y-49716D01*
X52892Y-49663D01*
X52911Y-49615D01*
X52927Y-49576D01*
X52937Y-49549D01*
X52941Y-49537D01*
X52940Y-49535D01*
X52927Y-49523D01*
X52905Y-49506D01*
X52858Y-49468D01*
X52811Y-49410D01*
X52783Y-49343D01*
X52774Y-49270D01*
X52782Y-49202D01*
X52808Y-49137D01*
X52854Y-49078D01*
X52910Y-49034D01*
X52974Y-49006D01*
X53047Y-48997D01*
X53116Y-49005D01*
X53183Y-49031D01*
X53242Y-49076D01*
X53267Y-49105D01*
X53302Y-49165D01*
X53321Y-49228D01*
X53323Y-49245D01*
X53320Y-49315D01*
X53300Y-49382D01*
X53262Y-49442D01*
X53211Y-49492D01*
X53205Y-49496D01*
X53181Y-49514D01*
X53165Y-49526D01*
X53152Y-49537D01*
X53242Y-49752D01*
X53256Y-49786D01*
X53280Y-49845D01*
X53302Y-49896D01*
X53319Y-49936D01*
X53331Y-49963D01*
X53336Y-49974D01*
X53337Y-49974D01*
X53345Y-49976D01*
X53361Y-49970D01*
X53391Y-49955D01*
X53411Y-49945D01*
X53434Y-49934D01*
X53444Y-49930D01*
X53453Y-49935D01*
X53475Y-49949D01*
X53507Y-49970D01*
X53546Y-49996D01*
X53582Y-50021D01*
X53616Y-50044D01*
X53641Y-50059D01*
X53652Y-50066D01*
X53654Y-50066D01*
X53665Y-50060D01*
X53684Y-50044D01*
X53714Y-50016D01*
X53755Y-49975D01*
X53761Y-49969D01*
X53795Y-49934D01*
X53823Y-49905D01*
X53842Y-49884D01*
X53848Y-49875D01*
X53848Y-49875D01*
X53842Y-49863D01*
X53827Y-49839D01*
X53804Y-49804D01*
X53777Y-49764D01*
X53706Y-49661D01*
X53745Y-49563D01*
X53757Y-49533D01*
X53772Y-49497D01*
X53784Y-49471D01*
X53790Y-49460D01*
X53800Y-49456D01*
X53827Y-49449D01*
X53866Y-49441D01*
X53912Y-49433D01*
X53956Y-49425D01*
X53996Y-49417D01*
X54025Y-49412D01*
X54038Y-49409D01*
X54041Y-49407D01*
X54043Y-49401D01*
X54045Y-49387D01*
X54046Y-49363D01*
X54046Y-49325D01*
X54046Y-49270D01*
X54046Y-49264D01*
X54046Y-49211D01*
X54045Y-49169D01*
X54044Y-49143D01*
X54042Y-49132D01*
X54042Y-49132D01*
X54029Y-49129D01*
X54001Y-49123D01*
X53961Y-49115D01*
X53914Y-49106D01*
X53911Y-49105D01*
X53864Y-49096D01*
X53824Y-49088D01*
X53796Y-49081D01*
X53784Y-49078D01*
X53782Y-49074D01*
X53772Y-49056D01*
X53759Y-49027D01*
X53743Y-48991D01*
X53728Y-48954D01*
X53714Y-48920D01*
X53705Y-48895D01*
X53703Y-48884D01*
X53703Y-48884D01*
X53710Y-48872D01*
X53726Y-48848D01*
X53749Y-48814D01*
X53777Y-48774D01*
X53779Y-48771D01*
X53806Y-48731D01*
X53828Y-48697D01*
X53843Y-48673D01*
X53848Y-48662D01*
X53848Y-48661D01*
X53839Y-48649D01*
X53819Y-48627D01*
X53790Y-48596D01*
X53755Y-48561D01*
X53744Y-48550D01*
X53705Y-48512D01*
X53678Y-48487D01*
X53661Y-48474D01*
X53653Y-48471D01*
X53653Y-48471D01*
X53641Y-48478D01*
X53615Y-48495D01*
X53581Y-48518D01*
X53541Y-48546D01*
X53538Y-48548D01*
X53498Y-48575D01*
X53464Y-48597D01*
X53441Y-48613D01*
X53430Y-48619D01*
X53429Y-48619D01*
X53412Y-48614D01*
X53384Y-48604D01*
X53349Y-48591D01*
X53312Y-48576D01*
X53278Y-48562D01*
X53253Y-48550D01*
X53241Y-48544D01*
X53241Y-48543D01*
X53237Y-48529D01*
X53230Y-48499D01*
X53221Y-48458D01*
X53212Y-48409D01*
X53211Y-48401D01*
X53202Y-48353D01*
X53194Y-48314D01*
X53188Y-48287D01*
X53186Y-48275D01*
X53179Y-48274D01*
X53155Y-48272D01*
X53120Y-48271D01*
X53077Y-48271D01*
X53032Y-48271D01*
X52988Y-48272D01*
X52950Y-48273D01*
X52923Y-48275D01*
X52912Y-48277D01*
X52912Y-48278D01*
X52907Y-48293D01*
X52901Y-48323D01*
X52892Y-48364D01*
X52883Y-48413D01*
X52881Y-48422D01*
X52872Y-48469D01*
X52864Y-48508D01*
X52859Y-48535D01*
X52856Y-48546D01*
X52851Y-48548D01*
X52832Y-48557D01*
X52800Y-48570D01*
X52760Y-48586D01*
X52669Y-48623D01*
X52557Y-48546D01*
X52546Y-48539D01*
X52506Y-48511D01*
X52473Y-48489D01*
X52450Y-48474D01*
X52440Y-48469D01*
X52439Y-48469D01*
X52428Y-48479D01*
X52406Y-48500D01*
X52376Y-48530D01*
X52340Y-48565D01*
X52314Y-48591D01*
X52283Y-48622D01*
X52264Y-48644D01*
X52253Y-48657D01*
X52249Y-48665D01*
X52250Y-48671D01*
X52257Y-48682D01*
X52274Y-48707D01*
X52297Y-48741D01*
X52324Y-48781D01*
X52347Y-48814D01*
X52371Y-48852D01*
X52387Y-48879D01*
X52392Y-48892D01*
X52391Y-48897D01*
X52383Y-48919D01*
X52370Y-48952D01*
X52353Y-48992D01*
X52314Y-49081D01*
X52256Y-49092D01*
X52220Y-49099D01*
X52171Y-49108D01*
X52124Y-49117D01*
X52050Y-49132D01*
X52047Y-49402D01*
X52059Y-49407D01*
X52070Y-49410D01*
X52097Y-49416D01*
X52136Y-49424D01*
X52182Y-49432D01*
X52221Y-49440D01*
X52261Y-49447D01*
X52289Y-49453D01*
X52302Y-49455D01*
X52305Y-49460D01*
X52315Y-49479D01*
X52329Y-49509D01*
X52345Y-49546D01*
X52360Y-49584D01*
X52374Y-49619D01*
X52384Y-49645D01*
X52388Y-49659D01*
X52382Y-49670D01*
X52367Y-49693D01*
X52345Y-49726D01*
X52319Y-49765D01*
X52292Y-49804D01*
X52269Y-49838D01*
X52253Y-49862D01*
X52247Y-49873D01*
X52250Y-49881D01*
X52266Y-49900D01*
X52295Y-49930D01*
X52339Y-49974D01*
X52347Y-49981D01*
X52382Y-50015D01*
X52411Y-50042D01*
X52432Y-50060D01*
X52441Y-50067D01*
X52441Y-50067D01*
G37*
X52441Y-50067D02*
X52452Y-50062D01*
X52475Y-50047D01*
X52508Y-50025D01*
X52548Y-49998D01*
X52587Y-49972D01*
X52620Y-49950D01*
X52643Y-49935D01*
X52652Y-49930D01*
X52657Y-49932D01*
X52676Y-49941D01*
X52704Y-49955D01*
X52719Y-49963D01*
X52745Y-49974D01*
X52757Y-49976D01*
X52759Y-49973D01*
X52768Y-49954D01*
X52783Y-49921D01*
X52802Y-49878D01*
X52823Y-49827D01*
X52846Y-49772D01*
X52870Y-49716D01*
X52892Y-49663D01*
X52911Y-49615D01*
X52927Y-49576D01*
X52937Y-49549D01*
X52941Y-49537D01*
X52940Y-49535D01*
X52927Y-49523D01*
X52905Y-49506D01*
X52858Y-49468D01*
X52811Y-49410D01*
X52783Y-49343D01*
X52774Y-49270D01*
X52782Y-49202D01*
X52808Y-49137D01*
X52854Y-49078D01*
X52910Y-49034D01*
X52974Y-49006D01*
X53047Y-48997D01*
X53116Y-49005D01*
X53183Y-49031D01*
X53242Y-49076D01*
X53267Y-49105D01*
X53302Y-49165D01*
X53321Y-49228D01*
X53323Y-49245D01*
X53320Y-49315D01*
X53300Y-49382D01*
X53262Y-49442D01*
X53211Y-49492D01*
X53205Y-49496D01*
X53181Y-49514D01*
X53165Y-49526D01*
X53152Y-49537D01*
X53242Y-49752D01*
X53256Y-49786D01*
X53280Y-49845D01*
X53302Y-49896D01*
X53319Y-49936D01*
X53331Y-49963D01*
X53336Y-49974D01*
X53337Y-49974D01*
X53345Y-49976D01*
X53361Y-49970D01*
X53391Y-49955D01*
X53411Y-49945D01*
X53434Y-49934D01*
X53444Y-49930D01*
X53453Y-49935D01*
X53475Y-49949D01*
X53507Y-49970D01*
X53546Y-49996D01*
X53582Y-50021D01*
X53616Y-50044D01*
X53641Y-50059D01*
X53652Y-50066D01*
X53654Y-50066D01*
X53665Y-50060D01*
X53684Y-50044D01*
X53714Y-50016D01*
X53755Y-49975D01*
X53761Y-49969D01*
X53795Y-49934D01*
X53823Y-49905D01*
X53842Y-49884D01*
X53848Y-49875D01*
X53848Y-49875D01*
X53842Y-49863D01*
X53827Y-49839D01*
X53804Y-49804D01*
X53777Y-49764D01*
X53706Y-49661D01*
X53745Y-49563D01*
X53757Y-49533D01*
X53772Y-49497D01*
X53784Y-49471D01*
X53790Y-49460D01*
X53800Y-49456D01*
X53827Y-49449D01*
X53866Y-49441D01*
X53912Y-49433D01*
X53956Y-49425D01*
X53996Y-49417D01*
X54025Y-49412D01*
X54038Y-49409D01*
X54041Y-49407D01*
X54043Y-49401D01*
X54045Y-49387D01*
X54046Y-49363D01*
X54046Y-49325D01*
X54046Y-49270D01*
X54046Y-49264D01*
X54046Y-49211D01*
X54045Y-49169D01*
X54044Y-49143D01*
X54042Y-49132D01*
X54042Y-49132D01*
X54029Y-49129D01*
X54001Y-49123D01*
X53961Y-49115D01*
X53914Y-49106D01*
X53911Y-49105D01*
X53864Y-49096D01*
X53824Y-49088D01*
X53796Y-49081D01*
X53784Y-49078D01*
X53782Y-49074D01*
X53772Y-49056D01*
X53759Y-49027D01*
X53743Y-48991D01*
X53728Y-48954D01*
X53714Y-48920D01*
X53705Y-48895D01*
X53703Y-48884D01*
X53703Y-48884D01*
X53710Y-48872D01*
X53726Y-48848D01*
X53749Y-48814D01*
X53777Y-48774D01*
X53779Y-48771D01*
X53806Y-48731D01*
X53828Y-48697D01*
X53843Y-48673D01*
X53848Y-48662D01*
X53848Y-48661D01*
X53839Y-48649D01*
X53819Y-48627D01*
X53790Y-48596D01*
X53755Y-48561D01*
X53744Y-48550D01*
X53705Y-48512D01*
X53678Y-48487D01*
X53661Y-48474D01*
X53653Y-48471D01*
X53653Y-48471D01*
X53641Y-48478D01*
X53615Y-48495D01*
X53581Y-48518D01*
X53541Y-48546D01*
X53538Y-48548D01*
X53498Y-48575D01*
X53464Y-48597D01*
X53441Y-48613D01*
X53430Y-48619D01*
X53429Y-48619D01*
X53412Y-48614D01*
X53384Y-48604D01*
X53349Y-48591D01*
X53312Y-48576D01*
X53278Y-48562D01*
X53253Y-48550D01*
X53241Y-48544D01*
X53241Y-48543D01*
X53237Y-48529D01*
X53230Y-48499D01*
X53221Y-48458D01*
X53212Y-48409D01*
X53211Y-48401D01*
X53202Y-48353D01*
X53194Y-48314D01*
X53188Y-48287D01*
X53186Y-48275D01*
X53179Y-48274D01*
X53155Y-48272D01*
X53120Y-48271D01*
X53077Y-48271D01*
X53032Y-48271D01*
X52988Y-48272D01*
X52950Y-48273D01*
X52923Y-48275D01*
X52912Y-48277D01*
X52912Y-48278D01*
X52907Y-48293D01*
X52901Y-48323D01*
X52892Y-48364D01*
X52883Y-48413D01*
X52881Y-48422D01*
X52872Y-48469D01*
X52864Y-48508D01*
X52859Y-48535D01*
X52856Y-48546D01*
X52851Y-48548D01*
X52832Y-48557D01*
X52800Y-48570D01*
X52760Y-48586D01*
X52669Y-48623D01*
X52557Y-48546D01*
X52546Y-48539D01*
X52506Y-48511D01*
X52473Y-48489D01*
X52450Y-48474D01*
X52440Y-48469D01*
X52439Y-48469D01*
X52428Y-48479D01*
X52406Y-48500D01*
X52376Y-48530D01*
X52340Y-48565D01*
X52314Y-48591D01*
X52283Y-48622D01*
X52264Y-48644D01*
X52253Y-48657D01*
X52249Y-48665D01*
X52250Y-48671D01*
X52257Y-48682D01*
X52274Y-48707D01*
X52297Y-48741D01*
X52324Y-48781D01*
X52347Y-48814D01*
X52371Y-48852D01*
X52387Y-48879D01*
X52392Y-48892D01*
X52391Y-48897D01*
X52383Y-48919D01*
X52370Y-48952D01*
X52353Y-48992D01*
X52314Y-49081D01*
X52256Y-49092D01*
X52220Y-49099D01*
X52171Y-49108D01*
X52124Y-49117D01*
X52050Y-49132D01*
X52047Y-49402D01*
X52059Y-49407D01*
X52070Y-49410D01*
X52097Y-49416D01*
X52136Y-49424D01*
X52182Y-49432D01*
X52221Y-49440D01*
X52261Y-49447D01*
X52289Y-49453D01*
X52302Y-49455D01*
X52305Y-49460D01*
X52315Y-49479D01*
X52329Y-49509D01*
X52345Y-49546D01*
X52360Y-49584D01*
X52374Y-49619D01*
X52384Y-49645D01*
X52388Y-49659D01*
X52382Y-49670D01*
X52367Y-49693D01*
X52345Y-49726D01*
X52319Y-49765D01*
X52292Y-49804D01*
X52269Y-49838D01*
X52253Y-49862D01*
X52247Y-49873D01*
X52250Y-49881D01*
X52266Y-49900D01*
X52295Y-49930D01*
X52339Y-49974D01*
X52347Y-49981D01*
X52382Y-50015D01*
X52411Y-50042D01*
X52432Y-50060D01*
X52441Y-50067D01*
M02*
