%FSLAX34Y34*%
G04 Gerber Fmt 3.4, Leading zero omitted, Abs format*
G04 (created by PCBNEW (2014-jan-25)-product) date Sun 10 Aug 2014 05:09:58 PM PDT*
%MOIN*%
G01*
G70*
G90*
G04 APERTURE LIST*
%ADD10C,0.003937*%
%ADD11C,0.059100*%
%ADD12C,0.078700*%
%ADD13R,0.078700X0.078700*%
%ADD14C,0.060000*%
%ADD15C,0.236220*%
%ADD16R,0.068000X0.080000*%
%ADD17O,0.068000X0.080000*%
%ADD18R,0.068000X0.068000*%
%ADD19O,0.068000X0.068000*%
%ADD20O,0.066900X0.137800*%
%ADD21R,0.380000X0.620000*%
%ADD22R,0.055000X0.055000*%
%ADD23C,0.055000*%
%ADD24R,0.060000X0.060000*%
%ADD25C,0.080000*%
%ADD26C,0.068000*%
G04 APERTURE END LIST*
G54D10*
G54D11*
X59000Y-57000D03*
X59000Y-58000D03*
X63000Y-55250D03*
X63000Y-54250D03*
X59500Y-45750D03*
X58500Y-45750D03*
X58000Y-54500D03*
X59000Y-54500D03*
X72500Y-52000D03*
X71500Y-52000D03*
X64750Y-44750D03*
X64750Y-45750D03*
X65250Y-41000D03*
X65250Y-42000D03*
G54D12*
X63000Y-46000D03*
G54D13*
X63000Y-42000D03*
G54D14*
X47000Y-43750D03*
X47000Y-44750D03*
G54D15*
X41338Y-45275D03*
X76771Y-41338D03*
X41338Y-57086D03*
X76771Y-57086D03*
G54D16*
X75500Y-54750D03*
G54D17*
X76500Y-54750D03*
X77500Y-54750D03*
G54D18*
X43750Y-44750D03*
G54D19*
X43750Y-43750D03*
X44750Y-44750D03*
X44750Y-43750D03*
G54D18*
X57000Y-58000D03*
G54D19*
X56000Y-58000D03*
X57000Y-57000D03*
X56000Y-57000D03*
X57000Y-56000D03*
X56000Y-56000D03*
G54D20*
X45750Y-50500D03*
X46750Y-50500D03*
X44750Y-50500D03*
G54D21*
X45750Y-55200D03*
G54D12*
X70000Y-53750D03*
X74000Y-53750D03*
X61500Y-46000D03*
X61500Y-42000D03*
X48750Y-43500D03*
X52750Y-43500D03*
X48750Y-45500D03*
X52750Y-45500D03*
G54D22*
X67250Y-43000D03*
G54D23*
X68250Y-43000D03*
X69250Y-43000D03*
X70250Y-43000D03*
X71250Y-43000D03*
X72250Y-43000D03*
X73250Y-43000D03*
X73250Y-40000D03*
X72250Y-40000D03*
X71250Y-40000D03*
X70250Y-40000D03*
X69250Y-40000D03*
X68250Y-40000D03*
X67250Y-40000D03*
G54D22*
X70500Y-47500D03*
G54D23*
X70500Y-48500D03*
X70500Y-49500D03*
X70500Y-50500D03*
X73500Y-50500D03*
X73500Y-49500D03*
X73500Y-48500D03*
X73500Y-47500D03*
G54D11*
X61000Y-56961D03*
X61000Y-55039D03*
G54D13*
X74970Y-43750D03*
G54D12*
X77530Y-43750D03*
G54D24*
X66250Y-57250D03*
G54D14*
X66250Y-56250D03*
X67250Y-57250D03*
X67250Y-56250D03*
X68250Y-57250D03*
X68250Y-56250D03*
X69250Y-57250D03*
X69250Y-56250D03*
X70250Y-57250D03*
X70250Y-56250D03*
G54D22*
X49500Y-53000D03*
G54D23*
X50500Y-53000D03*
X51500Y-53000D03*
X52500Y-53000D03*
X53500Y-53000D03*
X54500Y-53000D03*
X55500Y-53000D03*
X56500Y-53000D03*
X57500Y-53000D03*
X58500Y-53000D03*
X59500Y-53000D03*
X60500Y-53000D03*
X61500Y-53000D03*
X62500Y-53000D03*
X63500Y-53000D03*
X64500Y-53000D03*
X65500Y-53000D03*
X66500Y-53000D03*
X67500Y-53000D03*
X68500Y-53000D03*
X68500Y-47000D03*
X67500Y-47000D03*
X66500Y-47000D03*
X65500Y-47000D03*
X64500Y-47000D03*
X63500Y-47000D03*
X62500Y-47000D03*
X61500Y-47000D03*
X60500Y-47000D03*
X59500Y-47000D03*
X58500Y-47000D03*
X57500Y-47000D03*
X56500Y-47000D03*
X55500Y-47000D03*
X54500Y-47000D03*
X53500Y-47000D03*
X52500Y-47000D03*
X51500Y-47000D03*
X50500Y-47000D03*
X49500Y-47000D03*
G54D11*
X62000Y-40750D03*
X63000Y-40750D03*
G54D25*
X42000Y-49984D03*
X42000Y-48015D03*
X42000Y-54484D03*
X42000Y-52515D03*
G54D24*
X77000Y-51000D03*
G54D14*
X76000Y-51000D03*
X77000Y-50000D03*
X76000Y-50000D03*
X77000Y-49000D03*
X76000Y-49000D03*
X77000Y-48000D03*
X76000Y-48000D03*
X77000Y-47000D03*
X76000Y-47000D03*
G54D18*
X54750Y-43250D03*
G54D26*
X55750Y-43250D03*
X56750Y-43250D03*
X57750Y-43250D03*
X58750Y-43250D03*
X59750Y-43250D03*
G54D18*
X49000Y-58000D03*
G54D26*
X50000Y-58000D03*
X51000Y-58000D03*
X52000Y-58000D03*
X53000Y-58000D03*
X54000Y-58000D03*
G54D18*
X44500Y-48250D03*
G54D26*
X45500Y-48250D03*
X46500Y-48250D03*
G54D18*
X40750Y-41750D03*
G54D19*
X40750Y-40750D03*
X41750Y-41750D03*
X41750Y-40750D03*
X42750Y-41750D03*
X42750Y-40750D03*
X43750Y-41750D03*
X43750Y-40750D03*
X44750Y-41750D03*
X44750Y-40750D03*
X45750Y-41750D03*
X45750Y-40750D03*
X46750Y-41750D03*
X46750Y-40750D03*
X47750Y-41750D03*
X47750Y-40750D03*
X48750Y-41750D03*
X48750Y-40750D03*
X49750Y-41750D03*
X49750Y-40750D03*
X50750Y-41750D03*
X50750Y-40750D03*
X51750Y-41750D03*
X51750Y-40750D03*
X52750Y-41750D03*
X52750Y-40750D03*
X53750Y-41750D03*
X53750Y-40750D03*
X54750Y-41750D03*
X54750Y-40750D03*
X55750Y-41750D03*
X55750Y-40750D03*
X56750Y-41750D03*
X56750Y-40750D03*
X57750Y-41750D03*
X57750Y-40750D03*
X58750Y-41750D03*
X58750Y-40750D03*
X59750Y-41750D03*
X59750Y-40750D03*
G54D18*
X54000Y-44750D03*
G54D26*
X55000Y-44750D03*
X56000Y-44750D03*
X57000Y-44750D03*
G54D18*
X66250Y-44250D03*
G54D26*
X67250Y-44250D03*
X68250Y-44250D03*
X69250Y-44250D03*
X70250Y-44250D03*
X71250Y-44250D03*
X72250Y-44250D03*
X73250Y-44250D03*
G54D18*
X66250Y-45750D03*
G54D26*
X67250Y-45750D03*
X68250Y-45750D03*
X69250Y-45750D03*
X70250Y-45750D03*
X71250Y-45750D03*
X72250Y-45750D03*
X73250Y-45750D03*
M02*
