%FSLAX36Y36*%
G04 Gerber Fmt 3.6, Leading zero omitted, Abs format (unit inch)*
G04 Created by KiCad (PCBNEW (2014-jul-16 BZR unknown)-product) date Tue 13 Jan 2015 03:14:55 PM PST*
%MOIN*%
G01*
G04 APERTURE LIST*
%ADD10C,0.003937*%
%ADD11C,0.008000*%
%ADD12C,0.007874*%
%ADD13C,0.012000*%
%ADD14C,0.015000*%
%ADD15C,0.010000*%
%ADD16C,0.005906*%
G04 APERTURE END LIST*
D10*
D11*
X6197524Y-4330857D02*
X6228000Y-4330857D01*
X6378524Y-4721857D02*
X6409000Y-4721857D01*
X6393762Y-4737095D02*
X6393762Y-4706619D01*
X5030476Y-4618095D02*
X5007619Y-4618095D01*
X5019048Y-4618095D02*
X5019048Y-4578095D01*
X5015238Y-4583810D01*
X5011429Y-4587619D01*
X5007619Y-4589524D01*
X7503810Y-5503095D02*
X7526667Y-5503095D01*
X7515238Y-5543095D02*
X7515238Y-5503095D01*
X7540000Y-5522143D02*
X7553333Y-5522143D01*
X7559048Y-5543095D02*
X7540000Y-5543095D01*
X7540000Y-5503095D01*
X7559048Y-5503095D01*
X7599048Y-5543095D02*
X7585714Y-5524048D01*
X7576190Y-5543095D02*
X7576190Y-5503095D01*
X7591429Y-5503095D01*
X7595238Y-5505000D01*
X7597143Y-5506905D01*
X7599048Y-5510714D01*
X7599048Y-5516429D01*
X7597143Y-5520238D01*
X7595238Y-5522143D01*
X7591429Y-5524048D01*
X7576190Y-5524048D01*
X7616190Y-5543095D02*
X7616190Y-5503095D01*
X7629524Y-5531667D01*
X7642857Y-5503095D01*
X7642857Y-5543095D01*
X7661905Y-5543095D02*
X7661905Y-5503095D01*
X7680952Y-5543095D02*
X7680952Y-5503095D01*
X7703810Y-5543095D01*
X7703810Y-5503095D01*
X7720952Y-5531667D02*
X7740000Y-5531667D01*
X7717143Y-5543095D02*
X7730476Y-5503095D01*
X7743810Y-5543095D01*
X7751429Y-5503095D02*
X7774286Y-5503095D01*
X7762857Y-5543095D02*
X7762857Y-5503095D01*
X7787619Y-5522143D02*
X7800952Y-5522143D01*
X7806667Y-5543095D02*
X7787619Y-5543095D01*
X7787619Y-5503095D01*
X7806667Y-5503095D01*
X6205476Y-4118095D02*
X6182619Y-4118095D01*
X6194048Y-4118095D02*
X6194048Y-4078095D01*
X6190238Y-4083810D01*
X6186429Y-4087619D01*
X6182619Y-4089524D01*
X6282619Y-4106667D02*
X6301667Y-4106667D01*
X6278810Y-4118095D02*
X6292143Y-4078095D01*
X6305476Y-4118095D01*
X6337857Y-4118095D02*
X6318810Y-4118095D01*
X6318810Y-4078095D01*
X6345476Y-4078095D02*
X6368333Y-4078095D01*
X6356905Y-4118095D02*
X6356905Y-4078095D01*
X4593095Y-4342857D02*
X4593095Y-4335238D01*
X4595000Y-4331429D01*
X4598810Y-4327619D01*
X4606429Y-4325714D01*
X4619762Y-4325714D01*
X4627381Y-4327619D01*
X4631190Y-4331429D01*
X4633095Y-4335238D01*
X4633095Y-4342857D01*
X4631190Y-4346667D01*
X4627381Y-4350476D01*
X4619762Y-4352381D01*
X4606429Y-4352381D01*
X4598810Y-4350476D01*
X4595000Y-4346667D01*
X4593095Y-4342857D01*
X4612143Y-4295238D02*
X4612143Y-4308571D01*
X4633095Y-4308571D02*
X4593095Y-4308571D01*
X4593095Y-4289524D01*
X4612143Y-4260952D02*
X4612143Y-4274286D01*
X4633095Y-4274286D02*
X4593095Y-4274286D01*
X4593095Y-4255238D01*
X4249524Y-4268095D02*
X4249524Y-4228095D01*
X4259048Y-4228095D01*
X4264762Y-4230000D01*
X4268571Y-4233810D01*
X4270476Y-4237619D01*
X4272381Y-4245238D01*
X4272381Y-4250952D01*
X4270476Y-4258571D01*
X4268571Y-4262381D01*
X4264762Y-4266190D01*
X4259048Y-4268095D01*
X4249524Y-4268095D01*
X4310476Y-4268095D02*
X4287619Y-4268095D01*
X4299048Y-4268095D02*
X4299048Y-4228095D01*
X4295238Y-4233810D01*
X4291429Y-4237619D01*
X4287619Y-4239524D01*
X4323810Y-4228095D02*
X4348571Y-4228095D01*
X4335238Y-4243333D01*
X4340952Y-4243333D01*
X4344762Y-4245238D01*
X4346667Y-4247143D01*
X4348571Y-4250952D01*
X4348571Y-4260476D01*
X4346667Y-4264286D01*
X4344762Y-4266190D01*
X4340952Y-4268095D01*
X4329524Y-4268095D01*
X4325714Y-4266190D01*
X4323810Y-4264286D01*
X7005476Y-4718095D02*
X6982619Y-4718095D01*
X6994048Y-4718095D02*
X6994048Y-4678095D01*
X6990238Y-4683810D01*
X6986429Y-4687619D01*
X6982619Y-4689524D01*
X6430476Y-4968095D02*
X6407619Y-4968095D01*
X6419048Y-4968095D02*
X6419048Y-4928095D01*
X6415238Y-4933810D01*
X6411429Y-4937619D01*
X6407619Y-4939524D01*
X5590476Y-5873095D02*
X5567619Y-5873095D01*
X5579048Y-5873095D02*
X5579048Y-5833095D01*
X5575238Y-5838810D01*
X5571429Y-5842619D01*
X5567619Y-5844524D01*
X7605476Y-4468095D02*
X7582619Y-4468095D01*
X7594048Y-4468095D02*
X7594048Y-4428095D01*
X7590238Y-4433810D01*
X7586429Y-4437619D01*
X7582619Y-4439524D01*
X4615476Y-5853095D02*
X4592619Y-5853095D01*
X4604048Y-5853095D02*
X4604048Y-5813095D01*
X4600238Y-5818810D01*
X4596429Y-5822619D01*
X4592619Y-5824524D01*
X6475476Y-5758095D02*
X6452619Y-5758095D01*
X6464048Y-5758095D02*
X6464048Y-5718095D01*
X6460238Y-5723810D01*
X6456429Y-5727619D01*
X6452619Y-5729524D01*
X7567143Y-5443095D02*
X7574762Y-5443095D01*
X7578571Y-5445000D01*
X7582381Y-5448810D01*
X7584286Y-5456429D01*
X7584286Y-5469762D01*
X7582381Y-5477381D01*
X7578571Y-5481190D01*
X7574762Y-5483095D01*
X7567143Y-5483095D01*
X7563333Y-5481190D01*
X7559524Y-5477381D01*
X7557619Y-5469762D01*
X7557619Y-5456429D01*
X7559524Y-5448810D01*
X7563333Y-5445000D01*
X7567143Y-5443095D01*
X7601429Y-5483095D02*
X7601429Y-5443095D01*
X7624286Y-5483095D01*
X7624286Y-5443095D01*
X7687143Y-5443095D02*
X7694762Y-5443095D01*
X7698571Y-5445000D01*
X7702381Y-5448810D01*
X7704286Y-5456429D01*
X7704286Y-5469762D01*
X7702381Y-5477381D01*
X7698571Y-5481190D01*
X7694762Y-5483095D01*
X7687143Y-5483095D01*
X7683333Y-5481190D01*
X7679524Y-5477381D01*
X7677619Y-5469762D01*
X7677619Y-5456429D01*
X7679524Y-5448810D01*
X7683333Y-5445000D01*
X7687143Y-5443095D01*
X7734762Y-5462143D02*
X7721429Y-5462143D01*
X7721429Y-5483095D02*
X7721429Y-5443095D01*
X7740476Y-5443095D01*
X7769048Y-5462143D02*
X7755714Y-5462143D01*
X7755714Y-5483095D02*
X7755714Y-5443095D01*
X7774762Y-5443095D01*
X6105476Y-4018095D02*
X6082619Y-4018095D01*
X6094048Y-4018095D02*
X6094048Y-3978095D01*
X6090238Y-3983810D01*
X6086429Y-3987619D01*
X6082619Y-3989524D01*
X7230476Y-5843095D02*
X7207619Y-5843095D01*
X7219048Y-5843095D02*
X7219048Y-5803095D01*
X7215238Y-5808810D01*
X7211429Y-5812619D01*
X7207619Y-5814524D01*
X7167381Y-4154095D02*
X7154048Y-4135048D01*
X7144524Y-4154095D02*
X7144524Y-4114095D01*
X7159762Y-4114095D01*
X7163571Y-4116000D01*
X7165476Y-4117905D01*
X7167381Y-4121714D01*
X7167381Y-4127429D01*
X7165476Y-4131238D01*
X7163571Y-4133143D01*
X7159762Y-4135048D01*
X7144524Y-4135048D01*
X7184524Y-4133143D02*
X7197857Y-4133143D01*
X7203571Y-4154095D02*
X7184524Y-4154095D01*
X7184524Y-4114095D01*
X7203571Y-4114095D01*
X7218810Y-4152190D02*
X7224524Y-4154095D01*
X7234048Y-4154095D01*
X7237857Y-4152190D01*
X7239762Y-4150286D01*
X7241667Y-4146476D01*
X7241667Y-4142667D01*
X7239762Y-4138857D01*
X7237857Y-4136952D01*
X7234048Y-4135048D01*
X7226429Y-4133143D01*
X7222619Y-4131238D01*
X7220714Y-4129333D01*
X7218810Y-4125524D01*
X7218810Y-4121714D01*
X7220714Y-4117905D01*
X7222619Y-4116000D01*
X7226429Y-4114095D01*
X7235952Y-4114095D01*
X7241667Y-4116000D01*
X7258810Y-4133143D02*
X7272143Y-4133143D01*
X7277857Y-4154095D02*
X7258810Y-4154095D01*
X7258810Y-4114095D01*
X7277857Y-4114095D01*
X7289286Y-4114095D02*
X7312143Y-4114095D01*
X7300714Y-4154095D02*
X7300714Y-4114095D01*
D12*
X3937008Y-5905512D02*
X3937008Y-3937008D01*
X7874016Y-5905512D02*
X3937008Y-5905512D01*
X7874016Y-3937008D02*
X7874016Y-5905512D01*
X3937008Y-3937008D02*
X7874016Y-3937008D01*
D11*
X4244524Y-4378095D02*
X4244524Y-4338095D01*
X4259762Y-4338095D01*
X4263571Y-4340000D01*
X4265476Y-4341905D01*
X4267381Y-4345714D01*
X4267381Y-4351429D01*
X4265476Y-4355238D01*
X4263571Y-4357143D01*
X4259762Y-4359048D01*
X4244524Y-4359048D01*
X4280714Y-4338095D02*
X4290238Y-4378095D01*
X4297857Y-4349524D01*
X4305476Y-4378095D01*
X4315000Y-4338095D01*
X4353095Y-4378095D02*
X4339762Y-4359048D01*
X4330238Y-4378095D02*
X4330238Y-4338095D01*
X4345476Y-4338095D01*
X4349286Y-4340000D01*
X4351190Y-4341905D01*
X4353095Y-4345714D01*
X4353095Y-4351429D01*
X4351190Y-4355238D01*
X4349286Y-4357143D01*
X4345476Y-4359048D01*
X4330238Y-4359048D01*
X7222381Y-5709286D02*
X7220476Y-5711190D01*
X7214762Y-5713095D01*
X7210952Y-5713095D01*
X7205238Y-5711190D01*
X7201429Y-5707381D01*
X7199524Y-5703571D01*
X7197619Y-5695952D01*
X7197619Y-5690238D01*
X7199524Y-5682619D01*
X7201429Y-5678810D01*
X7205238Y-5675000D01*
X7210952Y-5673095D01*
X7214762Y-5673095D01*
X7220476Y-5675000D01*
X7222381Y-5676905D01*
X7247143Y-5673095D02*
X7254762Y-5673095D01*
X7258571Y-5675000D01*
X7262381Y-5678810D01*
X7264286Y-5686429D01*
X7264286Y-5699762D01*
X7262381Y-5707381D01*
X7258571Y-5711190D01*
X7254762Y-5713095D01*
X7247143Y-5713095D01*
X7243333Y-5711190D01*
X7239524Y-5707381D01*
X7237619Y-5699762D01*
X7237619Y-5686429D01*
X7239524Y-5678810D01*
X7243333Y-5675000D01*
X7247143Y-5673095D01*
X7281429Y-5713095D02*
X7281429Y-5673095D01*
X7304286Y-5713095D01*
X7304286Y-5673095D01*
X7321429Y-5711190D02*
X7327143Y-5713095D01*
X7336667Y-5713095D01*
X7340476Y-5711190D01*
X7342381Y-5709286D01*
X7344286Y-5705476D01*
X7344286Y-5701667D01*
X7342381Y-5697857D01*
X7340476Y-5695952D01*
X7336667Y-5694048D01*
X7329048Y-5692143D01*
X7325238Y-5690238D01*
X7323333Y-5688333D01*
X7321429Y-5684524D01*
X7321429Y-5680714D01*
X7323333Y-5676905D01*
X7325238Y-5675000D01*
X7329048Y-5673095D01*
X7338571Y-5673095D01*
X7344286Y-5675000D01*
X7369048Y-5673095D02*
X7376667Y-5673095D01*
X7380476Y-5675000D01*
X7384286Y-5678810D01*
X7386190Y-5686429D01*
X7386190Y-5699762D01*
X7384286Y-5707381D01*
X7380476Y-5711190D01*
X7376667Y-5713095D01*
X7369048Y-5713095D01*
X7365238Y-5711190D01*
X7361429Y-5707381D01*
X7359524Y-5699762D01*
X7359524Y-5686429D01*
X7361429Y-5678810D01*
X7365238Y-5675000D01*
X7369048Y-5673095D01*
X7422381Y-5713095D02*
X7403333Y-5713095D01*
X7403333Y-5673095D01*
X7435714Y-5692143D02*
X7449048Y-5692143D01*
X7454762Y-5713095D02*
X7435714Y-5713095D01*
X7435714Y-5673095D01*
X7454762Y-5673095D01*
X4549524Y-5723095D02*
X4549524Y-5683095D01*
X4566667Y-5721190D02*
X4572381Y-5723095D01*
X4581905Y-5723095D01*
X4585714Y-5721190D01*
X4587619Y-5719286D01*
X4589524Y-5715476D01*
X4589524Y-5711667D01*
X4587619Y-5707857D01*
X4585714Y-5705952D01*
X4581905Y-5704048D01*
X4574286Y-5702143D01*
X4570476Y-5700238D01*
X4568571Y-5698333D01*
X4566667Y-5694524D01*
X4566667Y-5690714D01*
X4568571Y-5686905D01*
X4570476Y-5685000D01*
X4574286Y-5683095D01*
X4583810Y-5683095D01*
X4589524Y-5685000D01*
X4606667Y-5723095D02*
X4606667Y-5683095D01*
X4621905Y-5683095D01*
X4625714Y-5685000D01*
X4627619Y-5686905D01*
X4629524Y-5690714D01*
X4629524Y-5696429D01*
X4627619Y-5700238D01*
X4625714Y-5702143D01*
X4621905Y-5704048D01*
X4606667Y-5704048D01*
X6170952Y-5378095D02*
X6170952Y-5406667D01*
X6169048Y-5412381D01*
X6165238Y-5416190D01*
X6159524Y-5418095D01*
X6155714Y-5418095D01*
X6184286Y-5378095D02*
X6207143Y-5378095D01*
X6195714Y-5418095D02*
X6195714Y-5378095D01*
X6218571Y-5406667D02*
X6237619Y-5406667D01*
X6214762Y-5418095D02*
X6228095Y-5378095D01*
X6241429Y-5418095D01*
X6275714Y-5380000D02*
X6271905Y-5378095D01*
X6266190Y-5378095D01*
X6260476Y-5380000D01*
X6256667Y-5383810D01*
X6254762Y-5387619D01*
X6252857Y-5395238D01*
X6252857Y-5400952D01*
X6254762Y-5408571D01*
X6256667Y-5412381D01*
X6260476Y-5416190D01*
X6266190Y-5418095D01*
X6270000Y-5418095D01*
X6275714Y-5416190D01*
X6277619Y-5414286D01*
X6277619Y-5400952D01*
X6270000Y-5400952D01*
X5755476Y-4743095D02*
X5732619Y-4743095D01*
X5744048Y-4743095D02*
X5744048Y-4703095D01*
X5740238Y-4708810D01*
X5736429Y-4712619D01*
X5732619Y-4714524D01*
X4350476Y-4448095D02*
X4327619Y-4448095D01*
X4339048Y-4448095D02*
X4339048Y-4408095D01*
X4335238Y-4413810D01*
X4331429Y-4417619D01*
X4327619Y-4419524D01*
X6605476Y-4943095D02*
X6582619Y-4943095D01*
X6594048Y-4943095D02*
X6594048Y-4903095D01*
X6590238Y-4908810D01*
X6586429Y-4912619D01*
X6582619Y-4914524D01*
X4105476Y-5518095D02*
X4082619Y-5518095D01*
X4094048Y-5518095D02*
X4094048Y-5478095D01*
X4090238Y-5483810D01*
X4086429Y-5487619D01*
X4082619Y-5489524D01*
X6543524Y-5759095D02*
X6543524Y-5719095D01*
X6558762Y-5719095D01*
X6562571Y-5721000D01*
X6564476Y-5722905D01*
X6566381Y-5726714D01*
X6566381Y-5732429D01*
X6564476Y-5736238D01*
X6562571Y-5738143D01*
X6558762Y-5740048D01*
X6543524Y-5740048D01*
X6606381Y-5759095D02*
X6593048Y-5740048D01*
X6583524Y-5759095D02*
X6583524Y-5719095D01*
X6598762Y-5719095D01*
X6602571Y-5721000D01*
X6604476Y-5722905D01*
X6606381Y-5726714D01*
X6606381Y-5732429D01*
X6604476Y-5736238D01*
X6602571Y-5738143D01*
X6598762Y-5740048D01*
X6583524Y-5740048D01*
X6631143Y-5719095D02*
X6638762Y-5719095D01*
X6642571Y-5721000D01*
X6646381Y-5724810D01*
X6648286Y-5732429D01*
X6648286Y-5745762D01*
X6646381Y-5753381D01*
X6642571Y-5757190D01*
X6638762Y-5759095D01*
X6631143Y-5759095D01*
X6627333Y-5757190D01*
X6623524Y-5753381D01*
X6621619Y-5745762D01*
X6621619Y-5732429D01*
X6623524Y-5724810D01*
X6627333Y-5721000D01*
X6631143Y-5719095D01*
X6686381Y-5721000D02*
X6682571Y-5719095D01*
X6676857Y-5719095D01*
X6671143Y-5721000D01*
X6667333Y-5724810D01*
X6665429Y-5728619D01*
X6663524Y-5736238D01*
X6663524Y-5741952D01*
X6665429Y-5749571D01*
X6667333Y-5753381D01*
X6671143Y-5757190D01*
X6676857Y-5759095D01*
X6680667Y-5759095D01*
X6686381Y-5757190D01*
X6688286Y-5755286D01*
X6688286Y-5741952D01*
X6680667Y-5741952D01*
X6728286Y-5759095D02*
X6714952Y-5740048D01*
X6705429Y-5759095D02*
X6705429Y-5719095D01*
X6720667Y-5719095D01*
X6724476Y-5721000D01*
X6726381Y-5722905D01*
X6728286Y-5726714D01*
X6728286Y-5732429D01*
X6726381Y-5736238D01*
X6724476Y-5738143D01*
X6720667Y-5740048D01*
X6705429Y-5740048D01*
X6743524Y-5747667D02*
X6762571Y-5747667D01*
X6739714Y-5759095D02*
X6753048Y-5719095D01*
X6766381Y-5759095D01*
X6779714Y-5759095D02*
X6779714Y-5719095D01*
X6793048Y-5747667D01*
X6806381Y-5719095D01*
X6806381Y-5759095D01*
X4272857Y-5483143D02*
X4278571Y-5485048D01*
X4280476Y-5486952D01*
X4282381Y-5490762D01*
X4282381Y-5496476D01*
X4280476Y-5500286D01*
X4278571Y-5502190D01*
X4274762Y-5504095D01*
X4259524Y-5504095D01*
X4259524Y-5464095D01*
X4272857Y-5464095D01*
X4276667Y-5466000D01*
X4278571Y-5467905D01*
X4280476Y-5471714D01*
X4280476Y-5475524D01*
X4278571Y-5479333D01*
X4276667Y-5481238D01*
X4272857Y-5483143D01*
X4259524Y-5483143D01*
X4299524Y-5464095D02*
X4299524Y-5496476D01*
X4301429Y-5500286D01*
X4303333Y-5502190D01*
X4307143Y-5504095D01*
X4314762Y-5504095D01*
X4318571Y-5502190D01*
X4320476Y-5500286D01*
X4322381Y-5496476D01*
X4322381Y-5464095D01*
X4339524Y-5502190D02*
X4345238Y-5504095D01*
X4354762Y-5504095D01*
X4358571Y-5502190D01*
X4360476Y-5500286D01*
X4362381Y-5496476D01*
X4362381Y-5492667D01*
X4360476Y-5488857D01*
X4358571Y-5486952D01*
X4354762Y-5485048D01*
X4347143Y-5483143D01*
X4343333Y-5481238D01*
X4341429Y-5479333D01*
X4339524Y-5475524D01*
X4339524Y-5471714D01*
X4341429Y-5467905D01*
X4343333Y-5466000D01*
X4347143Y-5464095D01*
X4356667Y-5464095D01*
X4362381Y-5466000D01*
X4432857Y-5504095D02*
X4419524Y-5485048D01*
X4410000Y-5504095D02*
X4410000Y-5464095D01*
X4425238Y-5464095D01*
X4429048Y-5466000D01*
X4430952Y-5467905D01*
X4432857Y-5471714D01*
X4432857Y-5477429D01*
X4430952Y-5481238D01*
X4429048Y-5483143D01*
X4425238Y-5485048D01*
X4410000Y-5485048D01*
X4448095Y-5492667D02*
X4467143Y-5492667D01*
X4444286Y-5504095D02*
X4457619Y-5464095D01*
X4470952Y-5504095D01*
X4482381Y-5502190D02*
X4488095Y-5504095D01*
X4497619Y-5504095D01*
X4501429Y-5502190D01*
X4503333Y-5500286D01*
X4505238Y-5496476D01*
X4505238Y-5492667D01*
X4503333Y-5488857D01*
X4501429Y-5486952D01*
X4497619Y-5485048D01*
X4490000Y-5483143D01*
X4486190Y-5481238D01*
X4484286Y-5479333D01*
X4482381Y-5475524D01*
X4482381Y-5471714D01*
X4484286Y-5467905D01*
X4486190Y-5466000D01*
X4490000Y-5464095D01*
X4499524Y-5464095D01*
X4505238Y-5466000D01*
X4522381Y-5504095D02*
X4522381Y-5464095D01*
X4537619Y-5464095D01*
X4541429Y-5466000D01*
X4543333Y-5467905D01*
X4545238Y-5471714D01*
X4545238Y-5477429D01*
X4543333Y-5481238D01*
X4541429Y-5483143D01*
X4537619Y-5485048D01*
X4522381Y-5485048D01*
X4575714Y-5483143D02*
X4581429Y-5485048D01*
X4583333Y-5486952D01*
X4585238Y-5490762D01*
X4585238Y-5496476D01*
X4583333Y-5500286D01*
X4581429Y-5502190D01*
X4577619Y-5504095D01*
X4562381Y-5504095D01*
X4562381Y-5464095D01*
X4575714Y-5464095D01*
X4579524Y-5466000D01*
X4581429Y-5467905D01*
X4583333Y-5471714D01*
X4583333Y-5475524D01*
X4581429Y-5479333D01*
X4579524Y-5481238D01*
X4575714Y-5483143D01*
X4562381Y-5483143D01*
X4602381Y-5483143D02*
X4615714Y-5483143D01*
X4621429Y-5504095D02*
X4602381Y-5504095D01*
X4602381Y-5464095D01*
X4621429Y-5464095D01*
X4661429Y-5504095D02*
X4648095Y-5485048D01*
X4638571Y-5504095D02*
X4638571Y-5464095D01*
X4653809Y-5464095D01*
X4657619Y-5466000D01*
X4659524Y-5467905D01*
X4661429Y-5471714D01*
X4661429Y-5477429D01*
X4659524Y-5481238D01*
X4657619Y-5483143D01*
X4653809Y-5485048D01*
X4638571Y-5485048D01*
X4701429Y-5504095D02*
X4688095Y-5485048D01*
X4678571Y-5504095D02*
X4678571Y-5464095D01*
X4693809Y-5464095D01*
X4697619Y-5466000D01*
X4699524Y-5467905D01*
X4701429Y-5471714D01*
X4701429Y-5477429D01*
X4699524Y-5481238D01*
X4697619Y-5483143D01*
X4693809Y-5485048D01*
X4678571Y-5485048D01*
X4726190Y-5485048D02*
X4726190Y-5504095D01*
X4712857Y-5464095D02*
X4726190Y-5485048D01*
X4739524Y-5464095D01*
X4783333Y-5504095D02*
X4783333Y-5464095D01*
X4798571Y-5464095D01*
X4802381Y-5466000D01*
X4804286Y-5467905D01*
X4806190Y-5471714D01*
X4806190Y-5477429D01*
X4804286Y-5481238D01*
X4802381Y-5483143D01*
X4798571Y-5485048D01*
X4783333Y-5485048D01*
X4823333Y-5504095D02*
X4823333Y-5464095D01*
X4282381Y-5568095D02*
X4269048Y-5549048D01*
X4259524Y-5568095D02*
X4259524Y-5528095D01*
X4274762Y-5528095D01*
X4278571Y-5530000D01*
X4280476Y-5531905D01*
X4282381Y-5535714D01*
X4282381Y-5541429D01*
X4280476Y-5545238D01*
X4278571Y-5547143D01*
X4274762Y-5549048D01*
X4259524Y-5549048D01*
X4299524Y-5547143D02*
X4312857Y-5547143D01*
X4318571Y-5568095D02*
X4299524Y-5568095D01*
X4299524Y-5528095D01*
X4318571Y-5528095D01*
X4330000Y-5528095D02*
X4343333Y-5568095D01*
X4356667Y-5528095D01*
X4370000Y-5564286D02*
X4371905Y-5566190D01*
X4370000Y-5568095D01*
X4368095Y-5566190D01*
X4370000Y-5564286D01*
X4370000Y-5568095D01*
X4432857Y-5547143D02*
X4438571Y-5549048D01*
X4440476Y-5550952D01*
X4442381Y-5554762D01*
X4442381Y-5560476D01*
X4440476Y-5564286D01*
X4438571Y-5566190D01*
X4434762Y-5568095D01*
X4419524Y-5568095D01*
X4419524Y-5528095D01*
X4432857Y-5528095D01*
X4436667Y-5530000D01*
X4438571Y-5531905D01*
X4440476Y-5535714D01*
X4440476Y-5539524D01*
X4438571Y-5543333D01*
X4436667Y-5545238D01*
X4432857Y-5547143D01*
X4419524Y-5547143D01*
X4541429Y-5568095D02*
X4518571Y-5568095D01*
X4530000Y-5568095D02*
X4530000Y-5528095D01*
X4526190Y-5533810D01*
X4522381Y-5537619D01*
X4518571Y-5539524D01*
X4554762Y-5528095D02*
X4579524Y-5528095D01*
X4566190Y-5543333D01*
X4571905Y-5543333D01*
X4575714Y-5545238D01*
X4577619Y-5547143D01*
X4579524Y-5550952D01*
X4579524Y-5560476D01*
X4577619Y-5564286D01*
X4575714Y-5566190D01*
X4571905Y-5568095D01*
X4560476Y-5568095D01*
X4556667Y-5566190D01*
X4554762Y-5564286D01*
X4608095Y-5528095D02*
X4608095Y-5556667D01*
X4606190Y-5562381D01*
X4602381Y-5566190D01*
X4596667Y-5568095D01*
X4592857Y-5568095D01*
X4625238Y-5556667D02*
X4644286Y-5556667D01*
X4621429Y-5568095D02*
X4634762Y-5528095D01*
X4648095Y-5568095D01*
X4661429Y-5568095D02*
X4661429Y-5528095D01*
X4684286Y-5568095D01*
X4684286Y-5528095D01*
X4701429Y-5531905D02*
X4703333Y-5530000D01*
X4707143Y-5528095D01*
X4716667Y-5528095D01*
X4720476Y-5530000D01*
X4722381Y-5531905D01*
X4724286Y-5535714D01*
X4724286Y-5539524D01*
X4722381Y-5545238D01*
X4699524Y-5568095D01*
X4724286Y-5568095D01*
X4749048Y-5528095D02*
X4752857Y-5528095D01*
X4756667Y-5530000D01*
X4758571Y-5531905D01*
X4760476Y-5535714D01*
X4762381Y-5543333D01*
X4762381Y-5552857D01*
X4760476Y-5560476D01*
X4758571Y-5564286D01*
X4756667Y-5566190D01*
X4752857Y-5568095D01*
X4749048Y-5568095D01*
X4745238Y-5566190D01*
X4743333Y-5564286D01*
X4741429Y-5560476D01*
X4739524Y-5552857D01*
X4739524Y-5543333D01*
X4741429Y-5535714D01*
X4743333Y-5531905D01*
X4745238Y-5530000D01*
X4749048Y-5528095D01*
X4800476Y-5568095D02*
X4777619Y-5568095D01*
X4789048Y-5568095D02*
X4789048Y-5528095D01*
X4785238Y-5533810D01*
X4781429Y-5537619D01*
X4777619Y-5539524D01*
X4836667Y-5528095D02*
X4817619Y-5528095D01*
X4815714Y-5547143D01*
X4817619Y-5545238D01*
X4821429Y-5543333D01*
X4830952Y-5543333D01*
X4834762Y-5545238D01*
X4836667Y-5547143D01*
X4838571Y-5550952D01*
X4838571Y-5560476D01*
X4836667Y-5564286D01*
X4834762Y-5566190D01*
X4830952Y-5568095D01*
X4821429Y-5568095D01*
X4817619Y-5566190D01*
X4815714Y-5564286D01*
X4270952Y-5647333D02*
X4269048Y-5645429D01*
X4265238Y-5639714D01*
X4263333Y-5635905D01*
X4261429Y-5630190D01*
X4259524Y-5620667D01*
X4259524Y-5613048D01*
X4261429Y-5603524D01*
X4263333Y-5597810D01*
X4265238Y-5594000D01*
X4269048Y-5588286D01*
X4270952Y-5586381D01*
X4309048Y-5628286D02*
X4307143Y-5630190D01*
X4301429Y-5632095D01*
X4297619Y-5632095D01*
X4291905Y-5630190D01*
X4288095Y-5626381D01*
X4286190Y-5622571D01*
X4284286Y-5614952D01*
X4284286Y-5609238D01*
X4286190Y-5601619D01*
X4288095Y-5597810D01*
X4291905Y-5594000D01*
X4297619Y-5592095D01*
X4301429Y-5592095D01*
X4307143Y-5594000D01*
X4309048Y-5595905D01*
X4322381Y-5647333D02*
X4324286Y-5645429D01*
X4328095Y-5639714D01*
X4330000Y-5635905D01*
X4331905Y-5630190D01*
X4333810Y-5620667D01*
X4333810Y-5613048D01*
X4331905Y-5603524D01*
X4330000Y-5597810D01*
X4328095Y-5594000D01*
X4324286Y-5588286D01*
X4322381Y-5586381D01*
X4381429Y-5595905D02*
X4383333Y-5594000D01*
X4387143Y-5592095D01*
X4396667Y-5592095D01*
X4400476Y-5594000D01*
X4402381Y-5595905D01*
X4404286Y-5599714D01*
X4404286Y-5603524D01*
X4402381Y-5609238D01*
X4379524Y-5632095D01*
X4404286Y-5632095D01*
X4429048Y-5592095D02*
X4432857Y-5592095D01*
X4436667Y-5594000D01*
X4438571Y-5595905D01*
X4440476Y-5599714D01*
X4442381Y-5607333D01*
X4442381Y-5616857D01*
X4440476Y-5624476D01*
X4438571Y-5628286D01*
X4436667Y-5630190D01*
X4432857Y-5632095D01*
X4429048Y-5632095D01*
X4425238Y-5630190D01*
X4423333Y-5628286D01*
X4421429Y-5624476D01*
X4419524Y-5616857D01*
X4419524Y-5607333D01*
X4421429Y-5599714D01*
X4423333Y-5595905D01*
X4425238Y-5594000D01*
X4429048Y-5592095D01*
X4480476Y-5632095D02*
X4457619Y-5632095D01*
X4469048Y-5632095D02*
X4469048Y-5592095D01*
X4465238Y-5597810D01*
X4461429Y-5601619D01*
X4457619Y-5603524D01*
X4516667Y-5592095D02*
X4497619Y-5592095D01*
X4495714Y-5611143D01*
X4497619Y-5609238D01*
X4501429Y-5607333D01*
X4510952Y-5607333D01*
X4514762Y-5609238D01*
X4516667Y-5611143D01*
X4518571Y-5614952D01*
X4518571Y-5624476D01*
X4516667Y-5628286D01*
X4514762Y-5630190D01*
X4510952Y-5632095D01*
X4501429Y-5632095D01*
X4497619Y-5630190D01*
X4495714Y-5628286D01*
X4587143Y-5594000D02*
X4583333Y-5592095D01*
X4577619Y-5592095D01*
X4571905Y-5594000D01*
X4568095Y-5597810D01*
X4566190Y-5601619D01*
X4564286Y-5609238D01*
X4564286Y-5614952D01*
X4566190Y-5622571D01*
X4568095Y-5626381D01*
X4571905Y-5630190D01*
X4577619Y-5632095D01*
X4581429Y-5632095D01*
X4587143Y-5630190D01*
X4589048Y-5628286D01*
X4589048Y-5614952D01*
X4581429Y-5614952D01*
X4629048Y-5632095D02*
X4615714Y-5613048D01*
X4606190Y-5632095D02*
X4606190Y-5592095D01*
X4621429Y-5592095D01*
X4625238Y-5594000D01*
X4627143Y-5595905D01*
X4629048Y-5599714D01*
X4629048Y-5605429D01*
X4627143Y-5609238D01*
X4625238Y-5611143D01*
X4621429Y-5613048D01*
X4606190Y-5613048D01*
X4644286Y-5620667D02*
X4663333Y-5620667D01*
X4640476Y-5632095D02*
X4653809Y-5592095D01*
X4667143Y-5632095D01*
X4680476Y-5632095D02*
X4680476Y-5592095D01*
X4693809Y-5620667D01*
X4707143Y-5592095D01*
X4707143Y-5632095D01*
X4745238Y-5632095D02*
X4726190Y-5632095D01*
X4726190Y-5592095D01*
X4758571Y-5632095D02*
X4758571Y-5592095D01*
X4800476Y-5628286D02*
X4798571Y-5630190D01*
X4792857Y-5632095D01*
X4789048Y-5632095D01*
X4783333Y-5630190D01*
X4779524Y-5626381D01*
X4777619Y-5622571D01*
X4775714Y-5614952D01*
X4775714Y-5609238D01*
X4777619Y-5601619D01*
X4779524Y-5597810D01*
X4783333Y-5594000D01*
X4789048Y-5592095D01*
X4792857Y-5592095D01*
X4798571Y-5594000D01*
X4800476Y-5595905D01*
X4817619Y-5632095D02*
X4817619Y-5592095D01*
X4817619Y-5611143D02*
X4840476Y-5611143D01*
X4840476Y-5632095D02*
X4840476Y-5592095D01*
D13*
X5248000Y-5850000D02*
X5050000Y-5850000D01*
X5050000Y-5850000D02*
X5050000Y-5750000D01*
X5050000Y-5750000D02*
X5250000Y-5750000D01*
X5250000Y-5750000D02*
X5250000Y-5850000D01*
X5250000Y-5825000D02*
X5225000Y-5850000D01*
X5302000Y-5750000D02*
X5500000Y-5750000D01*
X5500000Y-5750000D02*
X5500000Y-5850000D01*
X5500000Y-5850000D02*
X5300000Y-5850000D01*
X5300000Y-5850000D02*
X5300000Y-5750000D01*
X5300000Y-5775000D02*
X5325000Y-5750000D01*
X4952000Y-5450000D02*
X5150000Y-5450000D01*
X5150000Y-5450000D02*
X5150000Y-5550000D01*
X5150000Y-5550000D02*
X4950000Y-5550000D01*
X4950000Y-5550000D02*
X4950000Y-5450000D01*
X4950000Y-5475000D02*
X4975000Y-5450000D01*
X5148000Y-4725000D02*
X4950000Y-4725000D01*
X4950000Y-4725000D02*
X4950000Y-4625000D01*
X4950000Y-4625000D02*
X5150000Y-4625000D01*
X5150000Y-4625000D02*
X5150000Y-4725000D01*
X5150000Y-4700000D02*
X5125000Y-4725000D01*
X7298000Y-5225000D02*
X7100000Y-5225000D01*
X7100000Y-5225000D02*
X7100000Y-5125000D01*
X7100000Y-5125000D02*
X7300000Y-5125000D01*
X7300000Y-5125000D02*
X7300000Y-5225000D01*
X7300000Y-5200000D02*
X7275000Y-5225000D01*
X6900000Y-4298000D02*
X6900000Y-4100000D01*
X6900000Y-4100000D02*
X7000000Y-4100000D01*
X7000000Y-4100000D02*
X7000000Y-4300000D01*
X7000000Y-4300000D02*
X6900000Y-4300000D01*
X6925000Y-4300000D02*
X6900000Y-4275000D01*
X6677000Y-4750000D02*
X6875000Y-4750000D01*
X6875000Y-4750000D02*
X6875000Y-4850000D01*
X6875000Y-4850000D02*
X6675000Y-4850000D01*
X6675000Y-4850000D02*
X6675000Y-4750000D01*
X6675000Y-4775000D02*
X6700000Y-4750000D01*
X7173000Y-4425000D02*
X6975000Y-4425000D01*
X6975000Y-4425000D02*
X6975000Y-4325000D01*
X6975000Y-4325000D02*
X7175000Y-4325000D01*
X7175000Y-4325000D02*
X7175000Y-4425000D01*
X7175000Y-4400000D02*
X7150000Y-4425000D01*
X7423000Y-4425000D02*
X7225000Y-4425000D01*
X7225000Y-4425000D02*
X7225000Y-4325000D01*
X7225000Y-4325000D02*
X7425000Y-4325000D01*
X7425000Y-4325000D02*
X7425000Y-4425000D01*
X7425000Y-4400000D02*
X7400000Y-4425000D01*
X7127000Y-4200000D02*
X7325000Y-4200000D01*
X7325000Y-4200000D02*
X7325000Y-4300000D01*
X7325000Y-4300000D02*
X7125000Y-4300000D01*
X7125000Y-4300000D02*
X7125000Y-4200000D01*
X7125000Y-4225000D02*
X7150000Y-4200000D01*
X6948000Y-4650000D02*
X6750000Y-4650000D01*
X6750000Y-4650000D02*
X6750000Y-4550000D01*
X6750000Y-4550000D02*
X6950000Y-4550000D01*
X6950000Y-4550000D02*
X6950000Y-4650000D01*
X6950000Y-4625000D02*
X6925000Y-4650000D01*
X5752000Y-4200000D02*
X5950000Y-4200000D01*
X5950000Y-4200000D02*
X5950000Y-4300000D01*
X5950000Y-4300000D02*
X5750000Y-4300000D01*
X5750000Y-4300000D02*
X5750000Y-4200000D01*
X5750000Y-4225000D02*
X5775000Y-4200000D01*
X5000000Y-4277000D02*
X5000000Y-4475000D01*
X5000000Y-4475000D02*
X4900000Y-4475000D01*
X4900000Y-4475000D02*
X4900000Y-4275000D01*
X4900000Y-4275000D02*
X5000000Y-4275000D01*
X4975000Y-4275000D02*
X5000000Y-4300000D01*
D14*
X6625000Y-4150000D02*
X6625000Y-4110000D01*
X6625000Y-4340000D02*
X6625000Y-4390000D01*
D15*
X6675000Y-4330000D02*
X6575000Y-4330000D01*
X6675000Y-4320000D02*
X6575000Y-4320000D01*
X6675000Y-4310000D02*
X6575000Y-4310000D01*
X6675000Y-4340000D02*
X6575000Y-4340000D01*
X6675000Y-4300000D02*
X6575000Y-4350000D01*
X6675000Y-4350000D02*
X6575000Y-4300000D01*
X6675000Y-4300000D02*
X6575000Y-4300000D01*
X6675000Y-4325000D02*
X6575000Y-4325000D01*
X6575000Y-4350000D02*
X6675000Y-4350000D01*
X6675000Y-4350000D02*
X6675000Y-4150000D01*
X6675000Y-4150000D02*
X6575000Y-4150000D01*
X6575000Y-4150000D02*
X6575000Y-4350000D01*
D16*
X4870000Y-4365000D02*
G75*
G03X4840000Y-4205000I-95000J65000D01*
G74*
G01*
X4840000Y-4205000D02*
X4710000Y-4205000D01*
X4710000Y-4205000D02*
G75*
G03X4870000Y-4235000I65000J-95000D01*
G74*
G01*
D15*
X7600000Y-5425000D02*
X7800000Y-5425000D01*
X7800000Y-5425000D02*
X7800000Y-5325000D01*
X7800000Y-5325000D02*
X7600000Y-5325000D01*
X7500000Y-5325000D02*
X7600000Y-5325000D01*
X7600000Y-5325000D02*
X7600000Y-5425000D01*
X7500000Y-5325000D02*
X7500000Y-5425000D01*
X7500000Y-5425000D02*
X7600000Y-5425000D01*
X4375000Y-4300000D02*
X4375000Y-4400000D01*
X4375000Y-4400000D02*
X4475000Y-4400000D01*
X4475000Y-4400000D02*
X4475000Y-4300000D01*
X4475000Y-4300000D02*
X4375000Y-4300000D01*
X4375000Y-4300000D02*
X4375000Y-4200000D01*
X4375000Y-4200000D02*
X4575000Y-4200000D01*
X4575000Y-4200000D02*
X4575000Y-4400000D01*
X4575000Y-4400000D02*
X4475000Y-4400000D01*
X4050000Y-4150000D02*
X6050000Y-4150000D01*
X5950000Y-3950000D02*
X4050000Y-3950000D01*
X4050000Y-4150000D02*
X4050000Y-3950000D01*
X6050000Y-4150000D02*
X6050000Y-4050000D01*
X6050000Y-3950000D02*
X5950000Y-3950000D01*
X6050000Y-4050000D02*
X5950000Y-4050000D01*
X5950000Y-4050000D02*
X5950000Y-3950000D01*
X6050000Y-3950000D02*
X6050000Y-4050000D01*
D16*
X7430000Y-4700000D02*
X7460000Y-4680000D01*
X7430000Y-4700000D02*
X7460000Y-4720000D01*
D15*
X7460000Y-4990000D02*
X7480000Y-4990000D01*
X7480000Y-4990000D02*
X7480000Y-4810000D01*
X7480000Y-4810000D02*
X7460000Y-4810000D01*
X7840000Y-4500000D02*
X7840000Y-5300000D01*
X7840000Y-5300000D02*
X7460000Y-5300000D01*
X7460000Y-5300000D02*
X7460000Y-4500000D01*
X7460000Y-4500000D02*
X7840000Y-4500000D01*
X6525000Y-5775000D02*
X7025000Y-5775000D01*
X7025000Y-5775000D02*
X7025000Y-5875000D01*
X7025000Y-5875000D02*
X6525000Y-5875000D01*
X6425000Y-5775000D02*
X6525000Y-5775000D01*
X6525000Y-5775000D02*
X6525000Y-5875000D01*
X6425000Y-5775000D02*
X6425000Y-5875000D01*
X6425000Y-5875000D02*
X6525000Y-5875000D01*
X7075000Y-5750000D02*
X7075000Y-5250000D01*
X7075000Y-5250000D02*
X7175000Y-5250000D01*
X7175000Y-5250000D02*
X7175000Y-5750000D01*
X7075000Y-5850000D02*
X7075000Y-5750000D01*
X7075000Y-5750000D02*
X7175000Y-5750000D01*
X7075000Y-5850000D02*
X7175000Y-5850000D01*
X7175000Y-5850000D02*
X7175000Y-5750000D01*
X4650000Y-5775000D02*
X4750000Y-5775000D01*
X4750000Y-5775000D02*
X4750000Y-5875000D01*
X4650000Y-5875000D02*
X4950000Y-5875000D01*
X4950000Y-5875000D02*
X4950000Y-5675000D01*
X4950000Y-5675000D02*
X4750000Y-5675000D01*
X4650000Y-5875000D02*
X4650000Y-5775000D01*
X4650000Y-5675000D02*
X4650000Y-5775000D01*
X4750000Y-5675000D02*
X4650000Y-5675000D01*
X6250000Y-4050000D02*
X6550000Y-4050000D01*
X6250000Y-3950000D02*
X6550000Y-3950000D01*
X6150000Y-3950000D02*
X6250000Y-3950000D01*
X6550000Y-4050000D02*
X6550000Y-3950000D01*
X6250000Y-3950000D02*
X6250000Y-4050000D01*
X6150000Y-3950000D02*
X6150000Y-4050000D01*
X6150000Y-4050000D02*
X6250000Y-4050000D01*
D16*
X5800000Y-5870000D02*
X5780000Y-5840000D01*
X5800000Y-5870000D02*
X5820000Y-5840000D01*
D15*
X6090000Y-5840000D02*
X6090000Y-5820000D01*
X6090000Y-5820000D02*
X5910000Y-5820000D01*
X5910000Y-5820000D02*
X5910000Y-5840000D01*
X5600000Y-5460000D02*
X6400000Y-5460000D01*
X6400000Y-5460000D02*
X6400000Y-5840000D01*
X6400000Y-5840000D02*
X5600000Y-5840000D01*
X5600000Y-5840000D02*
X5600000Y-5460000D01*
D14*
X7375000Y-5303100D02*
X7375000Y-5263100D01*
X7375000Y-5503100D02*
X7375000Y-5543100D01*
X7425000Y-5303100D02*
X7425000Y-5503100D01*
X7425000Y-5503100D02*
X7325000Y-5503100D01*
X7325000Y-5503100D02*
X7325000Y-5303100D01*
X7325000Y-5303100D02*
X7425000Y-5303100D01*
D15*
X6550000Y-5050000D02*
X6550000Y-5550000D01*
X6550000Y-5550000D02*
X6450000Y-5550000D01*
X6450000Y-5550000D02*
X6450000Y-5050000D01*
X6550000Y-4950000D02*
X6550000Y-5050000D01*
X6550000Y-5050000D02*
X6450000Y-5050000D01*
X6550000Y-4950000D02*
X6450000Y-4950000D01*
X6450000Y-4950000D02*
X6450000Y-5050000D01*
D14*
X6800000Y-4153100D02*
X6800000Y-4113100D01*
X6800000Y-4353100D02*
X6800000Y-4393100D01*
X6850000Y-4153100D02*
X6850000Y-4353100D01*
X6850000Y-4353100D02*
X6750000Y-4353100D01*
X6750000Y-4353100D02*
X6750000Y-4153100D01*
X6750000Y-4153100D02*
X6850000Y-4153100D01*
X4553100Y-4675000D02*
X4513100Y-4675000D01*
X4753100Y-4675000D02*
X4793100Y-4675000D01*
X4553100Y-4625000D02*
X4753100Y-4625000D01*
X4753100Y-4625000D02*
X4753100Y-4725000D01*
X4753100Y-4725000D02*
X4553100Y-4725000D01*
X4553100Y-4725000D02*
X4553100Y-4625000D01*
X4553100Y-4550000D02*
X4513100Y-4550000D01*
X4753100Y-4550000D02*
X4793100Y-4550000D01*
X4553100Y-4500000D02*
X4753100Y-4500000D01*
X4753100Y-4500000D02*
X4753100Y-4600000D01*
X4753100Y-4600000D02*
X4553100Y-4600000D01*
X4553100Y-4600000D02*
X4553100Y-4500000D01*
X7106900Y-3956100D02*
X7106900Y-3965900D01*
X7343100Y-3956100D02*
X7343100Y-3965900D01*
X7106900Y-4093900D02*
X7106900Y-4084100D01*
X7343100Y-4093900D02*
X7343100Y-4084100D01*
X7343100Y-3956100D02*
X7106900Y-3956100D01*
X7343100Y-4093900D02*
X7106900Y-4093900D01*
D15*
X5750000Y-4450000D02*
X5800000Y-4450000D01*
X5800000Y-4450000D02*
X5800000Y-4550000D01*
X5800000Y-4550000D02*
X5750000Y-4550000D01*
X5750000Y-4400000D02*
X6150000Y-4400000D01*
X6150000Y-4400000D02*
X6150000Y-4600000D01*
X6150000Y-4600000D02*
X5750000Y-4600000D01*
X5750000Y-4600000D02*
X5750000Y-4400000D01*
D14*
X6875000Y-4900000D02*
X6875000Y-5700000D01*
X6675000Y-5700000D02*
X6675000Y-4900000D01*
X6675000Y-4900000D02*
X6875000Y-4900000D01*
X6825000Y-4900000D02*
X6825000Y-4950000D01*
X6825000Y-4950000D02*
X6725000Y-4950000D01*
X6725000Y-4950000D02*
X6725000Y-4900000D01*
X6875000Y-5700000D02*
X6675000Y-5700000D01*
D15*
X7250000Y-4700000D02*
X7250000Y-4750000D01*
X7250000Y-4750000D02*
X7150000Y-4750000D01*
X7150000Y-4750000D02*
X7150000Y-4700000D01*
X7300000Y-4700000D02*
X7300000Y-5100000D01*
X7300000Y-5100000D02*
X7100000Y-5100000D01*
X7100000Y-5100000D02*
X7100000Y-4700000D01*
X7100000Y-4700000D02*
X7300000Y-4700000D01*
D16*
X7411301Y-4624478D02*
G75*
G03X7239000Y-4625000I-86301J49478D01*
G74*
G01*
X7239000Y-4625000D02*
X7412000Y-4625000D01*
D14*
X4000000Y-5050000D02*
X4050000Y-5050000D01*
X4050000Y-5050000D02*
X4050000Y-5150000D01*
X4050000Y-5150000D02*
X4000000Y-5150000D01*
X4000000Y-4850000D02*
X6100000Y-4850000D01*
X6100000Y-4850000D02*
X6100000Y-5350000D01*
X6100000Y-5350000D02*
X4000000Y-5350000D01*
X4000000Y-5350000D02*
X4000000Y-4850000D01*
D16*
X7161301Y-4624478D02*
G75*
G03X6989000Y-4625000I-86301J49478D01*
G74*
G01*
X6989000Y-4625000D02*
X7162000Y-4625000D01*
D15*
X5025000Y-4325000D02*
X5075000Y-4325000D01*
X5075000Y-4325000D02*
X5075000Y-4425000D01*
X5075000Y-4425000D02*
X5025000Y-4425000D01*
X5025000Y-4275000D02*
X5425000Y-4275000D01*
X5425000Y-4275000D02*
X5425000Y-4475000D01*
X5425000Y-4475000D02*
X5025000Y-4475000D01*
X5025000Y-4475000D02*
X5025000Y-4275000D01*
D14*
X5535000Y-5585600D02*
X5542900Y-5601400D01*
X5542900Y-5601400D02*
X5546900Y-5625000D01*
X5546900Y-5625000D02*
X5542900Y-5644700D01*
X5542900Y-5644700D02*
X5527200Y-5672200D01*
X5527200Y-5672200D02*
X5503500Y-5688000D01*
X5503500Y-5688000D02*
X5479900Y-5695900D01*
X5479900Y-5695900D02*
X5220100Y-5695900D01*
X5220100Y-5695900D02*
X5192500Y-5688000D01*
X5192500Y-5688000D02*
X5176800Y-5676200D01*
X5176800Y-5676200D02*
X5161000Y-5656500D01*
X5161000Y-5656500D02*
X5153100Y-5632900D01*
X5153100Y-5632900D02*
X5153100Y-5613200D01*
X5153100Y-5613200D02*
X5161000Y-5593500D01*
X5161000Y-5593500D02*
X5180700Y-5569900D01*
X5180700Y-5569900D02*
X5200400Y-5558100D01*
X5200400Y-5558100D02*
X5220100Y-5554100D01*
X5224000Y-5554100D02*
X5483900Y-5554100D01*
X5483900Y-5554100D02*
X5499600Y-5558100D01*
X5499600Y-5558100D02*
X5519300Y-5569900D01*
X5519300Y-5569900D02*
X5539000Y-5589600D01*
X5224400Y-5533300D02*
X5206300Y-5535200D01*
X5206300Y-5535200D02*
X5190600Y-5539600D01*
X5190600Y-5539600D02*
X5173600Y-5548200D01*
X5173600Y-5548200D02*
X5162200Y-5557300D01*
X5162200Y-5557300D02*
X5149200Y-5571100D01*
X5149200Y-5571100D02*
X5137800Y-5592300D01*
X5137800Y-5592300D02*
X5132700Y-5615900D01*
X5132700Y-5615900D02*
X5132700Y-5636000D01*
X5132700Y-5636000D02*
X5139400Y-5663600D01*
X5139400Y-5663600D02*
X5155100Y-5686800D01*
X5155100Y-5686800D02*
X5173200Y-5701400D01*
X5173200Y-5701400D02*
X5189800Y-5709600D01*
X5189800Y-5709600D02*
X5207500Y-5715900D01*
X5207500Y-5715900D02*
X5224800Y-5717100D01*
X5513800Y-5708500D02*
X5528700Y-5699800D01*
X5528700Y-5699800D02*
X5541300Y-5688800D01*
X5541300Y-5688800D02*
X5551200Y-5675800D01*
X5551200Y-5675800D02*
X5563000Y-5654100D01*
X5563000Y-5654100D02*
X5567300Y-5635600D01*
X5567300Y-5635600D02*
X5568100Y-5617500D01*
X5568100Y-5617500D02*
X5564600Y-5599400D01*
X5564600Y-5599400D02*
X5557100Y-5581700D01*
X5557100Y-5581700D02*
X5542900Y-5563200D01*
X5542900Y-5563200D02*
X5529100Y-5550600D01*
X5529100Y-5550600D02*
X5513800Y-5541500D01*
X5513800Y-5541500D02*
X5496900Y-5536000D01*
X5496900Y-5536000D02*
X5479500Y-5533300D01*
X5224000Y-5716700D02*
X5478000Y-5716700D01*
X5478000Y-5716700D02*
X5494500Y-5715200D01*
X5494500Y-5715200D02*
X5513800Y-5708500D01*
X5224000Y-5533300D02*
X5478000Y-5533300D01*
D16*
X5702362Y-4350000D02*
X5501575Y-4350000D01*
X5576378Y-4468110D02*
X5548819Y-4546850D01*
X5623622Y-4468110D02*
X5651181Y-4546850D01*
X5639370Y-4231890D02*
X5639370Y-4468110D01*
X5639370Y-4468110D02*
X5560630Y-4468110D01*
X5560630Y-4468110D02*
X5560630Y-4231890D01*
X5560630Y-4231890D02*
X5639370Y-4231890D01*
X5300000Y-4625000D02*
X5700000Y-4625000D01*
X5700000Y-4625000D02*
X5700000Y-4725000D01*
X5700000Y-4725000D02*
X5300000Y-4725000D01*
X5200000Y-4625000D02*
X5300000Y-4625000D01*
X5300000Y-4625000D02*
X5300000Y-4725000D01*
X5200000Y-4625000D02*
X5200000Y-4725000D01*
X5200000Y-4725000D02*
X5300000Y-4725000D01*
X6240945Y-4993701D02*
X6240945Y-4206299D01*
X6240945Y-4206299D02*
X6359055Y-4206299D01*
X6359055Y-4206299D02*
X6359055Y-4993701D01*
X6359055Y-4993701D02*
X6240945Y-4993701D01*
D11*
X5083333Y-5724286D02*
X5081429Y-5726190D01*
X5075714Y-5728095D01*
X5071905Y-5728095D01*
X5066191Y-5726190D01*
X5062381Y-5722381D01*
X5060476Y-5718571D01*
X5058571Y-5710952D01*
X5058571Y-5705238D01*
X5060476Y-5697619D01*
X5062381Y-5693810D01*
X5066191Y-5690000D01*
X5071905Y-5688095D01*
X5075714Y-5688095D01*
X5081429Y-5690000D01*
X5083333Y-5691905D01*
X5121429Y-5728095D02*
X5098571Y-5728095D01*
X5110000Y-5728095D02*
X5110000Y-5688095D01*
X5106191Y-5693810D01*
X5102381Y-5697619D01*
X5098571Y-5699524D01*
X5538333Y-5784286D02*
X5536429Y-5786190D01*
X5530714Y-5788095D01*
X5526905Y-5788095D01*
X5521191Y-5786190D01*
X5517381Y-5782381D01*
X5515476Y-5778571D01*
X5513571Y-5770952D01*
X5513571Y-5765238D01*
X5515476Y-5757619D01*
X5517381Y-5753810D01*
X5521191Y-5750000D01*
X5526905Y-5748095D01*
X5530714Y-5748095D01*
X5536429Y-5750000D01*
X5538333Y-5751905D01*
X5553571Y-5751905D02*
X5555476Y-5750000D01*
X5559286Y-5748095D01*
X5568810Y-5748095D01*
X5572619Y-5750000D01*
X5574524Y-5751905D01*
X5576429Y-5755714D01*
X5576429Y-5759524D01*
X5574524Y-5765238D01*
X5551667Y-5788095D01*
X5576429Y-5788095D01*
X5033333Y-5599286D02*
X5031429Y-5601190D01*
X5025714Y-5603095D01*
X5021905Y-5603095D01*
X5016191Y-5601190D01*
X5012381Y-5597381D01*
X5010476Y-5593571D01*
X5008571Y-5585952D01*
X5008571Y-5580238D01*
X5010476Y-5572619D01*
X5012381Y-5568810D01*
X5016191Y-5565000D01*
X5021905Y-5563095D01*
X5025714Y-5563095D01*
X5031429Y-5565000D01*
X5033333Y-5566905D01*
X5046667Y-5563095D02*
X5071429Y-5563095D01*
X5058095Y-5578333D01*
X5063810Y-5578333D01*
X5067619Y-5580238D01*
X5069524Y-5582143D01*
X5071429Y-5585952D01*
X5071429Y-5595476D01*
X5069524Y-5599286D01*
X5067619Y-5601190D01*
X5063810Y-5603095D01*
X5052381Y-5603095D01*
X5048571Y-5601190D01*
X5046667Y-5599286D01*
X5143333Y-4614286D02*
X5141429Y-4616190D01*
X5135714Y-4618095D01*
X5131905Y-4618095D01*
X5126191Y-4616190D01*
X5122381Y-4612381D01*
X5120476Y-4608571D01*
X5118571Y-4600952D01*
X5118571Y-4595238D01*
X5120476Y-4587619D01*
X5122381Y-4583810D01*
X5126191Y-4580000D01*
X5131905Y-4578095D01*
X5135714Y-4578095D01*
X5141429Y-4580000D01*
X5143333Y-4581905D01*
X5177619Y-4591429D02*
X5177619Y-4618095D01*
X5168095Y-4576190D02*
X5158571Y-4604762D01*
X5183333Y-4604762D01*
X7193333Y-5280624D02*
X7191429Y-5282529D01*
X7185714Y-5284434D01*
X7181905Y-5284434D01*
X7176191Y-5282529D01*
X7172381Y-5278720D01*
X7170476Y-5274910D01*
X7168571Y-5267291D01*
X7168571Y-5261577D01*
X7170476Y-5253958D01*
X7172381Y-5250148D01*
X7176191Y-5246339D01*
X7181905Y-5244434D01*
X7185714Y-5244434D01*
X7191429Y-5246339D01*
X7193333Y-5248243D01*
X7229524Y-5244434D02*
X7210476Y-5244434D01*
X7208571Y-5263481D01*
X7210476Y-5261577D01*
X7214286Y-5259672D01*
X7223810Y-5259672D01*
X7227619Y-5261577D01*
X7229524Y-5263481D01*
X7231429Y-5267291D01*
X7231429Y-5276815D01*
X7229524Y-5280624D01*
X7227619Y-5282529D01*
X7223810Y-5284434D01*
X7214286Y-5284434D01*
X7210476Y-5282529D01*
X7208571Y-5280624D01*
X6943333Y-4064286D02*
X6941429Y-4066190D01*
X6935714Y-4068095D01*
X6931905Y-4068095D01*
X6926191Y-4066190D01*
X6922381Y-4062381D01*
X6920476Y-4058571D01*
X6918571Y-4050952D01*
X6918571Y-4045238D01*
X6920476Y-4037619D01*
X6922381Y-4033810D01*
X6926191Y-4030000D01*
X6931905Y-4028095D01*
X6935714Y-4028095D01*
X6941429Y-4030000D01*
X6943333Y-4031905D01*
X6977619Y-4028095D02*
X6970000Y-4028095D01*
X6966191Y-4030000D01*
X6964286Y-4031905D01*
X6960476Y-4037619D01*
X6958571Y-4045238D01*
X6958571Y-4060476D01*
X6960476Y-4064286D01*
X6962381Y-4066190D01*
X6966191Y-4068095D01*
X6973810Y-4068095D01*
X6977619Y-4066190D01*
X6979524Y-4064286D01*
X6981429Y-4060476D01*
X6981429Y-4050952D01*
X6979524Y-4047143D01*
X6977619Y-4045238D01*
X6973810Y-4043333D01*
X6966191Y-4043333D01*
X6962381Y-4045238D01*
X6960476Y-4047143D01*
X6958571Y-4050952D01*
X6618333Y-4809286D02*
X6616429Y-4811190D01*
X6610714Y-4813095D01*
X6606905Y-4813095D01*
X6601191Y-4811190D01*
X6597381Y-4807381D01*
X6595476Y-4803571D01*
X6593571Y-4795952D01*
X6593571Y-4790238D01*
X6595476Y-4782619D01*
X6597381Y-4778810D01*
X6601191Y-4775000D01*
X6606905Y-4773095D01*
X6610714Y-4773095D01*
X6616429Y-4775000D01*
X6618333Y-4776905D01*
X6631667Y-4773095D02*
X6658333Y-4773095D01*
X6641191Y-4813095D01*
X6918333Y-4439286D02*
X6916429Y-4441190D01*
X6910714Y-4443095D01*
X6906905Y-4443095D01*
X6901191Y-4441190D01*
X6897381Y-4437381D01*
X6895476Y-4433571D01*
X6893571Y-4425952D01*
X6893571Y-4420238D01*
X6895476Y-4412619D01*
X6897381Y-4408810D01*
X6901191Y-4405000D01*
X6906905Y-4403095D01*
X6910714Y-4403095D01*
X6916429Y-4405000D01*
X6918333Y-4406905D01*
X6941191Y-4420238D02*
X6937381Y-4418333D01*
X6935476Y-4416429D01*
X6933571Y-4412619D01*
X6933571Y-4410714D01*
X6935476Y-4406905D01*
X6937381Y-4405000D01*
X6941191Y-4403095D01*
X6948810Y-4403095D01*
X6952619Y-4405000D01*
X6954524Y-4406905D01*
X6956429Y-4410714D01*
X6956429Y-4412619D01*
X6954524Y-4416429D01*
X6952619Y-4418333D01*
X6948810Y-4420238D01*
X6941191Y-4420238D01*
X6937381Y-4422143D01*
X6935476Y-4424048D01*
X6933571Y-4427857D01*
X6933571Y-4435476D01*
X6935476Y-4439286D01*
X6937381Y-4441190D01*
X6941191Y-4443095D01*
X6948810Y-4443095D01*
X6952619Y-4441190D01*
X6954524Y-4439286D01*
X6956429Y-4435476D01*
X6956429Y-4427857D01*
X6954524Y-4424048D01*
X6952619Y-4422143D01*
X6948810Y-4420238D01*
X7468333Y-4389286D02*
X7466429Y-4391190D01*
X7460714Y-4393095D01*
X7456905Y-4393095D01*
X7451191Y-4391190D01*
X7447381Y-4387381D01*
X7445476Y-4383571D01*
X7443571Y-4375952D01*
X7443571Y-4370238D01*
X7445476Y-4362619D01*
X7447381Y-4358810D01*
X7451191Y-4355000D01*
X7456905Y-4353095D01*
X7460714Y-4353095D01*
X7466429Y-4355000D01*
X7468333Y-4356905D01*
X7487381Y-4393095D02*
X7495000Y-4393095D01*
X7498810Y-4391190D01*
X7500714Y-4389286D01*
X7504524Y-4383571D01*
X7506429Y-4375952D01*
X7506429Y-4360714D01*
X7504524Y-4356905D01*
X7502619Y-4355000D01*
X7498810Y-4353095D01*
X7491191Y-4353095D01*
X7487381Y-4355000D01*
X7485476Y-4356905D01*
X7483571Y-4360714D01*
X7483571Y-4370238D01*
X7485476Y-4374048D01*
X7487381Y-4375952D01*
X7491191Y-4377857D01*
X7498810Y-4377857D01*
X7502619Y-4375952D01*
X7504524Y-4374048D01*
X7506429Y-4370238D01*
X7374286Y-4264286D02*
X7372381Y-4266190D01*
X7366667Y-4268095D01*
X7362857Y-4268095D01*
X7357143Y-4266190D01*
X7353333Y-4262381D01*
X7351429Y-4258571D01*
X7349524Y-4250952D01*
X7349524Y-4245238D01*
X7351429Y-4237619D01*
X7353333Y-4233810D01*
X7357143Y-4230000D01*
X7362857Y-4228095D01*
X7366667Y-4228095D01*
X7372381Y-4230000D01*
X7374286Y-4231905D01*
X7412381Y-4268095D02*
X7389524Y-4268095D01*
X7400952Y-4268095D02*
X7400952Y-4228095D01*
X7397143Y-4233810D01*
X7393333Y-4237619D01*
X7389524Y-4239524D01*
X7437143Y-4228095D02*
X7440952Y-4228095D01*
X7444762Y-4230000D01*
X7446667Y-4231905D01*
X7448571Y-4235714D01*
X7450476Y-4243333D01*
X7450476Y-4252857D01*
X7448571Y-4260476D01*
X7446667Y-4264286D01*
X7444762Y-4266190D01*
X7440952Y-4268095D01*
X7437143Y-4268095D01*
X7433333Y-4266190D01*
X7431429Y-4264286D01*
X7429524Y-4260476D01*
X7427619Y-4252857D01*
X7427619Y-4243333D01*
X7429524Y-4235714D01*
X7431429Y-4231905D01*
X7433333Y-4230000D01*
X7437143Y-4228095D01*
X6659286Y-4609286D02*
X6657381Y-4611190D01*
X6651667Y-4613095D01*
X6647857Y-4613095D01*
X6642143Y-4611190D01*
X6638333Y-4607381D01*
X6636429Y-4603571D01*
X6634524Y-4595952D01*
X6634524Y-4590238D01*
X6636429Y-4582619D01*
X6638333Y-4578810D01*
X6642143Y-4575000D01*
X6647857Y-4573095D01*
X6651667Y-4573095D01*
X6657381Y-4575000D01*
X6659286Y-4576905D01*
X6697381Y-4613095D02*
X6674524Y-4613095D01*
X6685952Y-4613095D02*
X6685952Y-4573095D01*
X6682143Y-4578810D01*
X6678333Y-4582619D01*
X6674524Y-4584524D01*
X6735476Y-4613095D02*
X6712619Y-4613095D01*
X6724048Y-4613095D02*
X6724048Y-4573095D01*
X6720238Y-4578810D01*
X6716429Y-4582619D01*
X6712619Y-4584524D01*
X5999286Y-4289286D02*
X5997381Y-4291190D01*
X5991667Y-4293095D01*
X5987857Y-4293095D01*
X5982143Y-4291190D01*
X5978333Y-4287381D01*
X5976429Y-4283571D01*
X5974524Y-4275952D01*
X5974524Y-4270238D01*
X5976429Y-4262619D01*
X5978333Y-4258810D01*
X5982143Y-4255000D01*
X5987857Y-4253095D01*
X5991667Y-4253095D01*
X5997381Y-4255000D01*
X5999286Y-4256905D01*
X6037381Y-4293095D02*
X6014524Y-4293095D01*
X6025952Y-4293095D02*
X6025952Y-4253095D01*
X6022143Y-4258810D01*
X6018333Y-4262619D01*
X6014524Y-4264524D01*
X6052619Y-4256905D02*
X6054524Y-4255000D01*
X6058333Y-4253095D01*
X6067857Y-4253095D01*
X6071667Y-4255000D01*
X6073571Y-4256905D01*
X6075476Y-4260714D01*
X6075476Y-4264524D01*
X6073571Y-4270238D01*
X6050714Y-4293095D01*
X6075476Y-4293095D01*
X4924286Y-4539286D02*
X4922381Y-4541190D01*
X4916667Y-4543095D01*
X4912857Y-4543095D01*
X4907143Y-4541190D01*
X4903333Y-4537381D01*
X4901429Y-4533571D01*
X4899524Y-4525952D01*
X4899524Y-4520238D01*
X4901429Y-4512619D01*
X4903333Y-4508810D01*
X4907143Y-4505000D01*
X4912857Y-4503095D01*
X4916667Y-4503095D01*
X4922381Y-4505000D01*
X4924286Y-4506905D01*
X4962381Y-4543095D02*
X4939524Y-4543095D01*
X4950952Y-4543095D02*
X4950952Y-4503095D01*
X4947143Y-4508810D01*
X4943333Y-4512619D01*
X4939524Y-4514524D01*
X4975714Y-4503095D02*
X5000476Y-4503095D01*
X4987143Y-4518333D01*
X4992857Y-4518333D01*
X4996667Y-4520238D01*
X4998571Y-4522143D01*
X5000476Y-4525952D01*
X5000476Y-4535476D01*
X4998571Y-4539286D01*
X4996667Y-4541190D01*
X4992857Y-4543095D01*
X4981429Y-4543095D01*
X4977619Y-4541190D01*
X4975714Y-4539286D01*
X6495476Y-4268095D02*
X6495476Y-4228095D01*
X6505000Y-4228095D01*
X6510714Y-4230000D01*
X6514524Y-4233810D01*
X6516429Y-4237619D01*
X6518333Y-4245238D01*
X6518333Y-4250952D01*
X6516429Y-4258571D01*
X6514524Y-4262381D01*
X6510714Y-4266190D01*
X6505000Y-4268095D01*
X6495476Y-4268095D01*
X6556429Y-4268095D02*
X6533571Y-4268095D01*
X6545000Y-4268095D02*
X6545000Y-4228095D01*
X6541191Y-4233810D01*
X6537381Y-4237619D01*
X6533571Y-4239524D01*
X6534762Y-4377857D02*
X6565238Y-4377857D01*
X6566440Y-4130592D02*
X6566440Y-4100116D01*
X6581678Y-4115354D02*
X6551202Y-4115354D01*
X4895476Y-4218095D02*
X4895476Y-4178095D01*
X4905000Y-4178095D01*
X4910714Y-4180000D01*
X4914524Y-4183810D01*
X4916429Y-4187619D01*
X4918333Y-4195238D01*
X4918333Y-4200952D01*
X4916429Y-4208571D01*
X4914524Y-4212381D01*
X4910714Y-4216190D01*
X4905000Y-4218095D01*
X4895476Y-4218095D01*
X4933571Y-4181905D02*
X4935476Y-4180000D01*
X4939286Y-4178095D01*
X4948810Y-4178095D01*
X4952619Y-4180000D01*
X4954524Y-4181905D01*
X4956429Y-4185714D01*
X4956429Y-4189524D01*
X4954524Y-4195238D01*
X4931667Y-4218095D01*
X4956429Y-4218095D01*
X4759762Y-4177857D02*
X4790238Y-4177857D01*
X4759762Y-4452857D02*
X4790238Y-4452857D01*
X4775000Y-4468095D02*
X4775000Y-4437619D01*
X7456667Y-5353095D02*
X7456667Y-5381667D01*
X7454762Y-5387381D01*
X7450952Y-5391190D01*
X7445238Y-5393095D01*
X7441429Y-5393095D01*
X7496667Y-5393095D02*
X7473810Y-5393095D01*
X7485238Y-5393095D02*
X7485238Y-5353095D01*
X7481429Y-5358810D01*
X7477619Y-5362619D01*
X7473810Y-5364524D01*
X4611667Y-4178095D02*
X4611667Y-4206667D01*
X4609762Y-4212381D01*
X4605952Y-4216190D01*
X4600238Y-4218095D01*
X4596429Y-4218095D01*
X4628810Y-4181905D02*
X4630714Y-4180000D01*
X4634524Y-4178095D01*
X4644048Y-4178095D01*
X4647857Y-4180000D01*
X4649762Y-4181905D01*
X4651667Y-4185714D01*
X4651667Y-4189524D01*
X4649762Y-4195238D01*
X4626905Y-4218095D01*
X4651667Y-4218095D01*
X6069524Y-4118095D02*
X6069524Y-4078095D01*
X6092381Y-4118095D01*
X6092381Y-4078095D01*
X6132381Y-4118095D02*
X6109524Y-4118095D01*
X6120952Y-4118095D02*
X6120952Y-4078095D01*
X6117143Y-4083810D01*
X6113333Y-4087619D01*
X6109524Y-4089524D01*
X7669524Y-4473095D02*
X7669524Y-4433095D01*
X7692381Y-4473095D01*
X7692381Y-4433095D01*
X7707619Y-4433095D02*
X7732381Y-4433095D01*
X7719048Y-4448333D01*
X7724762Y-4448333D01*
X7728571Y-4450238D01*
X7730476Y-4452143D01*
X7732381Y-4455952D01*
X7732381Y-4465476D01*
X7730476Y-4469286D01*
X7728571Y-4471190D01*
X7724762Y-4473095D01*
X7713333Y-4473095D01*
X7709524Y-4471190D01*
X7707619Y-4469286D01*
X6944524Y-5743095D02*
X6944524Y-5703095D01*
X6967381Y-5743095D01*
X6967381Y-5703095D01*
X7003571Y-5716429D02*
X7003571Y-5743095D01*
X6994048Y-5701190D02*
X6984524Y-5729762D01*
X7009286Y-5729762D01*
X6995524Y-5661095D02*
X6995524Y-5621095D01*
X7018381Y-5661095D01*
X7018381Y-5621095D01*
X7056476Y-5621095D02*
X7037429Y-5621095D01*
X7035524Y-5640143D01*
X7037429Y-5638238D01*
X7041238Y-5636333D01*
X7050762Y-5636333D01*
X7054571Y-5638238D01*
X7056476Y-5640143D01*
X7058381Y-5643952D01*
X7058381Y-5653476D01*
X7056476Y-5657286D01*
X7054571Y-5659190D01*
X7050762Y-5661095D01*
X7041238Y-5661095D01*
X7037429Y-5659190D01*
X7035524Y-5657286D01*
X4894524Y-5643095D02*
X4894524Y-5603095D01*
X4917381Y-5643095D01*
X4917381Y-5603095D01*
X4932619Y-5603095D02*
X4959286Y-5603095D01*
X4942143Y-5643095D01*
X6444524Y-4118095D02*
X6444524Y-4078095D01*
X6467381Y-4118095D01*
X6467381Y-4078095D01*
X6492143Y-4095238D02*
X6488333Y-4093333D01*
X6486429Y-4091429D01*
X6484524Y-4087619D01*
X6484524Y-4085714D01*
X6486429Y-4081905D01*
X6488333Y-4080000D01*
X6492143Y-4078095D01*
X6499762Y-4078095D01*
X6503571Y-4080000D01*
X6505476Y-4081905D01*
X6507381Y-4085714D01*
X6507381Y-4087619D01*
X6505476Y-4091429D01*
X6503571Y-4093333D01*
X6499762Y-4095238D01*
X6492143Y-4095238D01*
X6488333Y-4097143D01*
X6486429Y-4099048D01*
X6484524Y-4102857D01*
X6484524Y-4110476D01*
X6486429Y-4114286D01*
X6488333Y-4116190D01*
X6492143Y-4118095D01*
X6499762Y-4118095D01*
X6503571Y-4116190D01*
X6505476Y-4114286D01*
X6507381Y-4110476D01*
X6507381Y-4102857D01*
X6505476Y-4099048D01*
X6503571Y-4097143D01*
X6499762Y-4095238D01*
X6444524Y-5643095D02*
X6444524Y-5603095D01*
X6467381Y-5643095D01*
X6467381Y-5603095D01*
X6488333Y-5643095D02*
X6495952Y-5643095D01*
X6499762Y-5641190D01*
X6501667Y-5639286D01*
X6505476Y-5633571D01*
X6507381Y-5625952D01*
X6507381Y-5610714D01*
X6505476Y-5606905D01*
X6503571Y-5605000D01*
X6499762Y-5603095D01*
X6492143Y-5603095D01*
X6488333Y-5605000D01*
X6486429Y-5606905D01*
X6484524Y-5610714D01*
X6484524Y-5620238D01*
X6486429Y-5624048D01*
X6488333Y-5625952D01*
X6492143Y-5627857D01*
X6499762Y-5627857D01*
X6503571Y-5625952D01*
X6505476Y-5624048D01*
X6507381Y-5620238D01*
X7268333Y-5418095D02*
X7255000Y-5399048D01*
X7245476Y-5418095D02*
X7245476Y-5378095D01*
X7260714Y-5378095D01*
X7264524Y-5380000D01*
X7266429Y-5381905D01*
X7268333Y-5385714D01*
X7268333Y-5391429D01*
X7266429Y-5395238D01*
X7264524Y-5397143D01*
X7260714Y-5399048D01*
X7245476Y-5399048D01*
X7306429Y-5418095D02*
X7283571Y-5418095D01*
X7295000Y-5418095D02*
X7295000Y-5378095D01*
X7291191Y-5383810D01*
X7287381Y-5387619D01*
X7283571Y-5389524D01*
X6393333Y-5268095D02*
X6380000Y-5249048D01*
X6370476Y-5268095D02*
X6370476Y-5228095D01*
X6385714Y-5228095D01*
X6389524Y-5230000D01*
X6391429Y-5231905D01*
X6393333Y-5235714D01*
X6393333Y-5241429D01*
X6391429Y-5245238D01*
X6389524Y-5247143D01*
X6385714Y-5249048D01*
X6370476Y-5249048D01*
X6408571Y-5231905D02*
X6410476Y-5230000D01*
X6414286Y-5228095D01*
X6423810Y-5228095D01*
X6427619Y-5230000D01*
X6429524Y-5231905D01*
X6431429Y-5235714D01*
X6431429Y-5239524D01*
X6429524Y-5245238D01*
X6406667Y-5268095D01*
X6431429Y-5268095D01*
X6718333Y-4118095D02*
X6705000Y-4099048D01*
X6695476Y-4118095D02*
X6695476Y-4078095D01*
X6710714Y-4078095D01*
X6714524Y-4080000D01*
X6716429Y-4081905D01*
X6718333Y-4085714D01*
X6718333Y-4091429D01*
X6716429Y-4095238D01*
X6714524Y-4097143D01*
X6710714Y-4099048D01*
X6695476Y-4099048D01*
X6731667Y-4078095D02*
X6756429Y-4078095D01*
X6743095Y-4093333D01*
X6748810Y-4093333D01*
X6752619Y-4095238D01*
X6754524Y-4097143D01*
X6756429Y-4100952D01*
X6756429Y-4110476D01*
X6754524Y-4114286D01*
X6752619Y-4116190D01*
X6748810Y-4118095D01*
X6737381Y-4118095D01*
X6733571Y-4116190D01*
X6731667Y-4114286D01*
X4343333Y-4693095D02*
X4330000Y-4674048D01*
X4320476Y-4693095D02*
X4320476Y-4653095D01*
X4335714Y-4653095D01*
X4339524Y-4655000D01*
X4341429Y-4656905D01*
X4343333Y-4660714D01*
X4343333Y-4666429D01*
X4341429Y-4670238D01*
X4339524Y-4672143D01*
X4335714Y-4674048D01*
X4320476Y-4674048D01*
X4377619Y-4666429D02*
X4377619Y-4693095D01*
X4368095Y-4651190D02*
X4358571Y-4679762D01*
X4383333Y-4679762D01*
X4343333Y-4568095D02*
X4330000Y-4549048D01*
X4320476Y-4568095D02*
X4320476Y-4528095D01*
X4335714Y-4528095D01*
X4339524Y-4530000D01*
X4341429Y-4531905D01*
X4343333Y-4535714D01*
X4343333Y-4541429D01*
X4341429Y-4545238D01*
X4339524Y-4547143D01*
X4335714Y-4549048D01*
X4320476Y-4549048D01*
X4379524Y-4528095D02*
X4360476Y-4528095D01*
X4358571Y-4547143D01*
X4360476Y-4545238D01*
X4364286Y-4543333D01*
X4373810Y-4543333D01*
X4377619Y-4545238D01*
X4379524Y-4547143D01*
X4381429Y-4550952D01*
X4381429Y-4560476D01*
X4379524Y-4564286D01*
X4377619Y-4566190D01*
X4373810Y-4568095D01*
X4364286Y-4568095D01*
X4360476Y-4566190D01*
X4358571Y-4564286D01*
X7421667Y-4041190D02*
X7427381Y-4043095D01*
X7436905Y-4043095D01*
X7440714Y-4041190D01*
X7442619Y-4039286D01*
X7444524Y-4035476D01*
X7444524Y-4031667D01*
X7442619Y-4027857D01*
X7440714Y-4025952D01*
X7436905Y-4024048D01*
X7429286Y-4022143D01*
X7425476Y-4020238D01*
X7423571Y-4018333D01*
X7421667Y-4014524D01*
X7421667Y-4010714D01*
X7423571Y-4006905D01*
X7425476Y-4005000D01*
X7429286Y-4003095D01*
X7438810Y-4003095D01*
X7444524Y-4005000D01*
X7457857Y-4003095D02*
X7467381Y-4043095D01*
X7475000Y-4014524D01*
X7482619Y-4043095D01*
X7492143Y-4003095D01*
X7528333Y-4043095D02*
X7505476Y-4043095D01*
X7516905Y-4043095D02*
X7516905Y-4003095D01*
X7513095Y-4008810D01*
X7509286Y-4012619D01*
X7505476Y-4014524D01*
X6169524Y-4503095D02*
X6169524Y-4535476D01*
X6171429Y-4539286D01*
X6173333Y-4541190D01*
X6177143Y-4543095D01*
X6184762Y-4543095D01*
X6188571Y-4541190D01*
X6190476Y-4539286D01*
X6192381Y-4535476D01*
X6192381Y-4503095D01*
X6232381Y-4543095D02*
X6209524Y-4543095D01*
X6220952Y-4543095D02*
X6220952Y-4503095D01*
X6217143Y-4508810D01*
X6213333Y-4512619D01*
X6209524Y-4514524D01*
X6919524Y-4898095D02*
X6919524Y-4930476D01*
X6921429Y-4934286D01*
X6923333Y-4936190D01*
X6927143Y-4938095D01*
X6934762Y-4938095D01*
X6938571Y-4936190D01*
X6940476Y-4934286D01*
X6942381Y-4930476D01*
X6942381Y-4898095D01*
X6959524Y-4901905D02*
X6961429Y-4900000D01*
X6965238Y-4898095D01*
X6974762Y-4898095D01*
X6978571Y-4900000D01*
X6980476Y-4901905D01*
X6982381Y-4905714D01*
X6982381Y-4909524D01*
X6980476Y-4915238D01*
X6957619Y-4938095D01*
X6982381Y-4938095D01*
X7014524Y-5123095D02*
X7014524Y-5155476D01*
X7016429Y-5159286D01*
X7018333Y-5161190D01*
X7022143Y-5163095D01*
X7029762Y-5163095D01*
X7033571Y-5161190D01*
X7035476Y-5159286D01*
X7037381Y-5155476D01*
X7037381Y-5123095D01*
X7052619Y-5123095D02*
X7077381Y-5123095D01*
X7064048Y-5138333D01*
X7069762Y-5138333D01*
X7073571Y-5140238D01*
X7075476Y-5142143D01*
X7077381Y-5145952D01*
X7077381Y-5155476D01*
X7075476Y-5159286D01*
X7073571Y-5161190D01*
X7069762Y-5163095D01*
X7058333Y-5163095D01*
X7054524Y-5161190D01*
X7052619Y-5159286D01*
X7294524Y-4638095D02*
X7294524Y-4670476D01*
X7296429Y-4674286D01*
X7298333Y-4676190D01*
X7302143Y-4678095D01*
X7309762Y-4678095D01*
X7313571Y-4676190D01*
X7315476Y-4674286D01*
X7317381Y-4670476D01*
X7317381Y-4638095D01*
X7353571Y-4651429D02*
X7353571Y-4678095D01*
X7344048Y-4636190D02*
X7334524Y-4664762D01*
X7359286Y-4664762D01*
X4144524Y-5478095D02*
X4144524Y-5510476D01*
X4146429Y-5514286D01*
X4148333Y-5516190D01*
X4152143Y-5518095D01*
X4159762Y-5518095D01*
X4163571Y-5516190D01*
X4165476Y-5514286D01*
X4167381Y-5510476D01*
X4167381Y-5478095D01*
X4205476Y-5478095D02*
X4186429Y-5478095D01*
X4184524Y-5497143D01*
X4186429Y-5495238D01*
X4190238Y-5493333D01*
X4199762Y-5493333D01*
X4203571Y-5495238D01*
X4205476Y-5497143D01*
X4207381Y-5500952D01*
X4207381Y-5510476D01*
X4205476Y-5514286D01*
X4203571Y-5516190D01*
X4199762Y-5518095D01*
X4190238Y-5518095D01*
X4186429Y-5516190D01*
X4184524Y-5514286D01*
X7044524Y-4638095D02*
X7044524Y-4670476D01*
X7046429Y-4674286D01*
X7048333Y-4676190D01*
X7052143Y-4678095D01*
X7059762Y-4678095D01*
X7063571Y-4676190D01*
X7065476Y-4674286D01*
X7067381Y-4670476D01*
X7067381Y-4638095D01*
X7103571Y-4638095D02*
X7095952Y-4638095D01*
X7092143Y-4640000D01*
X7090238Y-4641905D01*
X7086429Y-4647619D01*
X7084524Y-4655238D01*
X7084524Y-4670476D01*
X7086429Y-4674286D01*
X7088333Y-4676190D01*
X7092143Y-4678095D01*
X7099762Y-4678095D01*
X7103571Y-4676190D01*
X7105476Y-4674286D01*
X7107381Y-4670476D01*
X7107381Y-4660952D01*
X7105476Y-4657143D01*
X7103571Y-4655238D01*
X7099762Y-4653333D01*
X7092143Y-4653333D01*
X7088333Y-4655238D01*
X7086429Y-4657143D01*
X7084524Y-4660952D01*
X5444524Y-4203095D02*
X5444524Y-4235476D01*
X5446429Y-4239286D01*
X5448333Y-4241190D01*
X5452143Y-4243095D01*
X5459762Y-4243095D01*
X5463571Y-4241190D01*
X5465476Y-4239286D01*
X5467381Y-4235476D01*
X5467381Y-4203095D01*
X5482619Y-4203095D02*
X5509286Y-4203095D01*
X5492143Y-4243095D01*
X5322619Y-5478095D02*
X5349286Y-5518095D01*
X5349286Y-5478095D02*
X5322619Y-5518095D01*
X5385476Y-5518095D02*
X5362619Y-5518095D01*
X5374048Y-5518095D02*
X5374048Y-5478095D01*
X5370238Y-5483810D01*
X5366429Y-5487619D01*
X5362619Y-5489524D01*
X5567619Y-4178095D02*
X5594286Y-4218095D01*
X5594286Y-4178095D02*
X5567619Y-4218095D01*
X5607619Y-4181905D02*
X5609524Y-4180000D01*
X5613333Y-4178095D01*
X5622857Y-4178095D01*
X5626667Y-4180000D01*
X5628571Y-4181905D01*
X5630476Y-4185714D01*
X5630476Y-4189524D01*
X5628571Y-4195238D01*
X5605714Y-4218095D01*
X5630476Y-4218095D01*
X5441667Y-4607619D02*
X5425000Y-4583810D01*
X5413095Y-4607619D02*
X5413095Y-4557619D01*
X5432143Y-4557619D01*
X5436905Y-4560000D01*
X5439286Y-4562381D01*
X5441667Y-4567143D01*
X5441667Y-4574286D01*
X5439286Y-4579048D01*
X5436905Y-4581429D01*
X5432143Y-4583810D01*
X5413095Y-4583810D01*
X5484524Y-4557619D02*
X5475000Y-4557619D01*
X5470238Y-4560000D01*
X5467857Y-4562381D01*
X5463095Y-4569524D01*
X5460714Y-4579048D01*
X5460714Y-4598095D01*
X5463095Y-4602857D01*
X5465476Y-4605238D01*
X5470238Y-4607619D01*
X5479762Y-4607619D01*
X5484524Y-4605238D01*
X5486905Y-4602857D01*
X5489286Y-4598095D01*
X5489286Y-4586190D01*
X5486905Y-4581429D01*
X5484524Y-4579048D01*
X5479762Y-4576667D01*
X5470238Y-4576667D01*
X5465476Y-4579048D01*
X5463095Y-4581429D01*
X5460714Y-4586190D01*
X7655941Y-5712781D02*
X7655941Y-5672781D01*
X7655941Y-5691828D02*
X7678798Y-5691828D01*
X7678798Y-5712781D02*
X7678798Y-5672781D01*
X7714989Y-5686114D02*
X7714989Y-5712781D01*
X7705465Y-5670876D02*
X7695941Y-5699447D01*
X7720703Y-5699447D01*
X4112634Y-5712781D02*
X4112634Y-5672781D01*
X4112634Y-5691828D02*
X4135491Y-5691828D01*
X4135491Y-5712781D02*
X4135491Y-5672781D01*
X4150729Y-5672781D02*
X4175491Y-5672781D01*
X4162158Y-5688019D01*
X4167872Y-5688019D01*
X4171682Y-5689924D01*
X4173586Y-5691828D01*
X4175491Y-5695638D01*
X4175491Y-5705162D01*
X4173586Y-5708971D01*
X4171682Y-5710876D01*
X4167872Y-5712781D01*
X4156444Y-5712781D01*
X4152634Y-5710876D01*
X4150729Y-5708971D01*
X7655941Y-4137978D02*
X7655941Y-4097978D01*
X7655941Y-4117025D02*
X7678798Y-4117025D01*
X7678798Y-4137978D02*
X7678798Y-4097978D01*
X7695941Y-4101787D02*
X7697846Y-4099882D01*
X7701655Y-4097978D01*
X7711179Y-4097978D01*
X7714989Y-4099882D01*
X7716894Y-4101787D01*
X7718798Y-4105597D01*
X7718798Y-4109406D01*
X7716894Y-4115120D01*
X7694036Y-4137978D01*
X7718798Y-4137978D01*
X4112634Y-4531678D02*
X4112634Y-4491678D01*
X4112634Y-4510726D02*
X4135491Y-4510726D01*
X4135491Y-4531678D02*
X4135491Y-4491678D01*
X4175491Y-4531678D02*
X4152634Y-4531678D01*
X4164063Y-4531678D02*
X4164063Y-4491678D01*
X4160253Y-4497393D01*
X4156444Y-4501202D01*
X4152634Y-4503107D01*
X6251429Y-5022143D02*
X6257143Y-5024048D01*
X6259048Y-5025952D01*
X6260952Y-5029762D01*
X6260952Y-5035476D01*
X6259048Y-5039286D01*
X6257143Y-5041190D01*
X6253333Y-5043095D01*
X6238095Y-5043095D01*
X6238095Y-5003095D01*
X6251429Y-5003095D01*
X6255238Y-5005000D01*
X6257143Y-5006905D01*
X6259048Y-5010714D01*
X6259048Y-5014524D01*
X6257143Y-5018333D01*
X6255238Y-5020238D01*
X6251429Y-5022143D01*
X6238095Y-5022143D01*
X6276191Y-5031667D02*
X6295238Y-5031667D01*
X6272381Y-5043095D02*
X6285714Y-5003095D01*
X6299048Y-5043095D01*
X6306667Y-5003095D02*
X6329524Y-5003095D01*
X6318095Y-5043095D02*
X6318095Y-5003095D01*
X6363810Y-5043095D02*
X6340952Y-5043095D01*
X6352381Y-5043095D02*
X6352381Y-5003095D01*
X6348571Y-5008810D01*
X6344762Y-5012619D01*
X6340952Y-5014524D01*
M02*
