M48
;DRILL file {kicad (2014-jul-16 BZR unknown)-product} date Tue 13 Jan 2015 03:14:53 PM PST
;FORMAT={2:4/ absolute / inch / suppress leading zeros}
FMAT,2
INCH,TZ
T1C0.025
T2C0.030
T3C0.031
T4C0.032
T5C0.032
T6C0.039
T7C0.039
T8C0.040
T9C0.047
T10C0.050
T11C0.125
%
G90
G05
M72
T1
X47250Y-51500
X49000Y-53000
X49750Y-51500
X50750Y-51500
X51000Y-53000
X54750Y-49520
X55250Y-51500
X56500Y-49000
X57500Y-49500
X57750Y-51500
X60250Y-49250
X60250Y-51500
X61000Y-42250
X61000Y-44500
X61000Y-48250
X61750Y-49250
X61750Y-51500
X64000Y-44750
X64000Y-51000
X66500Y-45250
X67250Y-49250
X67250Y-50750
X67250Y-52000
X67250Y-53000
X67250Y-54500
X68250Y-49250
X68250Y-56000
X68399Y-54149
X68500Y-55000
X69750Y-47500
T2
X47750Y-42500
X47750Y-43500
X70250Y-46000
X70750Y-45250
X71250Y-46000
X72750Y-46000
X73250Y-45250
X73750Y-46000
T3
X62242Y-43998
X63758Y-48002
T4
X49500Y-43250
X49500Y-44250
X50000Y-46750
X50000Y-55000
X51000Y-46750
X51000Y-55000
X51000Y-58000
X52000Y-58000
X52539Y-56250
X53500Y-58000
X54461Y-56250
X54500Y-58000
X58000Y-42500
X59000Y-42500
X67250Y-48000
X68000Y-46000
X68250Y-48000
X69000Y-46000
X69500Y-41500
X69500Y-42500
X70250Y-43750
X71250Y-43750
X71500Y-51750
X71750Y-42500
X72500Y-51750
X72750Y-42500
X72750Y-43750
X73750Y-43750
T5
X41000Y-48000
X41000Y-54000
X42000Y-48000
X42000Y-54000
X43000Y-48000
X43000Y-54000
X44000Y-48000
X44000Y-54000
X45000Y-48000
X45000Y-54000
X46000Y-48000
X46000Y-54000
X47000Y-48000
X47000Y-54000
X48000Y-48000
X48000Y-54000
X49000Y-48000
X49000Y-54000
X50000Y-48000
X50000Y-54000
X50750Y-42250
X50750Y-45250
X51000Y-48000
X51000Y-54000
X51750Y-42250
X51750Y-45250
X52000Y-48000
X52000Y-54000
X52750Y-42250
X52750Y-45250
X53000Y-48000
X53000Y-54000
X53750Y-42250
X53750Y-45250
X54000Y-48000
X54000Y-54000
X55000Y-48000
X55000Y-54000
X56000Y-48000
X56000Y-54000
X57000Y-48000
X57000Y-54000
X58000Y-43500
X58000Y-46500
X58000Y-48000
X58000Y-54000
X59000Y-43500
X59000Y-46500
X59000Y-48000
X59000Y-54000
X60000Y-43500
X60000Y-46500
X60000Y-48000
X60000Y-54000
X61000Y-43500
X61000Y-46500
X66250Y-50000
X66250Y-51000
X66250Y-52000
X66250Y-53000
X66250Y-54000
X66250Y-55000
X66250Y-56000
X69250Y-50000
X69250Y-51000
X69250Y-52000
X69250Y-53000
X69250Y-54000
X69250Y-55000
X69250Y-56000
X70500Y-47500
X70500Y-48500
X70500Y-49500
X70500Y-50500
X73500Y-47500
X73500Y-48500
X73500Y-49500
X73500Y-50500
T6
X55000Y-43500
X55500Y-45469
X56500Y-45469
X57000Y-43500
T7
X44500Y-45500
X44500Y-46750
X48500Y-45500
X48500Y-46750
X66250Y-44500
X68000Y-40500
X68000Y-44500
X73750Y-52000
X73750Y-56000
T8
X41000Y-40000
X41000Y-41000
X42000Y-40000
X42000Y-41000
X43000Y-40000
X43000Y-41000
X44000Y-40000
X44000Y-41000
X44250Y-42500
X44250Y-43500
X45000Y-40000
X45000Y-41000
X45250Y-42500
X45250Y-43500
X46000Y-40000
X46000Y-41000
X47000Y-40000
X47000Y-41000
X47000Y-57250
X47000Y-58250
X48000Y-40000
X48000Y-41000
X48000Y-57250
X48000Y-58250
X49000Y-40000
X49000Y-41000
X49000Y-57250
X49000Y-58250
X50000Y-40000
X50000Y-41000
X51000Y-40000
X51000Y-41000
X52000Y-40000
X52000Y-41000
X52500Y-46750
X53000Y-40000
X53000Y-41000
X53500Y-46750
X54000Y-40000
X54000Y-41000
X54500Y-46750
X55000Y-40000
X55000Y-41000
X55500Y-46750
X56000Y-40000
X56000Y-41000
X56500Y-46750
X57000Y-40000
X57000Y-41000
X58000Y-40000
X58000Y-41000
X58000Y-56000
X58000Y-57000
X59000Y-40000
X59000Y-41000
X59000Y-56000
X59000Y-57000
X60000Y-40000
X60000Y-41000
X60000Y-56000
X60000Y-57000
X61000Y-56000
X61000Y-57000
X62000Y-40000
X62000Y-56000
X62000Y-57000
X63000Y-40000
X64000Y-40000
X64750Y-58250
X65000Y-40000
X65000Y-50000
X65000Y-51000
X65000Y-52000
X65000Y-53000
X65000Y-54000
X65000Y-55000
X65750Y-58250
X66750Y-58250
X67750Y-58250
X68750Y-58250
X69750Y-58250
X71250Y-53000
X71250Y-54000
X71250Y-55000
X71250Y-56000
X71250Y-57000
X71250Y-58000
X75500Y-53750
X76000Y-47000
X76000Y-48000
X76000Y-49000
X76000Y-50000
X76000Y-51000
X76500Y-53750
X77000Y-47000
X77000Y-48000
X77000Y-49000
X77000Y-50000
X77000Y-51000
X77500Y-53750
T9
X70970Y-40250
X73530Y-40250
T10
X66250Y-40500
T11
X41339Y-45276
X41339Y-57087
X76772Y-41339
X76772Y-57087
T0
M30
