%FSLAX36Y36*%
G04 Gerber Fmt 3.6, Leading zero omitted, Abs format (unit inch)*
G04 Created by KiCad (PCBNEW (2014-jul-16 BZR unknown)-product) date Sun 08 Feb 2015 08:42:31 PM PST*
%MOIN*%
G01*
G04 APERTURE LIST*
%ADD10C,0.003937*%
%ADD11C,0.008000*%
%ADD12C,0.000100*%
%ADD13C,0.010000*%
G04 APERTURE END LIST*
D10*
D11*
X5727143Y-5083143D02*
X5721429Y-5085048D01*
X5719524Y-5086952D01*
X5717619Y-5090762D01*
X5717619Y-5096476D01*
X5719524Y-5100286D01*
X5721429Y-5102190D01*
X5725238Y-5104095D01*
X5740476Y-5104095D01*
X5740476Y-5064095D01*
X5727143Y-5064095D01*
X5723333Y-5066000D01*
X5721429Y-5067905D01*
X5719524Y-5071714D01*
X5719524Y-5075524D01*
X5721429Y-5079333D01*
X5723333Y-5081238D01*
X5727143Y-5083143D01*
X5740476Y-5083143D01*
X5700476Y-5064095D02*
X5700476Y-5096476D01*
X5698571Y-5100286D01*
X5696667Y-5102190D01*
X5692857Y-5104095D01*
X5685238Y-5104095D01*
X5681429Y-5102190D01*
X5679524Y-5100286D01*
X5677619Y-5096476D01*
X5677619Y-5064095D01*
X5660476Y-5102190D02*
X5654762Y-5104095D01*
X5645238Y-5104095D01*
X5641429Y-5102190D01*
X5639524Y-5100286D01*
X5637619Y-5096476D01*
X5637619Y-5092667D01*
X5639524Y-5088857D01*
X5641429Y-5086952D01*
X5645238Y-5085048D01*
X5652857Y-5083143D01*
X5656667Y-5081238D01*
X5658571Y-5079333D01*
X5660476Y-5075524D01*
X5660476Y-5071714D01*
X5658571Y-5067905D01*
X5656667Y-5066000D01*
X5652857Y-5064095D01*
X5643333Y-5064095D01*
X5637619Y-5066000D01*
X5567143Y-5104095D02*
X5580476Y-5085048D01*
X5590000Y-5104095D02*
X5590000Y-5064095D01*
X5574762Y-5064095D01*
X5570952Y-5066000D01*
X5569048Y-5067905D01*
X5567143Y-5071714D01*
X5567143Y-5077429D01*
X5569048Y-5081238D01*
X5570952Y-5083143D01*
X5574762Y-5085048D01*
X5590000Y-5085048D01*
X5551905Y-5092667D02*
X5532857Y-5092667D01*
X5555714Y-5104095D02*
X5542381Y-5064095D01*
X5529048Y-5104095D01*
X5517619Y-5102190D02*
X5511905Y-5104095D01*
X5502381Y-5104095D01*
X5498571Y-5102190D01*
X5496667Y-5100286D01*
X5494762Y-5096476D01*
X5494762Y-5092667D01*
X5496667Y-5088857D01*
X5498571Y-5086952D01*
X5502381Y-5085048D01*
X5510000Y-5083143D01*
X5513810Y-5081238D01*
X5515714Y-5079333D01*
X5517619Y-5075524D01*
X5517619Y-5071714D01*
X5515714Y-5067905D01*
X5513810Y-5066000D01*
X5510000Y-5064095D01*
X5500476Y-5064095D01*
X5494762Y-5066000D01*
X5477619Y-5104095D02*
X5477619Y-5064095D01*
X5462381Y-5064095D01*
X5458571Y-5066000D01*
X5456667Y-5067905D01*
X5454762Y-5071714D01*
X5454762Y-5077429D01*
X5456667Y-5081238D01*
X5458571Y-5083143D01*
X5462381Y-5085048D01*
X5477619Y-5085048D01*
X5424286Y-5083143D02*
X5418571Y-5085048D01*
X5416667Y-5086952D01*
X5414762Y-5090762D01*
X5414762Y-5096476D01*
X5416667Y-5100286D01*
X5418571Y-5102190D01*
X5422381Y-5104095D01*
X5437619Y-5104095D01*
X5437619Y-5064095D01*
X5424286Y-5064095D01*
X5420476Y-5066000D01*
X5418571Y-5067905D01*
X5416667Y-5071714D01*
X5416667Y-5075524D01*
X5418571Y-5079333D01*
X5420476Y-5081238D01*
X5424286Y-5083143D01*
X5437619Y-5083143D01*
X5397619Y-5083143D02*
X5384286Y-5083143D01*
X5378571Y-5104095D02*
X5397619Y-5104095D01*
X5397619Y-5064095D01*
X5378571Y-5064095D01*
X5338571Y-5104095D02*
X5351905Y-5085048D01*
X5361429Y-5104095D02*
X5361429Y-5064095D01*
X5346191Y-5064095D01*
X5342381Y-5066000D01*
X5340476Y-5067905D01*
X5338571Y-5071714D01*
X5338571Y-5077429D01*
X5340476Y-5081238D01*
X5342381Y-5083143D01*
X5346191Y-5085048D01*
X5361429Y-5085048D01*
X5298571Y-5104095D02*
X5311905Y-5085048D01*
X5321429Y-5104095D02*
X5321429Y-5064095D01*
X5306191Y-5064095D01*
X5302381Y-5066000D01*
X5300476Y-5067905D01*
X5298571Y-5071714D01*
X5298571Y-5077429D01*
X5300476Y-5081238D01*
X5302381Y-5083143D01*
X5306191Y-5085048D01*
X5321429Y-5085048D01*
X5273810Y-5085048D02*
X5273810Y-5104095D01*
X5287143Y-5064095D02*
X5273810Y-5085048D01*
X5260476Y-5064095D01*
X5216667Y-5104095D02*
X5216667Y-5064095D01*
X5201429Y-5064095D01*
X5197619Y-5066000D01*
X5195714Y-5067905D01*
X5193810Y-5071714D01*
X5193810Y-5077429D01*
X5195714Y-5081238D01*
X5197619Y-5083143D01*
X5201429Y-5085048D01*
X5216667Y-5085048D01*
X5176667Y-5104095D02*
X5176667Y-5064095D01*
X5717619Y-5168095D02*
X5730952Y-5149048D01*
X5740476Y-5168095D02*
X5740476Y-5128095D01*
X5725238Y-5128095D01*
X5721429Y-5130000D01*
X5719524Y-5131905D01*
X5717619Y-5135714D01*
X5717619Y-5141429D01*
X5719524Y-5145238D01*
X5721429Y-5147143D01*
X5725238Y-5149048D01*
X5740476Y-5149048D01*
X5700476Y-5147143D02*
X5687143Y-5147143D01*
X5681429Y-5168095D02*
X5700476Y-5168095D01*
X5700476Y-5128095D01*
X5681429Y-5128095D01*
X5670000Y-5128095D02*
X5656667Y-5168095D01*
X5643333Y-5128095D01*
X5630000Y-5164286D02*
X5628095Y-5166190D01*
X5630000Y-5168095D01*
X5631905Y-5166190D01*
X5630000Y-5164286D01*
X5630000Y-5168095D01*
X5557619Y-5164286D02*
X5559524Y-5166190D01*
X5565238Y-5168095D01*
X5569048Y-5168095D01*
X5574762Y-5166190D01*
X5578571Y-5162381D01*
X5580476Y-5158571D01*
X5582381Y-5150952D01*
X5582381Y-5145238D01*
X5580476Y-5137619D01*
X5578571Y-5133810D01*
X5574762Y-5130000D01*
X5569048Y-5128095D01*
X5565238Y-5128095D01*
X5559524Y-5130000D01*
X5557619Y-5131905D01*
X5473810Y-5145238D02*
X5477619Y-5143333D01*
X5479524Y-5141429D01*
X5481429Y-5137619D01*
X5481429Y-5135714D01*
X5479524Y-5131905D01*
X5477619Y-5130000D01*
X5473810Y-5128095D01*
X5466191Y-5128095D01*
X5462381Y-5130000D01*
X5460476Y-5131905D01*
X5458571Y-5135714D01*
X5458571Y-5137619D01*
X5460476Y-5141429D01*
X5462381Y-5143333D01*
X5466191Y-5145238D01*
X5473810Y-5145238D01*
X5477619Y-5147143D01*
X5479524Y-5149048D01*
X5481429Y-5152857D01*
X5481429Y-5160476D01*
X5479524Y-5164286D01*
X5477619Y-5166190D01*
X5473810Y-5168095D01*
X5466191Y-5168095D01*
X5462381Y-5166190D01*
X5460476Y-5164286D01*
X5458571Y-5160476D01*
X5458571Y-5152857D01*
X5460476Y-5149048D01*
X5462381Y-5147143D01*
X5466191Y-5145238D01*
X5428095Y-5147143D02*
X5441429Y-5147143D01*
X5441429Y-5168095D02*
X5441429Y-5128095D01*
X5422381Y-5128095D01*
X5407143Y-5147143D02*
X5393810Y-5147143D01*
X5388095Y-5168095D02*
X5407143Y-5168095D01*
X5407143Y-5128095D01*
X5388095Y-5128095D01*
X5357619Y-5147143D02*
X5351905Y-5149048D01*
X5350000Y-5150952D01*
X5348095Y-5154762D01*
X5348095Y-5160476D01*
X5350000Y-5164286D01*
X5351905Y-5166190D01*
X5355714Y-5168095D01*
X5370952Y-5168095D01*
X5370952Y-5128095D01*
X5357619Y-5128095D01*
X5353810Y-5130000D01*
X5351905Y-5131905D01*
X5350000Y-5135714D01*
X5350000Y-5139524D01*
X5351905Y-5143333D01*
X5353810Y-5145238D01*
X5357619Y-5147143D01*
X5370952Y-5147143D01*
X5332857Y-5131905D02*
X5330952Y-5130000D01*
X5327143Y-5128095D01*
X5317619Y-5128095D01*
X5313810Y-5130000D01*
X5311905Y-5131905D01*
X5310000Y-5135714D01*
X5310000Y-5139524D01*
X5311905Y-5145238D01*
X5334762Y-5168095D01*
X5310000Y-5168095D01*
X5285238Y-5128095D02*
X5281429Y-5128095D01*
X5277619Y-5130000D01*
X5275714Y-5131905D01*
X5273810Y-5135714D01*
X5271905Y-5143333D01*
X5271905Y-5152857D01*
X5273810Y-5160476D01*
X5275714Y-5164286D01*
X5277619Y-5166190D01*
X5281429Y-5168095D01*
X5285238Y-5168095D01*
X5289048Y-5166190D01*
X5290952Y-5164286D01*
X5292857Y-5160476D01*
X5294762Y-5152857D01*
X5294762Y-5143333D01*
X5292857Y-5135714D01*
X5290952Y-5131905D01*
X5289048Y-5130000D01*
X5285238Y-5128095D01*
X5233810Y-5168095D02*
X5256667Y-5168095D01*
X5245238Y-5168095D02*
X5245238Y-5128095D01*
X5249048Y-5133810D01*
X5252857Y-5137619D01*
X5256667Y-5139524D01*
X5197619Y-5128095D02*
X5216667Y-5128095D01*
X5218571Y-5147143D01*
X5216667Y-5145238D01*
X5212857Y-5143333D01*
X5203333Y-5143333D01*
X5199524Y-5145238D01*
X5197619Y-5147143D01*
X5195714Y-5150952D01*
X5195714Y-5160476D01*
X5197619Y-5164286D01*
X5199524Y-5166190D01*
X5203333Y-5168095D01*
X5212857Y-5168095D01*
X5216667Y-5166190D01*
X5218571Y-5164286D01*
X5729048Y-5247333D02*
X5730952Y-5245429D01*
X5734762Y-5239714D01*
X5736667Y-5235905D01*
X5738571Y-5230190D01*
X5740476Y-5220667D01*
X5740476Y-5213048D01*
X5738571Y-5203524D01*
X5736667Y-5197810D01*
X5734762Y-5194000D01*
X5730952Y-5188286D01*
X5729048Y-5186381D01*
X5690952Y-5228286D02*
X5692857Y-5230190D01*
X5698571Y-5232095D01*
X5702381Y-5232095D01*
X5708095Y-5230190D01*
X5711905Y-5226381D01*
X5713810Y-5222571D01*
X5715714Y-5214952D01*
X5715714Y-5209238D01*
X5713810Y-5201619D01*
X5711905Y-5197810D01*
X5708095Y-5194000D01*
X5702381Y-5192095D01*
X5698571Y-5192095D01*
X5692857Y-5194000D01*
X5690952Y-5195905D01*
X5677619Y-5247333D02*
X5675714Y-5245429D01*
X5671905Y-5239714D01*
X5670000Y-5235905D01*
X5668095Y-5230190D01*
X5666190Y-5220667D01*
X5666190Y-5213048D01*
X5668095Y-5203524D01*
X5670000Y-5197810D01*
X5671905Y-5194000D01*
X5675714Y-5188286D01*
X5677619Y-5186381D01*
X5618571Y-5195905D02*
X5616667Y-5194000D01*
X5612857Y-5192095D01*
X5603333Y-5192095D01*
X5599524Y-5194000D01*
X5597619Y-5195905D01*
X5595714Y-5199714D01*
X5595714Y-5203524D01*
X5597619Y-5209238D01*
X5620476Y-5232095D01*
X5595714Y-5232095D01*
X5570952Y-5192095D02*
X5567143Y-5192095D01*
X5563333Y-5194000D01*
X5561429Y-5195905D01*
X5559524Y-5199714D01*
X5557619Y-5207333D01*
X5557619Y-5216857D01*
X5559524Y-5224476D01*
X5561429Y-5228286D01*
X5563333Y-5230190D01*
X5567143Y-5232095D01*
X5570952Y-5232095D01*
X5574762Y-5230190D01*
X5576667Y-5228286D01*
X5578571Y-5224476D01*
X5580476Y-5216857D01*
X5580476Y-5207333D01*
X5578571Y-5199714D01*
X5576667Y-5195905D01*
X5574762Y-5194000D01*
X5570952Y-5192095D01*
X5519524Y-5232095D02*
X5542381Y-5232095D01*
X5530952Y-5232095D02*
X5530952Y-5192095D01*
X5534762Y-5197810D01*
X5538571Y-5201619D01*
X5542381Y-5203524D01*
X5483333Y-5192095D02*
X5502381Y-5192095D01*
X5504286Y-5211143D01*
X5502381Y-5209238D01*
X5498571Y-5207333D01*
X5489048Y-5207333D01*
X5485238Y-5209238D01*
X5483333Y-5211143D01*
X5481429Y-5214952D01*
X5481429Y-5224476D01*
X5483333Y-5228286D01*
X5485238Y-5230190D01*
X5489048Y-5232095D01*
X5498571Y-5232095D01*
X5502381Y-5230190D01*
X5504286Y-5228286D01*
X5412857Y-5194000D02*
X5416667Y-5192095D01*
X5422381Y-5192095D01*
X5428095Y-5194000D01*
X5431905Y-5197810D01*
X5433810Y-5201619D01*
X5435714Y-5209238D01*
X5435714Y-5214952D01*
X5433810Y-5222571D01*
X5431905Y-5226381D01*
X5428095Y-5230190D01*
X5422381Y-5232095D01*
X5418571Y-5232095D01*
X5412857Y-5230190D01*
X5410952Y-5228286D01*
X5410952Y-5214952D01*
X5418571Y-5214952D01*
X5370952Y-5232095D02*
X5384286Y-5213048D01*
X5393810Y-5232095D02*
X5393810Y-5192095D01*
X5378571Y-5192095D01*
X5374762Y-5194000D01*
X5372857Y-5195905D01*
X5370952Y-5199714D01*
X5370952Y-5205429D01*
X5372857Y-5209238D01*
X5374762Y-5211143D01*
X5378571Y-5213048D01*
X5393810Y-5213048D01*
X5355714Y-5220667D02*
X5336667Y-5220667D01*
X5359524Y-5232095D02*
X5346191Y-5192095D01*
X5332857Y-5232095D01*
X5319524Y-5232095D02*
X5319524Y-5192095D01*
X5306191Y-5220667D01*
X5292857Y-5192095D01*
X5292857Y-5232095D01*
X5254762Y-5232095D02*
X5273810Y-5232095D01*
X5273810Y-5192095D01*
X5241429Y-5232095D02*
X5241429Y-5192095D01*
X5199524Y-5228286D02*
X5201429Y-5230190D01*
X5207143Y-5232095D01*
X5210952Y-5232095D01*
X5216667Y-5230190D01*
X5220476Y-5226381D01*
X5222381Y-5222571D01*
X5224286Y-5214952D01*
X5224286Y-5209238D01*
X5222381Y-5201619D01*
X5220476Y-5197810D01*
X5216667Y-5194000D01*
X5210952Y-5192095D01*
X5207143Y-5192095D01*
X5201429Y-5194000D01*
X5199524Y-5195905D01*
X5182381Y-5232095D02*
X5182381Y-5192095D01*
X5182381Y-5211143D02*
X5159524Y-5211143D01*
X5159524Y-5232095D02*
X5159524Y-5192095D01*
X4515314Y-5221895D02*
X4515314Y-5181895D01*
X4498171Y-5221895D02*
X4498171Y-5200943D01*
X4500076Y-5197133D01*
X4503886Y-5195229D01*
X4509600Y-5195229D01*
X4513409Y-5197133D01*
X4515314Y-5199038D01*
X4461981Y-5221895D02*
X4461981Y-5200943D01*
X4463886Y-5197133D01*
X4467695Y-5195229D01*
X4475314Y-5195229D01*
X4479124Y-5197133D01*
X4461981Y-5219990D02*
X4465790Y-5221895D01*
X4475314Y-5221895D01*
X4479124Y-5219990D01*
X4481029Y-5216181D01*
X4481029Y-5212371D01*
X4479124Y-5208562D01*
X4475314Y-5206657D01*
X4465790Y-5206657D01*
X4461981Y-5204752D01*
X4442933Y-5221895D02*
X4442933Y-5195229D01*
X4442933Y-5202848D02*
X4441029Y-5199038D01*
X4439124Y-5197133D01*
X4435314Y-5195229D01*
X4431505Y-5195229D01*
X4401029Y-5221895D02*
X4401029Y-5181895D01*
X4401029Y-5219990D02*
X4404838Y-5221895D01*
X4412457Y-5221895D01*
X4416267Y-5219990D01*
X4418171Y-5218086D01*
X4420076Y-5214276D01*
X4420076Y-5202848D01*
X4418171Y-5199038D01*
X4416267Y-5197133D01*
X4412457Y-5195229D01*
X4404838Y-5195229D01*
X4401029Y-5197133D01*
X4385790Y-5195229D02*
X4378171Y-5221895D01*
X4370552Y-5202848D01*
X4362933Y-5221895D01*
X4355314Y-5195229D01*
X4322933Y-5221895D02*
X4322933Y-5200943D01*
X4324838Y-5197133D01*
X4328648Y-5195229D01*
X4336267Y-5195229D01*
X4340076Y-5197133D01*
X4322933Y-5219990D02*
X4326743Y-5221895D01*
X4336267Y-5221895D01*
X4340076Y-5219990D01*
X4341981Y-5216181D01*
X4341981Y-5212371D01*
X4340076Y-5208562D01*
X4336267Y-5206657D01*
X4326743Y-5206657D01*
X4322933Y-5204752D01*
X4303886Y-5221895D02*
X4303886Y-5195229D01*
X4303886Y-5202848D02*
X4301981Y-5199038D01*
X4300076Y-5197133D01*
X4296267Y-5195229D01*
X4292457Y-5195229D01*
X4263886Y-5219990D02*
X4267695Y-5221895D01*
X4275314Y-5221895D01*
X4279124Y-5219990D01*
X4281029Y-5216181D01*
X4281029Y-5200943D01*
X4279124Y-5197133D01*
X4275314Y-5195229D01*
X4267695Y-5195229D01*
X4263886Y-5197133D01*
X4261981Y-5200943D01*
X4261981Y-5204752D01*
X4281029Y-5208562D01*
X4545476Y-5168095D02*
X4549286Y-5166190D01*
X4551190Y-5164286D01*
X4553095Y-5160476D01*
X4553095Y-5149048D01*
X4551190Y-5145238D01*
X4549286Y-5143333D01*
X4545476Y-5141429D01*
X4539762Y-5141429D01*
X4535952Y-5143333D01*
X4534048Y-5145238D01*
X4532143Y-5149048D01*
X4532143Y-5160476D01*
X4534048Y-5164286D01*
X4535952Y-5166190D01*
X4539762Y-5168095D01*
X4545476Y-5168095D01*
X4515000Y-5141429D02*
X4515000Y-5181429D01*
X4515000Y-5143333D02*
X4511190Y-5141429D01*
X4503571Y-5141429D01*
X4499762Y-5143333D01*
X4497857Y-5145238D01*
X4495952Y-5149048D01*
X4495952Y-5160476D01*
X4497857Y-5164286D01*
X4499762Y-5166190D01*
X4503571Y-5168095D01*
X4511190Y-5168095D01*
X4515000Y-5166190D01*
X4463571Y-5166190D02*
X4467381Y-5168095D01*
X4475000Y-5168095D01*
X4478809Y-5166190D01*
X4480714Y-5162381D01*
X4480714Y-5147143D01*
X4478809Y-5143333D01*
X4475000Y-5141429D01*
X4467381Y-5141429D01*
X4463571Y-5143333D01*
X4461667Y-5147143D01*
X4461667Y-5150952D01*
X4480714Y-5154762D01*
X4444524Y-5141429D02*
X4444524Y-5168095D01*
X4444524Y-5145238D02*
X4442619Y-5143333D01*
X4438809Y-5141429D01*
X4433095Y-5141429D01*
X4429286Y-5143333D01*
X4427381Y-5147143D01*
X4427381Y-5168095D01*
X4379762Y-5166190D02*
X4375952Y-5168095D01*
X4368333Y-5168095D01*
X4364524Y-5166190D01*
X4362619Y-5162381D01*
X4362619Y-5160476D01*
X4364524Y-5156667D01*
X4368333Y-5154762D01*
X4374048Y-5154762D01*
X4377857Y-5152857D01*
X4379762Y-5149048D01*
X4379762Y-5147143D01*
X4377857Y-5143333D01*
X4374048Y-5141429D01*
X4368333Y-5141429D01*
X4364524Y-5143333D01*
X4339762Y-5168095D02*
X4343571Y-5166190D01*
X4345476Y-5164286D01*
X4347381Y-5160476D01*
X4347381Y-5149048D01*
X4345476Y-5145238D01*
X4343571Y-5143333D01*
X4339762Y-5141429D01*
X4334048Y-5141429D01*
X4330238Y-5143333D01*
X4328333Y-5145238D01*
X4326429Y-5149048D01*
X4326429Y-5160476D01*
X4328333Y-5164286D01*
X4330238Y-5166190D01*
X4334048Y-5168095D01*
X4339762Y-5168095D01*
X4292143Y-5141429D02*
X4292143Y-5168095D01*
X4309286Y-5141429D02*
X4309286Y-5162381D01*
X4307381Y-5166190D01*
X4303571Y-5168095D01*
X4297857Y-5168095D01*
X4294048Y-5166190D01*
X4292143Y-5164286D01*
X4273095Y-5168095D02*
X4273095Y-5141429D01*
X4273095Y-5149048D02*
X4271190Y-5145238D01*
X4269286Y-5143333D01*
X4265476Y-5141429D01*
X4261667Y-5141429D01*
X4231191Y-5166190D02*
X4235000Y-5168095D01*
X4242619Y-5168095D01*
X4246429Y-5166190D01*
X4248333Y-5164286D01*
X4250238Y-5160476D01*
X4250238Y-5149048D01*
X4248333Y-5145238D01*
X4246429Y-5143333D01*
X4242619Y-5141429D01*
X4235000Y-5141429D01*
X4231191Y-5143333D01*
X4198810Y-5166190D02*
X4202619Y-5168095D01*
X4210238Y-5168095D01*
X4214048Y-5166190D01*
X4215952Y-5162381D01*
X4215952Y-5147143D01*
X4214048Y-5143333D01*
X4210238Y-5141429D01*
X4202619Y-5141429D01*
X4198810Y-5143333D01*
X4196905Y-5147143D01*
X4196905Y-5150952D01*
X4215952Y-5154762D01*
D12*
G36*
X4450800Y-5137300D02*
X4449400Y-5136600D01*
X4446500Y-5134700D01*
X4442300Y-5132000D01*
X4437400Y-5128700D01*
X4432500Y-5125300D01*
X4428400Y-5122600D01*
X4425500Y-5120800D01*
X4424300Y-5120100D01*
X4423700Y-5120400D01*
X4421300Y-5121500D01*
X4417900Y-5123300D01*
X4416000Y-5124300D01*
X4412800Y-5125700D01*
X4411300Y-5125900D01*
X4411000Y-5125500D01*
X4409900Y-5123100D01*
X4408100Y-5119000D01*
X4405700Y-5113600D01*
X4403000Y-5107200D01*
X4400100Y-5100400D01*
X4397200Y-5093400D01*
X4394400Y-5086800D01*
X4392000Y-5080800D01*
X4390000Y-5075900D01*
X4388700Y-5072500D01*
X4388300Y-5071100D01*
X4388400Y-5070800D01*
X4390000Y-5069200D01*
X4392700Y-5067200D01*
X4398600Y-5062400D01*
X4404500Y-5055100D01*
X4408000Y-5046800D01*
X4409200Y-5037600D01*
X4408200Y-5029100D01*
X4404800Y-5020900D01*
X4399100Y-5013600D01*
X4392200Y-5008100D01*
X4384100Y-5004600D01*
X4375000Y-5003500D01*
X4366300Y-5004500D01*
X4357900Y-5007800D01*
X4350600Y-5013400D01*
X4347500Y-5017000D01*
X4343200Y-5024500D01*
X4340700Y-5032400D01*
X4340500Y-5034500D01*
X4340800Y-5043200D01*
X4343400Y-5051600D01*
X4348100Y-5059200D01*
X4354500Y-5065300D01*
X4355300Y-5065900D01*
X4358300Y-5068100D01*
X4360300Y-5069700D01*
X4361800Y-5071000D01*
X4350700Y-5097900D01*
X4348900Y-5102200D01*
X4345800Y-5109500D01*
X4343100Y-5115800D01*
X4341000Y-5120900D01*
X4339500Y-5124300D01*
X4338800Y-5125600D01*
X4338700Y-5125700D01*
X4337800Y-5125900D01*
X4335700Y-5125100D01*
X4332000Y-5123300D01*
X4329500Y-5122000D01*
X4326600Y-5120600D01*
X4325300Y-5120100D01*
X4324200Y-5120700D01*
X4321500Y-5122500D01*
X4317500Y-5125200D01*
X4312700Y-5128400D01*
X4308100Y-5131600D01*
X4303900Y-5134300D01*
X4300800Y-5136300D01*
X4299300Y-5137100D01*
X4299100Y-5137100D01*
X4297700Y-5136400D01*
X4295300Y-5134300D01*
X4291700Y-5130900D01*
X4286500Y-5125800D01*
X4285700Y-5125000D01*
X4281400Y-5120600D01*
X4278000Y-5117000D01*
X4275600Y-5114400D01*
X4274800Y-5113200D01*
X4274800Y-5113200D01*
X4275600Y-5111800D01*
X4277500Y-5108700D01*
X4280300Y-5104400D01*
X4283700Y-5099400D01*
X4292600Y-5086500D01*
X4287700Y-5074300D01*
X4286200Y-5070500D01*
X4284300Y-5066000D01*
X4282900Y-5062800D01*
X4282200Y-5061300D01*
X4280800Y-5060900D01*
X4277500Y-5060100D01*
X4272700Y-5059100D01*
X4266900Y-5058000D01*
X4261400Y-5057000D01*
X4256400Y-5056000D01*
X4252800Y-5055300D01*
X4251200Y-5055000D01*
X4250800Y-5054800D01*
X4250500Y-5054000D01*
X4250200Y-5052300D01*
X4250100Y-5049300D01*
X4250100Y-5044500D01*
X4250100Y-5037600D01*
X4250100Y-5036900D01*
X4250100Y-5030300D01*
X4250200Y-5025100D01*
X4250400Y-5021700D01*
X4250600Y-5020300D01*
X4250700Y-5020300D01*
X4252200Y-5019900D01*
X4255700Y-5019200D01*
X4260700Y-5018200D01*
X4266600Y-5017100D01*
X4267000Y-5017000D01*
X4272900Y-5015900D01*
X4277900Y-5014800D01*
X4281300Y-5014000D01*
X4282800Y-5013600D01*
X4283100Y-5013200D01*
X4284300Y-5010900D01*
X4286000Y-5007200D01*
X4288000Y-5002700D01*
X4289900Y-4998100D01*
X4291600Y-4993900D01*
X4292700Y-4990800D01*
X4293000Y-4989400D01*
X4293000Y-4989300D01*
X4292100Y-4987900D01*
X4290100Y-4984900D01*
X4287200Y-4980600D01*
X4283800Y-4975600D01*
X4283500Y-4975200D01*
X4280100Y-4970200D01*
X4277300Y-4966000D01*
X4275500Y-4963000D01*
X4274800Y-4961600D01*
X4274800Y-4961500D01*
X4275900Y-4960000D01*
X4278500Y-4957200D01*
X4282100Y-4953400D01*
X4286500Y-4949000D01*
X4287900Y-4947600D01*
X4292800Y-4942900D01*
X4296100Y-4939700D01*
X4298200Y-4938100D01*
X4299200Y-4937700D01*
X4299300Y-4937800D01*
X4300800Y-4938700D01*
X4303900Y-4940700D01*
X4308200Y-4943600D01*
X4313300Y-4947100D01*
X4313700Y-4947300D01*
X4318600Y-4950700D01*
X4322800Y-4953500D01*
X4325800Y-4955500D01*
X4327100Y-4956300D01*
X4327300Y-4956300D01*
X4329300Y-4955700D01*
X4332900Y-4954400D01*
X4337200Y-4952700D01*
X4341900Y-4950900D01*
X4346100Y-4949100D01*
X4349200Y-4947600D01*
X4350700Y-4946800D01*
X4350700Y-4946700D01*
X4351300Y-4944900D01*
X4352100Y-4941200D01*
X4353200Y-4936100D01*
X4354400Y-4929900D01*
X4354500Y-4929000D01*
X4355700Y-4923000D01*
X4356600Y-4918100D01*
X4357300Y-4914700D01*
X4357700Y-4913300D01*
X4358500Y-4913100D01*
X4361400Y-4912900D01*
X4365900Y-4912800D01*
X4371200Y-4912700D01*
X4376900Y-4912700D01*
X4382400Y-4912900D01*
X4387100Y-4913000D01*
X4390500Y-4913300D01*
X4391900Y-4913500D01*
X4391900Y-4913600D01*
X4392500Y-4915500D01*
X4393300Y-4919200D01*
X4394300Y-4924400D01*
X4395500Y-4930500D01*
X4395700Y-4931600D01*
X4396800Y-4937500D01*
X4397800Y-4942400D01*
X4398600Y-4945800D01*
X4398900Y-4947100D01*
X4399500Y-4947400D01*
X4401900Y-4948400D01*
X4405900Y-4950100D01*
X4410800Y-4952100D01*
X4422300Y-4956700D01*
X4436300Y-4947100D01*
X4437600Y-4946200D01*
X4442600Y-4942800D01*
X4446800Y-4940000D01*
X4449700Y-4938200D01*
X4450900Y-4937500D01*
X4451000Y-4937500D01*
X4452400Y-4938800D01*
X4455100Y-4941400D01*
X4458900Y-4945100D01*
X4463400Y-4949500D01*
X4466600Y-4952700D01*
X4470500Y-4956700D01*
X4472900Y-4959300D01*
X4474300Y-4961000D01*
X4474800Y-4962000D01*
X4474600Y-4962700D01*
X4473700Y-4964200D01*
X4471700Y-4967200D01*
X4468800Y-4971500D01*
X4465400Y-4976500D01*
X4462600Y-4980600D01*
X4459500Y-4985300D01*
X4457500Y-4988700D01*
X4456800Y-4990300D01*
X4457000Y-4991000D01*
X4458000Y-4993800D01*
X4459700Y-4997900D01*
X4461800Y-5002900D01*
X4466600Y-5014000D01*
X4473900Y-5015400D01*
X4478300Y-5016200D01*
X4484500Y-5017400D01*
X4490400Y-5018500D01*
X4499600Y-5020300D01*
X4500000Y-5054200D01*
X4498500Y-5054800D01*
X4497200Y-5055100D01*
X4493800Y-5055900D01*
X4488900Y-5056900D01*
X4483100Y-5057900D01*
X4478200Y-5058900D01*
X4473300Y-5059800D01*
X4469700Y-5060500D01*
X4468200Y-5060800D01*
X4467800Y-5061300D01*
X4466500Y-5063700D01*
X4464800Y-5067500D01*
X4462800Y-5072100D01*
X4460800Y-5076900D01*
X4459100Y-5081200D01*
X4457900Y-5084600D01*
X4457400Y-5086300D01*
X4458100Y-5087600D01*
X4460000Y-5090500D01*
X4462700Y-5094600D01*
X4466100Y-5099500D01*
X4469400Y-5104400D01*
X4472200Y-5108600D01*
X4474200Y-5111700D01*
X4475000Y-5113000D01*
X4474600Y-5114000D01*
X4472700Y-5116300D01*
X4469000Y-5120200D01*
X4463500Y-5125600D01*
X4462600Y-5126500D01*
X4458200Y-5130700D01*
X4454500Y-5134100D01*
X4451900Y-5136400D01*
X4450800Y-5137300D01*
X4450800Y-5137300D01*
G37*
X4450800Y-5137300D02*
X4449400Y-5136600D01*
X4446500Y-5134700D01*
X4442300Y-5132000D01*
X4437400Y-5128700D01*
X4432500Y-5125300D01*
X4428400Y-5122600D01*
X4425500Y-5120800D01*
X4424300Y-5120100D01*
X4423700Y-5120400D01*
X4421300Y-5121500D01*
X4417900Y-5123300D01*
X4416000Y-5124300D01*
X4412800Y-5125700D01*
X4411300Y-5125900D01*
X4411000Y-5125500D01*
X4409900Y-5123100D01*
X4408100Y-5119000D01*
X4405700Y-5113600D01*
X4403000Y-5107200D01*
X4400100Y-5100400D01*
X4397200Y-5093400D01*
X4394400Y-5086800D01*
X4392000Y-5080800D01*
X4390000Y-5075900D01*
X4388700Y-5072500D01*
X4388300Y-5071100D01*
X4388400Y-5070800D01*
X4390000Y-5069200D01*
X4392700Y-5067200D01*
X4398600Y-5062400D01*
X4404500Y-5055100D01*
X4408000Y-5046800D01*
X4409200Y-5037600D01*
X4408200Y-5029100D01*
X4404800Y-5020900D01*
X4399100Y-5013600D01*
X4392200Y-5008100D01*
X4384100Y-5004600D01*
X4375000Y-5003500D01*
X4366300Y-5004500D01*
X4357900Y-5007800D01*
X4350600Y-5013400D01*
X4347500Y-5017000D01*
X4343200Y-5024500D01*
X4340700Y-5032400D01*
X4340500Y-5034500D01*
X4340800Y-5043200D01*
X4343400Y-5051600D01*
X4348100Y-5059200D01*
X4354500Y-5065300D01*
X4355300Y-5065900D01*
X4358300Y-5068100D01*
X4360300Y-5069700D01*
X4361800Y-5071000D01*
X4350700Y-5097900D01*
X4348900Y-5102200D01*
X4345800Y-5109500D01*
X4343100Y-5115800D01*
X4341000Y-5120900D01*
X4339500Y-5124300D01*
X4338800Y-5125600D01*
X4338700Y-5125700D01*
X4337800Y-5125900D01*
X4335700Y-5125100D01*
X4332000Y-5123300D01*
X4329500Y-5122000D01*
X4326600Y-5120600D01*
X4325300Y-5120100D01*
X4324200Y-5120700D01*
X4321500Y-5122500D01*
X4317500Y-5125200D01*
X4312700Y-5128400D01*
X4308100Y-5131600D01*
X4303900Y-5134300D01*
X4300800Y-5136300D01*
X4299300Y-5137100D01*
X4299100Y-5137100D01*
X4297700Y-5136400D01*
X4295300Y-5134300D01*
X4291700Y-5130900D01*
X4286500Y-5125800D01*
X4285700Y-5125000D01*
X4281400Y-5120600D01*
X4278000Y-5117000D01*
X4275600Y-5114400D01*
X4274800Y-5113200D01*
X4274800Y-5113200D01*
X4275600Y-5111800D01*
X4277500Y-5108700D01*
X4280300Y-5104400D01*
X4283700Y-5099400D01*
X4292600Y-5086500D01*
X4287700Y-5074300D01*
X4286200Y-5070500D01*
X4284300Y-5066000D01*
X4282900Y-5062800D01*
X4282200Y-5061300D01*
X4280800Y-5060900D01*
X4277500Y-5060100D01*
X4272700Y-5059100D01*
X4266900Y-5058000D01*
X4261400Y-5057000D01*
X4256400Y-5056000D01*
X4252800Y-5055300D01*
X4251200Y-5055000D01*
X4250800Y-5054800D01*
X4250500Y-5054000D01*
X4250200Y-5052300D01*
X4250100Y-5049300D01*
X4250100Y-5044500D01*
X4250100Y-5037600D01*
X4250100Y-5036900D01*
X4250100Y-5030300D01*
X4250200Y-5025100D01*
X4250400Y-5021700D01*
X4250600Y-5020300D01*
X4250700Y-5020300D01*
X4252200Y-5019900D01*
X4255700Y-5019200D01*
X4260700Y-5018200D01*
X4266600Y-5017100D01*
X4267000Y-5017000D01*
X4272900Y-5015900D01*
X4277900Y-5014800D01*
X4281300Y-5014000D01*
X4282800Y-5013600D01*
X4283100Y-5013200D01*
X4284300Y-5010900D01*
X4286000Y-5007200D01*
X4288000Y-5002700D01*
X4289900Y-4998100D01*
X4291600Y-4993900D01*
X4292700Y-4990800D01*
X4293000Y-4989400D01*
X4293000Y-4989300D01*
X4292100Y-4987900D01*
X4290100Y-4984900D01*
X4287200Y-4980600D01*
X4283800Y-4975600D01*
X4283500Y-4975200D01*
X4280100Y-4970200D01*
X4277300Y-4966000D01*
X4275500Y-4963000D01*
X4274800Y-4961600D01*
X4274800Y-4961500D01*
X4275900Y-4960000D01*
X4278500Y-4957200D01*
X4282100Y-4953400D01*
X4286500Y-4949000D01*
X4287900Y-4947600D01*
X4292800Y-4942900D01*
X4296100Y-4939700D01*
X4298200Y-4938100D01*
X4299200Y-4937700D01*
X4299300Y-4937800D01*
X4300800Y-4938700D01*
X4303900Y-4940700D01*
X4308200Y-4943600D01*
X4313300Y-4947100D01*
X4313700Y-4947300D01*
X4318600Y-4950700D01*
X4322800Y-4953500D01*
X4325800Y-4955500D01*
X4327100Y-4956300D01*
X4327300Y-4956300D01*
X4329300Y-4955700D01*
X4332900Y-4954400D01*
X4337200Y-4952700D01*
X4341900Y-4950900D01*
X4346100Y-4949100D01*
X4349200Y-4947600D01*
X4350700Y-4946800D01*
X4350700Y-4946700D01*
X4351300Y-4944900D01*
X4352100Y-4941200D01*
X4353200Y-4936100D01*
X4354400Y-4929900D01*
X4354500Y-4929000D01*
X4355700Y-4923000D01*
X4356600Y-4918100D01*
X4357300Y-4914700D01*
X4357700Y-4913300D01*
X4358500Y-4913100D01*
X4361400Y-4912900D01*
X4365900Y-4912800D01*
X4371200Y-4912700D01*
X4376900Y-4912700D01*
X4382400Y-4912900D01*
X4387100Y-4913000D01*
X4390500Y-4913300D01*
X4391900Y-4913500D01*
X4391900Y-4913600D01*
X4392500Y-4915500D01*
X4393300Y-4919200D01*
X4394300Y-4924400D01*
X4395500Y-4930500D01*
X4395700Y-4931600D01*
X4396800Y-4937500D01*
X4397800Y-4942400D01*
X4398600Y-4945800D01*
X4398900Y-4947100D01*
X4399500Y-4947400D01*
X4401900Y-4948400D01*
X4405900Y-4950100D01*
X4410800Y-4952100D01*
X4422300Y-4956700D01*
X4436300Y-4947100D01*
X4437600Y-4946200D01*
X4442600Y-4942800D01*
X4446800Y-4940000D01*
X4449700Y-4938200D01*
X4450900Y-4937500D01*
X4451000Y-4937500D01*
X4452400Y-4938800D01*
X4455100Y-4941400D01*
X4458900Y-4945100D01*
X4463400Y-4949500D01*
X4466600Y-4952700D01*
X4470500Y-4956700D01*
X4472900Y-4959300D01*
X4474300Y-4961000D01*
X4474800Y-4962000D01*
X4474600Y-4962700D01*
X4473700Y-4964200D01*
X4471700Y-4967200D01*
X4468800Y-4971500D01*
X4465400Y-4976500D01*
X4462600Y-4980600D01*
X4459500Y-4985300D01*
X4457500Y-4988700D01*
X4456800Y-4990300D01*
X4457000Y-4991000D01*
X4458000Y-4993800D01*
X4459700Y-4997900D01*
X4461800Y-5002900D01*
X4466600Y-5014000D01*
X4473900Y-5015400D01*
X4478300Y-5016200D01*
X4484500Y-5017400D01*
X4490400Y-5018500D01*
X4499600Y-5020300D01*
X4500000Y-5054200D01*
X4498500Y-5054800D01*
X4497200Y-5055100D01*
X4493800Y-5055900D01*
X4488900Y-5056900D01*
X4483100Y-5057900D01*
X4478200Y-5058900D01*
X4473300Y-5059800D01*
X4469700Y-5060500D01*
X4468200Y-5060800D01*
X4467800Y-5061300D01*
X4466500Y-5063700D01*
X4464800Y-5067500D01*
X4462800Y-5072100D01*
X4460800Y-5076900D01*
X4459100Y-5081200D01*
X4457900Y-5084600D01*
X4457400Y-5086300D01*
X4458100Y-5087600D01*
X4460000Y-5090500D01*
X4462700Y-5094600D01*
X4466100Y-5099500D01*
X4469400Y-5104400D01*
X4472200Y-5108600D01*
X4474200Y-5111700D01*
X4475000Y-5113000D01*
X4474600Y-5114000D01*
X4472700Y-5116300D01*
X4469000Y-5120200D01*
X4463500Y-5125600D01*
X4462600Y-5126500D01*
X4458200Y-5130700D01*
X4454500Y-5134100D01*
X4451900Y-5136400D01*
X4450800Y-5137300D01*
D13*
X4050000Y-3950000D02*
X6050000Y-3950000D01*
X5950000Y-4150000D02*
X4050000Y-4150000D01*
X4050000Y-3950000D02*
X4050000Y-4150000D01*
X6050000Y-3950000D02*
X6050000Y-4050000D01*
X6050000Y-4150000D02*
X5950000Y-4150000D01*
X6050000Y-4050000D02*
X5950000Y-4050000D01*
X5950000Y-4050000D02*
X5950000Y-4150000D01*
X6050000Y-4150000D02*
X6050000Y-4050000D01*
D11*
X6130476Y-4018095D02*
X6130476Y-3978095D01*
X6107619Y-4018095D01*
X6107619Y-3978095D01*
X6067619Y-4018095D02*
X6090476Y-4018095D01*
X6079048Y-4018095D02*
X6079048Y-3978095D01*
X6082857Y-3983810D01*
X6086667Y-3987619D01*
X6090476Y-3989524D01*
M02*
