%FSLAX36Y36*%
G04 Gerber Fmt 3.6, Leading zero omitted, Abs format (unit inch)*
G04 Created by KiCad (PCBNEW (2014-jul-16 BZR unknown)-product) date Sun 08 Feb 2015 08:42:31 PM PST*
%MOIN*%
G01*
G04 APERTURE LIST*
%ADD10C,0.003937*%
%ADD11C,0.068000*%
%ADD12C,0.059100*%
%ADD13C,0.078700*%
%ADD14R,0.078700X0.078700*%
%ADD15C,0.060000*%
%ADD16R,0.068000X0.068000*%
%ADD17O,0.068000X0.068000*%
%ADD18R,0.060000X0.060000*%
%ADD19R,0.055000X0.055000*%
%ADD20C,0.055000*%
%ADD21C,0.078740*%
%ADD22C,0.070866*%
G04 APERTURE END LIST*
D10*
D11*
X7375000Y-5200000D03*
X7375000Y-5600000D03*
X6800000Y-4050000D03*
X6800000Y-4450000D03*
X4450000Y-4675000D03*
X4850000Y-4675000D03*
X4450000Y-4550000D03*
X4850000Y-4550000D03*
X6500000Y-4800000D03*
X6500000Y-4400000D03*
D12*
X5200000Y-5800000D03*
X5100000Y-5800000D03*
X5350000Y-5800000D03*
X5450000Y-5800000D03*
X5000000Y-5500000D03*
X5100000Y-5500000D03*
X5100000Y-4675000D03*
X5000000Y-4675000D03*
X7250000Y-5175000D03*
X7150000Y-5175000D03*
X6950000Y-4250000D03*
X6950000Y-4150000D03*
X6725000Y-4800000D03*
X6825000Y-4800000D03*
X7125000Y-4375000D03*
X7025000Y-4375000D03*
X7375000Y-4375000D03*
X7275000Y-4375000D03*
X6900000Y-4600000D03*
X6800000Y-4600000D03*
X5800000Y-4250000D03*
X5900000Y-4250000D03*
X4950000Y-4325000D03*
X4950000Y-4425000D03*
D13*
X6625000Y-4050000D03*
D14*
X6625000Y-4450000D03*
D15*
X4775000Y-4350000D03*
X4775000Y-4250000D03*
D16*
X7550000Y-5375000D03*
D11*
X7650000Y-5375000D03*
X7750000Y-5375000D03*
D16*
X4425000Y-4350000D03*
D17*
X4425000Y-4250000D03*
X4525000Y-4350000D03*
X4525000Y-4250000D03*
D16*
X6000000Y-4100000D03*
D17*
X6000000Y-4000000D03*
X5900000Y-4100000D03*
X5900000Y-4000000D03*
X5800000Y-4100000D03*
X5800000Y-4000000D03*
X5700000Y-4100000D03*
X5700000Y-4000000D03*
X5600000Y-4100000D03*
X5600000Y-4000000D03*
X5500000Y-4100000D03*
X5500000Y-4000000D03*
X5400000Y-4100000D03*
X5400000Y-4000000D03*
X5300000Y-4100000D03*
X5300000Y-4000000D03*
X5200000Y-4100000D03*
X5200000Y-4000000D03*
X5100000Y-4100000D03*
X5100000Y-4000000D03*
X5000000Y-4100000D03*
X5000000Y-4000000D03*
X4900000Y-4100000D03*
X4900000Y-4000000D03*
X4800000Y-4100000D03*
X4800000Y-4000000D03*
X4700000Y-4100000D03*
X4700000Y-4000000D03*
X4600000Y-4100000D03*
X4600000Y-4000000D03*
X4500000Y-4100000D03*
X4500000Y-4000000D03*
X4400000Y-4100000D03*
X4400000Y-4000000D03*
X4300000Y-4100000D03*
X4300000Y-4000000D03*
X4200000Y-4100000D03*
X4200000Y-4000000D03*
X4100000Y-4100000D03*
X4100000Y-4000000D03*
D18*
X7600000Y-4700000D03*
D15*
X7700000Y-4700000D03*
X7600000Y-4800000D03*
X7700000Y-4800000D03*
X7600000Y-4900000D03*
X7700000Y-4900000D03*
X7600000Y-5000000D03*
X7700000Y-5000000D03*
X7600000Y-5100000D03*
X7700000Y-5100000D03*
D16*
X6475000Y-5825000D03*
D11*
X6575000Y-5825000D03*
X6675000Y-5825000D03*
X6775000Y-5825000D03*
X6875000Y-5825000D03*
X6975000Y-5825000D03*
D16*
X7125000Y-5800000D03*
D11*
X7125000Y-5700000D03*
X7125000Y-5600000D03*
X7125000Y-5500000D03*
X7125000Y-5400000D03*
X7125000Y-5300000D03*
D16*
X4700000Y-5825000D03*
D17*
X4700000Y-5725000D03*
X4800000Y-5825000D03*
X4800000Y-5725000D03*
X4900000Y-5825000D03*
X4900000Y-5725000D03*
D16*
X6200000Y-4000000D03*
D11*
X6300000Y-4000000D03*
X6400000Y-4000000D03*
X6500000Y-4000000D03*
D18*
X5800000Y-5700000D03*
D15*
X5800000Y-5600000D03*
X5900000Y-5700000D03*
X5900000Y-5600000D03*
X6000000Y-5700000D03*
X6000000Y-5600000D03*
X6100000Y-5700000D03*
X6100000Y-5600000D03*
X6200000Y-5700000D03*
X6200000Y-5600000D03*
D16*
X6500000Y-5000000D03*
D11*
X6500000Y-5100000D03*
X6500000Y-5200000D03*
X6500000Y-5300000D03*
X6500000Y-5400000D03*
X6500000Y-5500000D03*
D14*
X7353000Y-4025000D03*
D13*
X7097000Y-4025000D03*
D19*
X5800000Y-4650000D03*
D20*
X5900000Y-4650000D03*
X6000000Y-4650000D03*
X6100000Y-4650000D03*
X6100000Y-4350000D03*
X6000000Y-4350000D03*
X5900000Y-4350000D03*
X5800000Y-4350000D03*
D19*
X6625000Y-5000000D03*
D20*
X6625000Y-5100000D03*
X6625000Y-5200000D03*
X6625000Y-5300000D03*
X6625000Y-5400000D03*
X6625000Y-5500000D03*
X6625000Y-5600000D03*
X6925000Y-5600000D03*
X6925000Y-5500000D03*
X6925000Y-5400000D03*
X6925000Y-5300000D03*
X6925000Y-5200000D03*
X6925000Y-5100000D03*
X6925000Y-5000000D03*
D19*
X7050000Y-4750000D03*
D20*
X7050000Y-4850000D03*
X7050000Y-4950000D03*
X7050000Y-5050000D03*
X7350000Y-5050000D03*
X7350000Y-4950000D03*
X7350000Y-4850000D03*
X7350000Y-4750000D03*
D15*
X7275000Y-4600000D03*
X7325000Y-4525000D03*
X7375000Y-4600000D03*
D19*
X4100000Y-5400000D03*
D20*
X4200000Y-5400000D03*
X4300000Y-5400000D03*
X4400000Y-5400000D03*
X4500000Y-5400000D03*
X4600000Y-5400000D03*
X4700000Y-5400000D03*
X4800000Y-5400000D03*
X4900000Y-5400000D03*
X5000000Y-5400000D03*
X5100000Y-5400000D03*
X5200000Y-5400000D03*
X5300000Y-5400000D03*
X5400000Y-5400000D03*
X5500000Y-5400000D03*
X5600000Y-5400000D03*
X5700000Y-5400000D03*
X5800000Y-5400000D03*
X5900000Y-5400000D03*
X6000000Y-5400000D03*
X6000000Y-4800000D03*
X5900000Y-4800000D03*
X5800000Y-4800000D03*
X5700000Y-4800000D03*
X5600000Y-4800000D03*
X5500000Y-4800000D03*
X5400000Y-4800000D03*
X5300000Y-4800000D03*
X5200000Y-4800000D03*
X5100000Y-4800000D03*
X5000000Y-4800000D03*
X4900000Y-4800000D03*
X4800000Y-4800000D03*
X4700000Y-4800000D03*
X4600000Y-4800000D03*
X4500000Y-4800000D03*
X4400000Y-4800000D03*
X4300000Y-4800000D03*
X4200000Y-4800000D03*
X4100000Y-4800000D03*
D15*
X7025000Y-4600000D03*
X7075000Y-4525000D03*
X7125000Y-4600000D03*
D19*
X5075000Y-4525000D03*
D20*
X5175000Y-4525000D03*
X5275000Y-4525000D03*
X5375000Y-4525000D03*
X5375000Y-4225000D03*
X5275000Y-4225000D03*
X5175000Y-4225000D03*
X5075000Y-4225000D03*
D12*
X5253900Y-5625000D03*
X5446100Y-5625000D03*
D21*
X5650000Y-4546850D03*
X5550000Y-4546850D03*
X5700000Y-4350000D03*
X5500000Y-4350000D03*
D16*
X5250000Y-4675000D03*
D11*
X5350000Y-4675000D03*
X5450000Y-4675000D03*
X5550000Y-4675000D03*
X5650000Y-4675000D03*
D22*
X6375787Y-4800197D03*
X6224213Y-4399803D03*
D16*
X4500000Y-5825000D03*
D11*
X4500000Y-5725000D03*
X4500000Y-5625000D03*
M02*
